G04 #@! TF.GenerationSoftware,KiCad,Pcbnew,(5.0.0-rc2-dev-744-gdfcdfe91f)*
G04 #@! TF.CreationDate,2018-07-03T22:34:29+02:00*
G04 #@! TF.ProjectId,SHMod24,53484D6F6432342E6B696361645F7063,rev?*
G04 #@! TF.SameCoordinates,Original*
G04 #@! TF.FileFunction,Copper,L2,Bot,Signal*
G04 #@! TF.FilePolarity,Positive*
%FSLAX46Y46*%
G04 Gerber Fmt 4.6, Leading zero omitted, Abs format (unit mm)*
G04 Created by KiCad (PCBNEW (5.0.0-rc2-dev-744-gdfcdfe91f)) date 07/03/18 22:34:29*
%MOMM*%
%LPD*%
G01*
G04 APERTURE LIST*
%ADD10C,1.000000*%
%ADD11R,1.000000X1.000000*%
%ADD12R,1.120000X1.400000*%
%ADD13R,1.400000X1.120000*%
%ADD14R,2.500000X1.100000*%
%ADD15C,1.998980*%
%ADD16R,0.650000X1.060000*%
%ADD17R,2.600000X2.600000*%
%ADD18C,2.600000*%
%ADD19R,2.350000X3.500000*%
%ADD20R,0.800000X0.900000*%
%ADD21R,0.820000X1.000000*%
%ADD22R,1.000000X0.820000*%
%ADD23R,0.900000X0.800000*%
%ADD24R,1.550000X0.600000*%
%ADD25R,2.000000X2.000000*%
%ADD26C,2.100000*%
%ADD27R,1.450000X0.450000*%
%ADD28R,1.560000X0.650000*%
%ADD29O,2.199640X1.501140*%
%ADD30O,1.501140X2.199640*%
%ADD31R,1.220000X2.700000*%
%ADD32R,1.800000X2.500000*%
%ADD33R,0.650000X1.560000*%
%ADD34C,0.600000*%
%ADD35C,0.250000*%
%ADD36C,0.400000*%
%ADD37C,0.600000*%
%ADD38C,0.800000*%
%ADD39C,0.254000*%
G04 APERTURE END LIST*
D10*
X52062809Y-80779500D03*
D11*
X74930000Y-88011000D03*
X73580000Y-88011000D03*
X76280000Y-88011000D03*
X75692000Y-99949000D03*
X77042000Y-99949000D03*
X74342000Y-99949000D03*
X72136000Y-77470000D03*
X72136000Y-76170000D03*
D12*
X72571500Y-103886000D03*
X70811500Y-103886000D03*
X65541000Y-90932000D03*
X67301000Y-90932000D03*
D13*
X58293000Y-104530000D03*
X58293000Y-106290000D03*
X81026000Y-101990000D03*
X81026000Y-103750000D03*
X75692000Y-103750000D03*
X75692000Y-101990000D03*
X65913000Y-108213000D03*
X65913000Y-109973000D03*
D12*
X77461000Y-84582000D03*
X75701000Y-84582000D03*
X61223000Y-108204000D03*
X62983000Y-108204000D03*
D13*
X76390500Y-108322000D03*
X76390500Y-106562000D03*
X94234000Y-100702000D03*
X94234000Y-98942000D03*
D12*
X71963500Y-101600000D03*
X73723500Y-101600000D03*
D13*
X61468000Y-97400000D03*
X61468000Y-95640000D03*
D12*
X58166000Y-95758000D03*
X59926000Y-95758000D03*
D13*
X65913000Y-106417000D03*
X65913000Y-104657000D03*
D14*
X69597500Y-72707500D03*
X69597500Y-74707500D03*
X69597500Y-76707500D03*
X69597500Y-78707500D03*
X69597500Y-80707500D03*
X69597500Y-82707500D03*
X69597500Y-84707500D03*
X69597500Y-86707500D03*
X54197500Y-86707500D03*
X54197500Y-84707500D03*
X54197500Y-82707500D03*
X54197500Y-80707500D03*
X54197500Y-78707500D03*
X54197500Y-76707500D03*
X54197500Y-74707500D03*
X54197500Y-72707500D03*
D15*
X53340000Y-101346000D03*
D16*
X79309000Y-103970000D03*
X78359000Y-103970000D03*
X77409000Y-103970000D03*
X77409000Y-101770000D03*
X79309000Y-101770000D03*
D12*
X72399000Y-84582000D03*
X74159000Y-84582000D03*
D17*
X53340000Y-96520000D03*
D18*
X53340000Y-91520000D03*
D19*
X76431000Y-92456000D03*
X70381000Y-92456000D03*
D20*
X84516000Y-109331000D03*
X82616000Y-109331000D03*
X83566000Y-107331000D03*
D21*
X82766000Y-110236000D03*
X84366000Y-110236000D03*
D22*
X86614000Y-105194000D03*
X86614000Y-103594000D03*
X94234000Y-105194000D03*
X94234000Y-103594000D03*
X86614000Y-108750000D03*
X86614000Y-107150000D03*
X94234000Y-108750000D03*
X94234000Y-107150000D03*
D23*
X87519000Y-108900000D03*
X87519000Y-107000000D03*
X89519000Y-107950000D03*
D24*
X86581000Y-101727000D03*
X86581000Y-100457000D03*
X86581000Y-99187000D03*
X86581000Y-97917000D03*
X91981000Y-97917000D03*
X91981000Y-99187000D03*
X91981000Y-100457000D03*
X91981000Y-101727000D03*
D23*
X91329000Y-104394000D03*
X93329000Y-105344000D03*
X93329000Y-103444000D03*
X87519000Y-105344000D03*
X87519000Y-103444000D03*
X89519000Y-104394000D03*
X91329000Y-107950000D03*
X93329000Y-108900000D03*
X93329000Y-107000000D03*
D25*
X98679000Y-101092000D03*
D26*
X98679000Y-98552000D03*
D10*
X73279000Y-72898000D03*
X73279000Y-71628000D03*
D27*
X65053000Y-101006000D03*
X65053000Y-101656000D03*
X65053000Y-102306000D03*
X65053000Y-102956000D03*
X59153000Y-102956000D03*
X59153000Y-102306000D03*
X59153000Y-101656000D03*
X59153000Y-101006000D03*
D28*
X60753000Y-105410000D03*
X60753000Y-104460000D03*
X60753000Y-106360000D03*
X63453000Y-106360000D03*
X63453000Y-105410000D03*
X63453000Y-104460000D03*
D29*
X98425000Y-66040000D03*
X98425000Y-68580000D03*
X98425000Y-71120000D03*
X98425000Y-73660000D03*
X98425000Y-76200000D03*
X98425000Y-78740000D03*
X98425000Y-81280000D03*
X98425000Y-83820000D03*
X98425000Y-86360000D03*
X98425000Y-88900000D03*
X98425000Y-91440000D03*
X98425000Y-93980000D03*
X83185000Y-93980000D03*
X83185000Y-91440000D03*
X83185000Y-88900000D03*
X83185000Y-86360000D03*
X83185000Y-83820000D03*
X83185000Y-81280000D03*
X83185000Y-78740000D03*
X83185000Y-76200000D03*
X83185000Y-73660000D03*
X83185000Y-71120000D03*
X83185000Y-68580000D03*
X83185000Y-66040000D03*
X85725000Y-77470000D03*
X85725000Y-74930000D03*
D30*
X85725000Y-93980000D03*
X88265000Y-93980000D03*
X90805000Y-93980000D03*
D31*
X61595000Y-92710000D03*
X58735000Y-92710000D03*
X73566000Y-97409000D03*
X70706000Y-97409000D03*
D32*
X67437000Y-93504000D03*
X67437000Y-97504000D03*
D24*
X74391500Y-105537000D03*
X74391500Y-106807000D03*
X74391500Y-108077000D03*
X74391500Y-109347000D03*
X68991500Y-109347000D03*
X68991500Y-108077000D03*
X68991500Y-106807000D03*
X68991500Y-105537000D03*
D33*
X64958000Y-97108000D03*
X64008000Y-97108000D03*
X63058000Y-97108000D03*
X63058000Y-94408000D03*
X64958000Y-94408000D03*
X64008000Y-94408000D03*
D15*
X53340000Y-103886000D03*
D12*
X68525500Y-101600000D03*
X70285500Y-101600000D03*
D34*
X68072000Y-76708000D03*
X68961000Y-87630000D03*
X68961000Y-88265000D03*
X60833000Y-85725000D03*
X59690000Y-82677000D03*
X78994000Y-89662000D03*
X78994000Y-90297000D03*
X55753000Y-80645000D03*
X76073000Y-80645000D03*
X66548000Y-80645000D03*
X84963000Y-97663000D03*
X94054185Y-87423304D03*
X55753000Y-82677000D03*
X75447990Y-81281474D03*
X94869000Y-87376000D03*
X85852004Y-109601004D03*
X84455000Y-106299000D03*
X85090000Y-106299000D03*
X66040000Y-81280000D03*
X88011000Y-99187000D03*
X86829987Y-92202000D03*
X56007000Y-86741000D03*
X73152000Y-107315000D03*
X73181942Y-106201942D03*
X72390000Y-83566000D03*
X65921382Y-103660003D03*
X60579000Y-102331000D03*
X60579000Y-101600000D03*
X79537058Y-105699058D03*
X78867000Y-105664000D03*
X65913000Y-109273012D03*
X88494447Y-107409776D03*
X81153002Y-109347000D03*
X81153000Y-108712000D03*
X93345000Y-106045000D03*
X93980000Y-106045000D03*
X93472000Y-109855000D03*
X93980000Y-109474000D03*
X85343968Y-105537000D03*
X59690000Y-80020000D03*
X63500000Y-76835000D03*
X72136000Y-71628000D03*
X97536000Y-96901000D03*
X88519000Y-108077000D03*
X52070000Y-79756000D03*
X81915000Y-77470000D03*
X55753000Y-78740000D03*
X80772000Y-80137000D03*
X65913000Y-74168000D03*
X55753000Y-76835000D03*
X80137000Y-79375000D03*
X74930000Y-87507500D03*
X74930000Y-85907500D03*
X63627000Y-78740000D03*
X83439000Y-103632000D03*
X83439000Y-102997000D03*
X82677000Y-100457000D03*
X83185000Y-100964992D03*
X77978000Y-72400000D03*
X55753000Y-72771000D03*
X79248000Y-76961994D03*
X93218000Y-88265000D03*
X92837000Y-92329000D03*
X81026000Y-73025000D03*
X80061003Y-77500606D03*
X55350085Y-74195016D03*
X92710000Y-87503000D03*
X92202000Y-90805000D03*
X72771000Y-91821000D03*
X73533000Y-91821000D03*
X72770986Y-92583000D03*
X73533000Y-92583000D03*
X59817000Y-94557944D03*
X64897000Y-96012000D03*
X64389000Y-91694000D03*
X95250000Y-105664000D03*
X86674942Y-88458058D03*
X91059000Y-107188000D03*
X96520000Y-96647000D03*
X91694000Y-107188000D03*
X93980011Y-102742989D03*
X91313000Y-103632000D03*
X91821000Y-103241000D03*
X88915999Y-106620457D03*
X86810510Y-106172001D03*
X96139000Y-84455000D03*
X88392004Y-106172000D03*
X90297000Y-105156000D03*
X89662000Y-105156000D03*
X95494000Y-85344000D03*
X89205003Y-105760396D03*
X88900000Y-83820000D03*
X85090000Y-71628000D03*
X88900000Y-71628000D03*
X77089000Y-71882000D03*
X80010000Y-85979000D03*
X91948000Y-83962421D03*
X92456000Y-82639000D03*
X80772000Y-86232998D03*
X67691000Y-75184000D03*
X63881000Y-89789000D03*
X63119000Y-89789000D03*
X63880996Y-89027000D03*
X63119000Y-89027000D03*
X88265000Y-92075002D03*
X89662000Y-95504000D03*
X89154002Y-96901000D03*
X55753000Y-84709000D03*
X74803000Y-81915006D03*
X66548000Y-81915000D03*
X80391000Y-94615000D03*
X90299555Y-87246453D03*
X88656760Y-85603659D03*
X62357000Y-74295000D03*
D35*
X68897500Y-76707500D02*
X68072500Y-76707500D01*
X68072500Y-76707500D02*
X68072000Y-76708000D01*
D36*
X79459000Y-101620000D02*
X79309000Y-101770000D01*
D37*
X68961000Y-87205736D02*
X68961000Y-87630000D01*
D36*
X68897500Y-86707500D02*
X68961000Y-86771000D01*
X68961000Y-86771000D02*
X68961000Y-87205736D01*
X79529000Y-101990000D02*
X79309000Y-101770000D01*
D37*
X81026000Y-101990000D02*
X79529000Y-101990000D01*
X81026000Y-101990000D02*
X81035000Y-101981000D01*
D36*
X68897500Y-86707500D02*
X61815500Y-86707500D01*
X61815500Y-86707500D02*
X60833000Y-85725000D01*
X59690000Y-84582000D02*
X59690000Y-82677000D01*
X60833000Y-85725000D02*
X59690000Y-84582000D01*
D37*
X76928500Y-86707500D02*
X77724000Y-87503000D01*
D36*
X76581000Y-86562000D02*
X76581000Y-86707500D01*
X77461000Y-84582000D02*
X77461000Y-85682000D01*
D37*
X68897500Y-86707500D02*
X76581000Y-86707500D01*
X76581000Y-86707500D02*
X76928500Y-86707500D01*
D36*
X77063600Y-86572400D02*
X76928500Y-86707500D01*
X77063600Y-86079400D02*
X77063600Y-86572400D01*
X77063600Y-86079400D02*
X76581000Y-86562000D01*
X77461000Y-85682000D02*
X77063600Y-86079400D01*
X78994000Y-90297000D02*
X78994000Y-89662000D01*
D37*
X77724000Y-88392000D02*
X78994000Y-89662000D01*
X77724000Y-87503000D02*
X77724000Y-88392000D01*
X68961000Y-87630000D02*
X68961000Y-88265000D01*
X79502000Y-94895036D02*
X79502000Y-90170000D01*
X84239002Y-99632038D02*
X79502000Y-94895036D01*
X84239002Y-101730002D02*
X84239002Y-99632038D01*
X90606000Y-101727000D02*
X91981000Y-101727000D01*
X89805999Y-102527001D02*
X90606000Y-101727000D01*
X84239002Y-101730002D02*
X85036001Y-102527001D01*
X85036001Y-102527001D02*
X89805999Y-102527001D01*
X82326000Y-101990000D02*
X82355001Y-102019001D01*
X83950003Y-102019001D02*
X84239002Y-101730002D01*
X82355001Y-102019001D02*
X83950003Y-102019001D01*
X81026000Y-101990000D02*
X82326000Y-101990000D01*
X79293999Y-89961999D02*
X78994000Y-89662000D01*
X79502000Y-90170000D02*
X79293999Y-89961999D01*
D35*
X54960000Y-80645000D02*
X54897500Y-80707500D01*
X55753000Y-80645000D02*
X54960000Y-80645000D01*
X55753000Y-80645000D02*
X66548000Y-80645000D01*
X76073000Y-80645000D02*
X77978000Y-80645000D01*
X77978000Y-80645000D02*
X79375000Y-82042000D01*
X79375000Y-82042000D02*
X79375000Y-87503000D01*
X79375000Y-87503000D02*
X81153000Y-89281000D01*
X81153000Y-89281000D02*
X81153000Y-93818349D01*
X81153000Y-93818349D02*
X84963000Y-97628349D01*
X84963000Y-97628349D02*
X84963000Y-97663000D01*
X98075750Y-76200000D02*
X94054185Y-80221565D01*
X94054185Y-86999040D02*
X94054185Y-87423304D01*
X94054185Y-80221565D02*
X94054185Y-86999040D01*
X98425000Y-76200000D02*
X98075750Y-76200000D01*
X54897500Y-82707500D02*
X54928000Y-82677000D01*
X54928000Y-82677000D02*
X55328736Y-82677000D01*
X55328736Y-82677000D02*
X55753000Y-82677000D01*
X85217008Y-110236000D02*
X85852004Y-109601004D01*
X84366000Y-110236000D02*
X85217008Y-110236000D01*
X84366000Y-109481000D02*
X84516000Y-109331000D01*
X84366000Y-110236000D02*
X84366000Y-109481000D01*
D37*
X83566000Y-107331000D02*
X83566000Y-107188000D01*
X83566000Y-107188000D02*
X84455000Y-106299000D01*
X85090000Y-106299000D02*
X84455000Y-106299000D01*
D35*
X83566000Y-108966000D02*
X83566000Y-107331000D01*
X84516000Y-109331000D02*
X83931000Y-109331000D01*
X83931000Y-109331000D02*
X83566000Y-108966000D01*
X98425000Y-78740000D02*
X97075180Y-78740000D01*
X94869000Y-80946180D02*
X94869000Y-87376000D01*
X97075180Y-78740000D02*
X94869000Y-80946180D01*
X57150000Y-81280000D02*
X55753000Y-82677000D01*
X66040000Y-81280000D02*
X57150000Y-81280000D01*
X88011000Y-99187000D02*
X86581000Y-99187000D01*
X86581000Y-99187000D02*
X86581000Y-100457000D01*
X85217000Y-99187000D02*
X86581000Y-99187000D01*
X81026000Y-94996000D02*
X85217000Y-99187000D01*
X77852474Y-81281474D02*
X78867000Y-82296000D01*
X75447990Y-81281474D02*
X77852474Y-81281474D01*
X78867000Y-82296000D02*
X78867000Y-87757000D01*
X78867000Y-87757000D02*
X80645000Y-89535000D01*
X81026000Y-94327759D02*
X81026000Y-94996000D01*
X80645000Y-89535000D02*
X80645000Y-93946759D01*
X80645000Y-93946759D02*
X81026000Y-94327759D01*
X83185000Y-83820000D02*
X83185000Y-83824231D01*
X83534250Y-83820000D02*
X84609829Y-84895579D01*
X84609829Y-89981842D02*
X86529988Y-91902001D01*
X83185000Y-83820000D02*
X83534250Y-83820000D01*
X86529988Y-91902001D02*
X86829987Y-92202000D01*
X84609829Y-84895579D02*
X84609829Y-89981842D01*
D36*
X76082000Y-108077000D02*
X76327000Y-108322000D01*
X74391500Y-108077000D02*
X76526500Y-108077000D01*
X54897500Y-86707500D02*
X55973500Y-86707500D01*
X55973500Y-86707500D02*
X56007000Y-86741000D01*
X73152000Y-106172000D02*
X73181942Y-106201942D01*
X73846884Y-105537000D02*
X74391500Y-105537000D01*
X73181942Y-106201942D02*
X73846884Y-105537000D01*
X73181942Y-107285058D02*
X73152000Y-107315000D01*
X73181942Y-106201942D02*
X73181942Y-107285058D01*
X73152000Y-107696000D02*
X73152000Y-107315000D01*
X74391500Y-108077000D02*
X73533000Y-108077000D01*
X73533000Y-108077000D02*
X73152000Y-107696000D01*
X87519000Y-103444000D02*
X87469000Y-103444000D01*
X86764000Y-103444000D02*
X86614000Y-103594000D01*
X87519000Y-103444000D02*
X86764000Y-103444000D01*
X93479000Y-108750000D02*
X93329000Y-108900000D01*
X94234000Y-108750000D02*
X93479000Y-108750000D01*
X93479000Y-105194000D02*
X93329000Y-105344000D01*
X94234000Y-105194000D02*
X93479000Y-105194000D01*
X82766000Y-109481000D02*
X82616000Y-109331000D01*
X82766000Y-110236000D02*
X82766000Y-109481000D01*
X72399000Y-83575000D02*
X72390000Y-83566000D01*
X72399000Y-84582000D02*
X72399000Y-83575000D01*
D37*
X78359000Y-105100000D02*
X78359000Y-103970000D01*
X78542000Y-105283000D02*
X78359000Y-105100000D01*
X75692000Y-104910000D02*
X75692000Y-103750000D01*
X76065000Y-105283000D02*
X75692000Y-104910000D01*
X78542000Y-105283000D02*
X76065000Y-105283000D01*
X74645500Y-105283000D02*
X74391500Y-105537000D01*
X75684000Y-104910000D02*
X75311000Y-105283000D01*
X75692000Y-104910000D02*
X75684000Y-104910000D01*
X76065000Y-105283000D02*
X75311000Y-105283000D01*
X75311000Y-105283000D02*
X74645500Y-105283000D01*
D38*
X75556000Y-103886000D02*
X75692000Y-103750000D01*
X72571500Y-103886000D02*
X75556000Y-103886000D01*
D37*
X65913000Y-104657000D02*
X65913000Y-103668385D01*
X65913000Y-103668385D02*
X65921382Y-103660003D01*
D36*
X59153000Y-102306000D02*
X60554000Y-102306000D01*
X60554000Y-102306000D02*
X60579000Y-102331000D01*
X60579000Y-102331000D02*
X60579000Y-101727000D01*
X60579000Y-101727000D02*
X60579000Y-101600000D01*
D37*
X79756000Y-105480116D02*
X79537058Y-105699058D01*
X79756000Y-105283000D02*
X79756000Y-105480116D01*
X79121000Y-105410000D02*
X78867000Y-105664000D01*
X79121000Y-105283000D02*
X79121000Y-105410000D01*
X79121000Y-105283000D02*
X78542000Y-105283000D01*
X79756000Y-105283000D02*
X79121000Y-105283000D01*
D36*
X65913000Y-109973000D02*
X65913000Y-109697276D01*
X65913000Y-109697276D02*
X65913000Y-109273012D01*
D37*
X80264000Y-105283000D02*
X79756000Y-105283000D01*
X81026000Y-103750000D02*
X81026000Y-104521000D01*
X81026000Y-104521000D02*
X80264000Y-105283000D01*
X86906000Y-107150000D02*
X86614000Y-107150000D01*
D36*
X87519000Y-107000000D02*
X87056000Y-107000000D01*
X87056000Y-107000000D02*
X86906000Y-107150000D01*
D37*
X87519000Y-107000000D02*
X87928776Y-107409776D01*
X87928776Y-107409776D02*
X88070183Y-107409776D01*
X88070183Y-107409776D02*
X88494447Y-107409776D01*
X82616000Y-109331000D02*
X81169002Y-109331000D01*
X81169002Y-109331000D02*
X81153002Y-109347000D01*
X81153002Y-109347000D02*
X81153002Y-108712002D01*
X81153002Y-108712002D02*
X81153000Y-108712000D01*
X93329000Y-105344000D02*
X93329000Y-106029000D01*
X93329000Y-106029000D02*
X93345000Y-106045000D01*
X93329000Y-105344000D02*
X93329000Y-105394000D01*
X93329000Y-105394000D02*
X93980000Y-106045000D01*
X93980000Y-105448000D02*
X94234000Y-105194000D01*
X93980000Y-106045000D02*
X93980000Y-105448000D01*
X93329000Y-108900000D02*
X93329000Y-109712000D01*
X93329000Y-109712000D02*
X93472000Y-109855000D01*
X94234000Y-108750000D02*
X94234000Y-109220000D01*
X94234000Y-109220000D02*
X93980000Y-109474000D01*
X86614000Y-103594000D02*
X86524000Y-103594000D01*
D36*
X86524000Y-103594000D02*
X85644029Y-104473971D01*
D37*
X63500000Y-76835000D02*
X62875000Y-76835000D01*
X62875000Y-76835000D02*
X59690000Y-80020000D01*
D36*
X73279000Y-71628000D02*
X72136000Y-71628000D01*
X96901000Y-97536000D02*
X97536000Y-96901000D01*
X93537000Y-97536000D02*
X96901000Y-97536000D01*
X91981000Y-97917000D02*
X93156000Y-97917000D01*
X93156000Y-97917000D02*
X93537000Y-97536000D01*
D37*
X88494447Y-108052447D02*
X88519000Y-108077000D01*
X88494447Y-107409776D02*
X88494447Y-108052447D01*
D36*
X85343968Y-105112736D02*
X85344000Y-105112704D01*
X85343968Y-105537000D02*
X85343968Y-105112736D01*
X85344000Y-104774000D02*
X85644029Y-104473971D01*
X85344000Y-105112704D02*
X85344000Y-104774000D01*
X52062809Y-80779500D02*
X52062809Y-79763191D01*
X52062809Y-79763191D02*
X52070000Y-79756000D01*
D35*
X54930000Y-78740000D02*
X54897500Y-78707500D01*
X55753000Y-78740000D02*
X54930000Y-78740000D01*
X81915000Y-77470000D02*
X80772000Y-78613000D01*
X80772000Y-78613000D02*
X80772000Y-79712736D01*
X80772000Y-79712736D02*
X80772000Y-80137000D01*
X64897000Y-75184000D02*
X65913000Y-74168000D01*
X55753000Y-78740000D02*
X59309000Y-75184000D01*
X59309000Y-75184000D02*
X64897000Y-75184000D01*
X55025000Y-76835000D02*
X54897500Y-76707500D01*
X55753000Y-76835000D02*
X55025000Y-76835000D01*
X80137000Y-78349613D02*
X80137000Y-78950736D01*
X85725000Y-74930000D02*
X82506736Y-74930000D01*
X80686005Y-76750731D02*
X80686005Y-77800608D01*
X82506736Y-74930000D02*
X80686005Y-76750731D01*
X80137000Y-78950736D02*
X80137000Y-79375000D01*
X80686005Y-77800608D02*
X80137000Y-78349613D01*
D38*
X65904000Y-108204000D02*
X65913000Y-108213000D01*
X62983000Y-108204000D02*
X65904000Y-108204000D01*
D36*
X76280000Y-88011000D02*
X74930000Y-88011000D01*
X76286542Y-88011000D02*
X76280000Y-88011000D01*
X74930000Y-88011000D02*
X74930000Y-87507500D01*
D38*
X77042000Y-99949000D02*
X82169000Y-99949000D01*
X69466500Y-109347000D02*
X68991500Y-109347000D01*
X67192000Y-108213000D02*
X65913000Y-108213000D01*
X68991500Y-109347000D02*
X68326000Y-109347000D01*
X68326000Y-109347000D02*
X67192000Y-108213000D01*
X56007000Y-105156000D02*
X55626000Y-104775000D01*
X56007000Y-106172000D02*
X56007000Y-105156000D01*
X59436000Y-109601000D02*
X56007000Y-106172000D01*
X62548996Y-109601000D02*
X59436000Y-109601000D01*
X62983000Y-108204000D02*
X62983000Y-109166996D01*
X62983000Y-109166996D02*
X62548996Y-109601000D01*
X54753492Y-103886000D02*
X53340000Y-103886000D01*
X55626000Y-104775000D02*
X55626000Y-104758508D01*
X55626000Y-104758508D02*
X54753492Y-103886000D01*
D36*
X66167000Y-78740000D02*
X63627000Y-78740000D01*
X74505736Y-85907500D02*
X74323236Y-85725000D01*
X74930000Y-85907500D02*
X74505736Y-85907500D01*
X74323236Y-85725000D02*
X67691000Y-85725000D01*
X67691000Y-85725000D02*
X67310000Y-85344000D01*
X67310000Y-85344000D02*
X67310000Y-79883000D01*
X67310000Y-79883000D02*
X66167000Y-78740000D01*
X82169000Y-98552000D02*
X82169000Y-99949000D01*
X78740000Y-95123000D02*
X82169000Y-98552000D01*
X78740000Y-91059000D02*
X78740000Y-95123000D01*
X76280000Y-88599000D02*
X78740000Y-91059000D01*
X76280000Y-88011000D02*
X76280000Y-88599000D01*
D38*
X83439000Y-103632000D02*
X83439000Y-102997000D01*
D36*
X83184992Y-100964992D02*
X83185000Y-100964992D01*
X83185000Y-100965000D02*
X83185000Y-100964992D01*
D38*
X82169000Y-99949000D02*
X82677000Y-100457000D01*
X82677008Y-100457000D02*
X83185000Y-100964992D01*
X82677000Y-100457000D02*
X82677008Y-100457000D01*
X77216000Y-109855000D02*
X83439000Y-103632000D01*
X76708000Y-110363000D02*
X77216000Y-109855000D01*
X71582500Y-110363000D02*
X76708000Y-110363000D01*
X70566500Y-109347000D02*
X71582500Y-110363000D01*
X68991500Y-109347000D02*
X70566500Y-109347000D01*
D35*
X78095000Y-72517000D02*
X77978000Y-72400000D01*
X78095000Y-72273000D02*
X78095000Y-72517000D01*
X84201000Y-69850000D02*
X80518000Y-69850000D01*
X98075750Y-66040000D02*
X96393000Y-67722750D01*
X98425000Y-66040000D02*
X98075750Y-66040000D01*
X96393000Y-67722750D02*
X96393000Y-70866000D01*
X96393000Y-70866000D02*
X96266000Y-70993000D01*
X85344000Y-70993000D02*
X84201000Y-69850000D01*
X54897500Y-72707500D02*
X55689500Y-72707500D01*
X55689500Y-72707500D02*
X55753000Y-72771000D01*
X80518000Y-69850000D02*
X78095000Y-72273000D01*
X79248000Y-76537730D02*
X79248000Y-76961994D01*
X77978000Y-72400000D02*
X79248000Y-73670000D01*
X79248000Y-73670000D02*
X79248000Y-76537730D01*
X96266000Y-70993000D02*
X85344000Y-70993000D01*
X92837000Y-92329000D02*
X92906011Y-92398012D01*
X92906011Y-92398012D02*
X92906009Y-95055401D01*
X92906009Y-95055401D02*
X91557390Y-96404020D01*
X91557390Y-96404020D02*
X90539980Y-96404020D01*
X87606000Y-97917000D02*
X86581000Y-97917000D01*
X89063004Y-97917000D02*
X87606000Y-97917000D01*
X89779003Y-97201001D02*
X89063004Y-97917000D01*
X90539980Y-96404020D02*
X89779003Y-97164997D01*
X89779003Y-97164997D02*
X89779003Y-97201001D01*
X93345000Y-88138000D02*
X93218000Y-88265000D01*
X93345000Y-87249000D02*
X93345000Y-88138000D01*
X93599000Y-76327000D02*
X93599000Y-86995000D01*
X98774250Y-66040000D02*
X99849830Y-67115580D01*
X98425000Y-66040000D02*
X98774250Y-66040000D01*
X99849830Y-67115580D02*
X99849830Y-71727170D01*
X99849830Y-71727170D02*
X99187000Y-72390000D01*
X99187000Y-72390000D02*
X97536000Y-72390000D01*
X93599000Y-86995000D02*
X93345000Y-87249000D01*
X97536000Y-72390000D02*
X93599000Y-76327000D01*
X54897500Y-74707500D02*
X55086500Y-74707500D01*
X98425000Y-69088000D02*
X98425000Y-68580000D01*
X81026000Y-73025000D02*
X80061003Y-73989997D01*
X80061003Y-73989997D02*
X80061003Y-77076342D01*
X80061003Y-77076342D02*
X80061003Y-77500606D01*
X55050086Y-74495015D02*
X55350085Y-74195016D01*
X54897500Y-74707500D02*
X54897500Y-74647601D01*
X54897500Y-74647601D02*
X55050086Y-74495015D01*
X81661000Y-72390000D02*
X81026000Y-73025000D01*
X96901000Y-72009000D02*
X96520000Y-72390000D01*
X96901000Y-69754750D02*
X96901000Y-72009000D01*
X98425000Y-68580000D02*
X98075750Y-68580000D01*
X98075750Y-68580000D02*
X96901000Y-69754750D01*
X92710000Y-87247590D02*
X92710000Y-87503000D01*
X93091000Y-86866590D02*
X92710000Y-87247590D01*
X93091000Y-72390000D02*
X93091000Y-86866590D01*
X93091000Y-72390000D02*
X81661000Y-72390000D01*
X96520000Y-72390000D02*
X93091000Y-72390000D01*
X87056000Y-101727000D02*
X86581000Y-101727000D01*
X89408000Y-99375000D02*
X87056000Y-101727000D01*
X93462001Y-92065001D02*
X93462001Y-95135819D01*
X92202000Y-90805000D02*
X93462001Y-92065001D01*
X93462001Y-95135819D02*
X91696820Y-96901000D01*
X91696820Y-96901000D02*
X90932000Y-96901000D01*
X90932000Y-96901000D02*
X89408000Y-98425000D01*
X89408000Y-98425000D02*
X89408000Y-99375000D01*
X59397000Y-108204000D02*
X58293000Y-107100000D01*
X61223000Y-108204000D02*
X59397000Y-108204000D01*
X58293000Y-107100000D02*
X58293000Y-106290000D01*
X58293000Y-106426000D02*
X58293000Y-106660000D01*
X60753000Y-105410000D02*
X59309000Y-105410000D01*
X59309000Y-105410000D02*
X58293000Y-106426000D01*
D36*
X60753000Y-104460000D02*
X58593000Y-104460000D01*
X64318000Y-101656000D02*
X63727999Y-101656000D01*
X65053000Y-101656000D02*
X64318000Y-101656000D01*
X56896000Y-103273000D02*
X56896000Y-101346000D01*
X58293000Y-104530000D02*
X58153000Y-104530000D01*
X58153000Y-104530000D02*
X56896000Y-103273000D01*
D38*
X56896000Y-101346000D02*
X53340000Y-101346000D01*
X56896000Y-101346000D02*
X58061001Y-100180999D01*
X58061001Y-100180999D02*
X60358001Y-100180999D01*
X60358001Y-100180999D02*
X60851013Y-100674011D01*
X62746010Y-100674011D02*
X63727999Y-101656000D01*
X60851013Y-100674011D02*
X62746010Y-100674011D01*
D37*
X63956999Y-103031001D02*
X65053000Y-103031001D01*
X63453000Y-103535000D02*
X63956999Y-103031001D01*
X63453000Y-104460000D02*
X63453000Y-103535000D01*
D35*
X62103000Y-103759000D02*
X62103000Y-106040000D01*
X62423000Y-106360000D02*
X63453000Y-106360000D01*
X61300000Y-102956000D02*
X62103000Y-103759000D01*
X59153000Y-102956000D02*
X61300000Y-102956000D01*
X62103000Y-106040000D02*
X62423000Y-106360000D01*
X63453000Y-106360000D02*
X63387000Y-106426000D01*
X76082000Y-106807000D02*
X76327000Y-106562000D01*
X74391500Y-106807000D02*
X76526500Y-106807000D01*
X64770000Y-105410000D02*
X63453000Y-105410000D01*
X65913000Y-106417000D02*
X65777000Y-106417000D01*
X65777000Y-106417000D02*
X64770000Y-105410000D01*
D36*
X77409000Y-103970000D02*
X77409000Y-103845000D01*
D38*
X68991500Y-105537000D02*
X68991500Y-104300000D01*
X69405500Y-103886000D02*
X70441500Y-103886000D01*
X68991500Y-104300000D02*
X69405500Y-103886000D01*
X75692000Y-99949000D02*
X75692000Y-101990000D01*
D36*
X74342000Y-99949000D02*
X75692000Y-99949000D01*
X73723500Y-101740000D02*
X73723500Y-101600000D01*
X72763500Y-102700000D02*
X73723500Y-101740000D01*
X71857499Y-102700001D02*
X72763500Y-102700000D01*
X70811500Y-103746000D02*
X71857499Y-102700001D01*
X70811500Y-103886000D02*
X70811500Y-103746000D01*
X73566000Y-96680000D02*
X73566000Y-97409000D01*
X72644000Y-95758000D02*
X73566000Y-96680000D01*
X74342000Y-99949000D02*
X74295000Y-99949000D01*
X73660000Y-99314000D02*
X73533000Y-99187000D01*
D37*
X77019001Y-102800001D02*
X76765001Y-102800001D01*
X75955000Y-101990000D02*
X75692000Y-101990000D01*
X76765001Y-102800001D02*
X75955000Y-101990000D01*
X77409000Y-103190000D02*
X77019001Y-102800001D01*
X77409000Y-103970000D02*
X77409000Y-103190000D01*
D36*
X77798999Y-102800001D02*
X77409000Y-103190000D01*
X79069001Y-102800001D02*
X77798999Y-102800001D01*
X79309000Y-103970000D02*
X79309000Y-103040000D01*
X79309000Y-103040000D02*
X79069001Y-102800001D01*
D37*
X73152000Y-109347000D02*
X73051990Y-109246990D01*
X74391500Y-109347000D02*
X73152000Y-109347000D01*
D38*
X73723500Y-101409500D02*
X73723500Y-101600000D01*
X73723500Y-100567500D02*
X73723500Y-101409500D01*
X74342000Y-99949000D02*
X73723500Y-100567500D01*
X74295000Y-99949000D02*
X73660000Y-99314000D01*
D36*
X59392736Y-94557944D02*
X59817000Y-94557944D01*
X58166000Y-95618000D02*
X59226056Y-94557944D01*
X58166000Y-95758000D02*
X58166000Y-95618000D01*
X59226056Y-94557944D02*
X59392736Y-94557944D01*
D38*
X73660000Y-97503000D02*
X73566000Y-97409000D01*
X73660000Y-99314000D02*
X73660000Y-97503000D01*
X71882000Y-108204000D02*
X72924990Y-109246990D01*
X68991500Y-105537000D02*
X70739000Y-105537000D01*
X70739000Y-105537000D02*
X71882000Y-106680000D01*
X71882000Y-106680000D02*
X71882000Y-108204000D01*
D35*
X64897000Y-97047000D02*
X64958000Y-97108000D01*
X64897000Y-96012000D02*
X64897000Y-97047000D01*
X64731000Y-90932000D02*
X64389000Y-91274000D01*
X65541000Y-90932000D02*
X64731000Y-90932000D01*
X64389000Y-91274000D02*
X64389000Y-91694000D01*
X61350000Y-95758000D02*
X61468000Y-95640000D01*
X59926000Y-95758000D02*
X61350000Y-95758000D01*
X63058000Y-96078000D02*
X63058000Y-97108000D01*
X61468000Y-95640000D02*
X62620000Y-95640000D01*
X62620000Y-95640000D02*
X63058000Y-96078000D01*
X92029000Y-107950000D02*
X91329000Y-107950000D01*
X93029000Y-107950000D02*
X92029000Y-107950000D01*
X93329000Y-107650000D02*
X93029000Y-107950000D01*
X93329000Y-107000000D02*
X93329000Y-107650000D01*
X93479000Y-107150000D02*
X93329000Y-107000000D01*
X94234000Y-107150000D02*
X93479000Y-107150000D01*
X95250000Y-106134000D02*
X94234000Y-107150000D01*
X95250000Y-105664000D02*
X95250000Y-106134000D01*
D37*
X91313000Y-107188000D02*
X91059000Y-107188000D01*
X91329000Y-107950000D02*
X91313000Y-107934000D01*
X91313000Y-107934000D02*
X91313000Y-107188000D01*
D35*
X96520000Y-96222736D02*
X96520000Y-96647000D01*
X96520000Y-94107000D02*
X96520000Y-96222736D01*
X86674942Y-88458058D02*
X90871058Y-88458058D01*
X90871058Y-88458058D02*
X96520000Y-94107000D01*
D37*
X91059000Y-107188000D02*
X91694000Y-107188000D01*
D35*
X93091000Y-104394000D02*
X91329000Y-104394000D01*
X93329000Y-103444000D02*
X93329000Y-104156000D01*
X93329000Y-104156000D02*
X93091000Y-104394000D01*
X93380011Y-102742989D02*
X93555747Y-102742989D01*
X93555747Y-102742989D02*
X93980011Y-102742989D01*
X93329000Y-103444000D02*
X93329000Y-102794000D01*
X93329000Y-102794000D02*
X93380011Y-102742989D01*
X93479000Y-103594000D02*
X93329000Y-103444000D01*
X94234000Y-103594000D02*
X93479000Y-103594000D01*
D37*
X91329000Y-104394000D02*
X91329000Y-103648000D01*
X91329000Y-103648000D02*
X91313000Y-103632000D01*
X91704000Y-103241000D02*
X91313000Y-103632000D01*
X91821000Y-103241000D02*
X91704000Y-103241000D01*
D35*
X87519000Y-108900000D02*
X87469000Y-108900000D01*
X86764000Y-108900000D02*
X86614000Y-108750000D01*
X87519000Y-108900000D02*
X86764000Y-108900000D01*
X86614000Y-108750000D02*
X86524000Y-108750000D01*
D37*
X89519000Y-107223458D02*
X88915999Y-106620457D01*
X89519000Y-107950000D02*
X89519000Y-107223458D01*
D35*
X86741000Y-106241511D02*
X86810510Y-106172001D01*
X85725000Y-106553000D02*
X86105999Y-106172001D01*
X86386246Y-106172001D02*
X86810510Y-106172001D01*
X86105999Y-106172001D02*
X86386246Y-106172001D01*
X85725000Y-107951000D02*
X85725000Y-106553000D01*
X86524000Y-108750000D02*
X85725000Y-107951000D01*
X96774000Y-83820000D02*
X98425000Y-83820000D01*
X96139000Y-84455000D02*
X96774000Y-83820000D01*
X87839000Y-109220000D02*
X87519000Y-108900000D01*
X89154000Y-109220000D02*
X87839000Y-109220000D01*
X89519000Y-107950000D02*
X89519000Y-108855000D01*
X89519000Y-108855000D02*
X89154000Y-109220000D01*
D37*
X88915999Y-106620457D02*
X88467542Y-106172000D01*
X88467542Y-106172000D02*
X88392004Y-106172000D01*
D35*
X87519000Y-105344000D02*
X87569000Y-105344000D01*
X88819000Y-104394000D02*
X89519000Y-104394000D01*
X87819000Y-104394000D02*
X88819000Y-104394000D01*
X87519000Y-104694000D02*
X87819000Y-104394000D01*
X87519000Y-105344000D02*
X87519000Y-104694000D01*
X86764000Y-105344000D02*
X86614000Y-105194000D01*
X87519000Y-105344000D02*
X86764000Y-105344000D01*
D37*
X89519000Y-105044000D02*
X89631000Y-105156000D01*
X89631000Y-105156000D02*
X89662000Y-105156000D01*
X89519000Y-104394000D02*
X89519000Y-105044000D01*
X89662000Y-105156000D02*
X90297000Y-105156000D01*
D35*
X96510000Y-86360000D02*
X98425000Y-86360000D01*
X95494000Y-85344000D02*
X96510000Y-86360000D01*
X88905004Y-105460397D02*
X89205003Y-105760396D01*
X87519000Y-105344000D02*
X88788607Y-105344000D01*
X88788607Y-105344000D02*
X88905004Y-105460397D01*
X85090000Y-71628000D02*
X88900000Y-71628000D01*
X68897500Y-78707500D02*
X70898500Y-78707500D01*
X70898500Y-78707500D02*
X72136000Y-77470000D01*
X73025000Y-75184000D02*
X76327000Y-71882000D01*
X72771000Y-77470000D02*
X73025000Y-77216000D01*
X72136000Y-77470000D02*
X72771000Y-77470000D01*
X73025000Y-77216000D02*
X73025000Y-75184000D01*
X76327000Y-71882000D02*
X77089000Y-71882000D01*
X88900000Y-84963000D02*
X92837000Y-88900000D01*
X88900000Y-83820000D02*
X88900000Y-84963000D01*
X92837000Y-88900000D02*
X98425000Y-88900000D01*
X81661000Y-88689264D02*
X80010000Y-87038264D01*
X80010000Y-86403264D02*
X80010000Y-85979000D01*
X81661000Y-90265250D02*
X81661000Y-88689264D01*
X82835750Y-91440000D02*
X81661000Y-90265250D01*
X80010000Y-87038264D02*
X80010000Y-86403264D01*
X83185000Y-91440000D02*
X82835750Y-91440000D01*
X80010000Y-85554736D02*
X80010000Y-85979000D01*
X80010000Y-81788000D02*
X80010000Y-85554736D01*
X70359500Y-84707500D02*
X71247000Y-83820000D01*
X71247000Y-83820000D02*
X71247000Y-82423000D01*
X68897500Y-84707500D02*
X70359500Y-84707500D01*
X71247000Y-82423000D02*
X73660000Y-80010000D01*
X73660000Y-80010000D02*
X78232000Y-80010000D01*
X78232000Y-80010000D02*
X80010000Y-81788000D01*
X91948000Y-83147000D02*
X92456000Y-82639000D01*
X91948000Y-83962421D02*
X91948000Y-83147000D01*
X80772000Y-86657262D02*
X80772000Y-86232998D01*
X80772000Y-86836250D02*
X80772000Y-86657262D01*
X82835750Y-88900000D02*
X80772000Y-86836250D01*
X83185000Y-88900000D02*
X82835750Y-88900000D01*
X73407410Y-79502000D02*
X78486000Y-79502000D01*
X80772000Y-81788000D02*
X80772000Y-85808734D01*
X68897500Y-82707500D02*
X70201910Y-82707500D01*
X78486000Y-79502000D02*
X80772000Y-81788000D01*
X80772000Y-85808734D02*
X80772000Y-86232998D01*
X70201910Y-82707500D02*
X73407410Y-79502000D01*
X81661000Y-86360000D02*
X83185000Y-86360000D01*
X81407000Y-86106000D02*
X81661000Y-86360000D01*
X81407000Y-81661000D02*
X81407000Y-86106000D01*
X78740000Y-78994000D02*
X81407000Y-81661000D01*
X73279000Y-78994000D02*
X78740000Y-78994000D01*
X71565500Y-80707500D02*
X73279000Y-78994000D01*
X68897500Y-80707500D02*
X71565500Y-80707500D01*
X68897500Y-74612500D02*
X68897500Y-74707500D01*
X67691000Y-75184000D02*
X68072000Y-74803000D01*
X68802000Y-74803000D02*
X68897500Y-74707500D01*
X68072000Y-74803000D02*
X68802000Y-74803000D01*
D37*
X64180999Y-89326999D02*
X63881000Y-89027000D01*
X73580000Y-88011000D02*
X73580000Y-88014800D01*
X73580000Y-88014800D02*
X72267801Y-89326999D01*
X72267801Y-89326999D02*
X64180999Y-89326999D01*
D35*
X68516500Y-106807000D02*
X67754500Y-106045000D01*
X68991500Y-106807000D02*
X68516500Y-106807000D01*
X68525500Y-102931000D02*
X68525500Y-101981000D01*
X67754500Y-103702000D02*
X68525500Y-102931000D01*
X67754500Y-106045000D02*
X67754500Y-103702000D01*
X70285500Y-101600000D02*
X71963500Y-101600000D01*
X85059840Y-89294106D02*
X87840736Y-92075002D01*
X85059840Y-82805590D02*
X85059840Y-89294106D01*
X83534250Y-81280000D02*
X85059840Y-82805590D01*
X83185000Y-81280000D02*
X83534250Y-81280000D01*
X87840736Y-92075002D02*
X88265000Y-92075002D01*
X85528990Y-80734740D02*
X85528990Y-88832401D01*
X88146588Y-91449999D02*
X90432589Y-91449999D01*
X90432589Y-91449999D02*
X92005989Y-93023399D01*
X92005989Y-94682601D02*
X91184590Y-95504000D01*
X92005989Y-93023399D02*
X92005989Y-94682601D01*
X91184590Y-95504000D02*
X90086264Y-95504000D01*
X83534250Y-78740000D02*
X85528990Y-80734740D01*
X83185000Y-78740000D02*
X83534250Y-78740000D01*
X85528990Y-88832401D02*
X88146588Y-91449999D01*
X90086264Y-95504000D02*
X89662000Y-95504000D01*
X90100992Y-95954010D02*
X89154002Y-96901000D01*
X91370990Y-95954010D02*
X90100992Y-95954010D01*
X92456000Y-94869000D02*
X91370990Y-95954010D01*
X92456000Y-92837000D02*
X92456000Y-94869000D01*
X83185000Y-76835000D02*
X85979001Y-79629001D01*
X83185000Y-76200000D02*
X83185000Y-76835000D01*
X85979001Y-79629001D02*
X85979001Y-88646001D01*
X85979001Y-88646001D02*
X88332988Y-90999988D01*
X88332988Y-90999988D02*
X90618988Y-90999988D01*
X90618988Y-90999988D02*
X92456000Y-92837000D01*
X54899000Y-84709000D02*
X54897500Y-84707500D01*
X55753000Y-84709000D02*
X54899000Y-84709000D01*
X56515000Y-83947000D02*
X55753000Y-84709000D01*
X66548000Y-81915000D02*
X65024000Y-81915000D01*
X65024000Y-81915000D02*
X64983522Y-81955478D01*
X66548000Y-81915000D02*
X57277000Y-81915000D01*
X57277000Y-81915000D02*
X56515000Y-82677000D01*
X56515000Y-82677000D02*
X56515000Y-83947000D01*
X80391000Y-94615000D02*
X80137000Y-94361000D01*
X80137000Y-94361000D02*
X80137000Y-89789000D01*
X77724006Y-81915006D02*
X74803000Y-81915006D01*
X80137000Y-89789000D02*
X78359000Y-88011000D01*
X78359000Y-88011000D02*
X78359000Y-82550000D01*
X78359000Y-82550000D02*
X77724006Y-81915006D01*
X89999556Y-86946454D02*
X90299555Y-87246453D01*
X94493102Y-91440000D02*
X90599554Y-87546452D01*
X98425000Y-91440000D02*
X94493102Y-91440000D01*
X88656760Y-85603659D02*
X88956760Y-85903658D01*
X90599554Y-87546452D02*
X90299555Y-87246453D01*
X88956760Y-85903658D02*
X89999556Y-86946454D01*
X72136000Y-73533000D02*
X72136000Y-75311000D01*
X68897500Y-72707500D02*
X71310500Y-72707500D01*
X71310500Y-72707500D02*
X72136000Y-73533000D01*
X72644000Y-73533000D02*
X72136000Y-73533000D01*
X73279000Y-72898000D02*
X72644000Y-73533000D01*
X72136000Y-75311000D02*
X72136000Y-76170000D01*
X62656999Y-73995001D02*
X62357000Y-74295000D01*
X63944500Y-72707500D02*
X62656999Y-73995001D01*
X68897500Y-72707500D02*
X63944500Y-72707500D01*
X97908000Y-100321000D02*
X98679000Y-101092000D01*
X93989000Y-100457000D02*
X94234000Y-100702000D01*
X91981000Y-100457000D02*
X93989000Y-100457000D01*
X98289000Y-100702000D02*
X98679000Y-101092000D01*
X94234000Y-100702000D02*
X98289000Y-100702000D01*
X94624000Y-98806000D02*
X94869000Y-98561000D01*
X98670000Y-98561000D02*
X98679000Y-98552000D01*
X93989000Y-99187000D02*
X94234000Y-98942000D01*
X91981000Y-99187000D02*
X93989000Y-99187000D01*
X98289000Y-98942000D02*
X98679000Y-98552000D01*
X94234000Y-98942000D02*
X98289000Y-98942000D01*
X75701000Y-84582000D02*
X74159000Y-84582000D01*
D39*
G36*
X72009000Y-95504000D02*
X65275712Y-95504000D01*
X65252167Y-95480455D01*
X65021718Y-95385000D01*
X64811519Y-95385000D01*
X64818109Y-95375137D01*
X64843000Y-95250000D01*
X64843000Y-92682355D01*
X65515140Y-91965406D01*
X66101000Y-91965406D01*
X66228589Y-91940027D01*
X66336754Y-91867754D01*
X66409027Y-91759589D01*
X66434406Y-91632000D01*
X66434406Y-90984856D01*
X66603021Y-90805000D01*
X72009000Y-90805000D01*
X72009000Y-95504000D01*
X72009000Y-95504000D01*
G37*
X72009000Y-95504000D02*
X65275712Y-95504000D01*
X65252167Y-95480455D01*
X65021718Y-95385000D01*
X64811519Y-95385000D01*
X64818109Y-95375137D01*
X64843000Y-95250000D01*
X64843000Y-92682355D01*
X65515140Y-91965406D01*
X66101000Y-91965406D01*
X66228589Y-91940027D01*
X66336754Y-91867754D01*
X66409027Y-91759589D01*
X66434406Y-91632000D01*
X66434406Y-90984856D01*
X66603021Y-90805000D01*
X72009000Y-90805000D01*
X72009000Y-95504000D01*
G36*
X59436000Y-94030944D02*
X59277955Y-94030944D01*
X59226056Y-94020621D01*
X59174157Y-94030944D01*
X59174153Y-94030944D01*
X59028078Y-94060000D01*
X59020431Y-94061521D01*
X58890111Y-94148598D01*
X58890108Y-94148601D01*
X58846111Y-94177999D01*
X58816712Y-94221997D01*
X58314116Y-94724594D01*
X57606000Y-94724594D01*
X57478411Y-94749973D01*
X57370246Y-94822246D01*
X57297973Y-94930411D01*
X57272594Y-95058000D01*
X57272594Y-96458000D01*
X57297973Y-96585589D01*
X57370246Y-96693754D01*
X57478411Y-96766027D01*
X57606000Y-96791406D01*
X58726000Y-96791406D01*
X58853589Y-96766027D01*
X58961754Y-96693754D01*
X59034027Y-96585589D01*
X59046000Y-96525397D01*
X59057973Y-96585589D01*
X59130246Y-96693754D01*
X59238411Y-96766027D01*
X59366000Y-96791406D01*
X60486000Y-96791406D01*
X60613589Y-96766027D01*
X60721754Y-96693754D01*
X60794027Y-96585589D01*
X60804407Y-96533406D01*
X62168000Y-96533406D01*
X62295589Y-96508027D01*
X62399594Y-96438534D01*
X62399594Y-97888000D01*
X62424973Y-98015589D01*
X62497246Y-98123754D01*
X62605411Y-98196027D01*
X62733000Y-98221406D01*
X63383000Y-98221406D01*
X63510589Y-98196027D01*
X63618754Y-98123754D01*
X63691027Y-98015589D01*
X63716406Y-97888000D01*
X63716406Y-96393000D01*
X64299594Y-96393000D01*
X64299594Y-97888000D01*
X64324973Y-98015589D01*
X64397246Y-98123754D01*
X64505411Y-98196027D01*
X64633000Y-98221406D01*
X65283000Y-98221406D01*
X65410589Y-98196027D01*
X65518754Y-98123754D01*
X65591027Y-98015589D01*
X65616406Y-97888000D01*
X65616406Y-96393000D01*
X66040000Y-96393000D01*
X66088601Y-96383333D01*
X66129803Y-96355803D01*
X66157333Y-96314601D01*
X66167000Y-96266000D01*
X66167000Y-96012000D01*
X72009000Y-96012000D01*
X72009000Y-99695000D01*
X60907621Y-99695000D01*
X60882138Y-99656862D01*
X60641662Y-99496181D01*
X60429600Y-99453999D01*
X60429596Y-99453999D01*
X60358001Y-99439758D01*
X60286406Y-99453999D01*
X58132594Y-99453999D01*
X58061000Y-99439758D01*
X57989406Y-99453999D01*
X57989402Y-99453999D01*
X57777340Y-99496181D01*
X57536864Y-99656862D01*
X57511381Y-99695000D01*
X51562000Y-99695000D01*
X51562000Y-94488000D01*
X55118000Y-94488000D01*
X55166601Y-94478333D01*
X55207803Y-94450803D01*
X58218606Y-91440000D01*
X59436000Y-91440000D01*
X59436000Y-94030944D01*
X59436000Y-94030944D01*
G37*
X59436000Y-94030944D02*
X59277955Y-94030944D01*
X59226056Y-94020621D01*
X59174157Y-94030944D01*
X59174153Y-94030944D01*
X59028078Y-94060000D01*
X59020431Y-94061521D01*
X58890111Y-94148598D01*
X58890108Y-94148601D01*
X58846111Y-94177999D01*
X58816712Y-94221997D01*
X58314116Y-94724594D01*
X57606000Y-94724594D01*
X57478411Y-94749973D01*
X57370246Y-94822246D01*
X57297973Y-94930411D01*
X57272594Y-95058000D01*
X57272594Y-96458000D01*
X57297973Y-96585589D01*
X57370246Y-96693754D01*
X57478411Y-96766027D01*
X57606000Y-96791406D01*
X58726000Y-96791406D01*
X58853589Y-96766027D01*
X58961754Y-96693754D01*
X59034027Y-96585589D01*
X59046000Y-96525397D01*
X59057973Y-96585589D01*
X59130246Y-96693754D01*
X59238411Y-96766027D01*
X59366000Y-96791406D01*
X60486000Y-96791406D01*
X60613589Y-96766027D01*
X60721754Y-96693754D01*
X60794027Y-96585589D01*
X60804407Y-96533406D01*
X62168000Y-96533406D01*
X62295589Y-96508027D01*
X62399594Y-96438534D01*
X62399594Y-97888000D01*
X62424973Y-98015589D01*
X62497246Y-98123754D01*
X62605411Y-98196027D01*
X62733000Y-98221406D01*
X63383000Y-98221406D01*
X63510589Y-98196027D01*
X63618754Y-98123754D01*
X63691027Y-98015589D01*
X63716406Y-97888000D01*
X63716406Y-96393000D01*
X64299594Y-96393000D01*
X64299594Y-97888000D01*
X64324973Y-98015589D01*
X64397246Y-98123754D01*
X64505411Y-98196027D01*
X64633000Y-98221406D01*
X65283000Y-98221406D01*
X65410589Y-98196027D01*
X65518754Y-98123754D01*
X65591027Y-98015589D01*
X65616406Y-97888000D01*
X65616406Y-96393000D01*
X66040000Y-96393000D01*
X66088601Y-96383333D01*
X66129803Y-96355803D01*
X66157333Y-96314601D01*
X66167000Y-96266000D01*
X66167000Y-96012000D01*
X72009000Y-96012000D01*
X72009000Y-99695000D01*
X60907621Y-99695000D01*
X60882138Y-99656862D01*
X60641662Y-99496181D01*
X60429600Y-99453999D01*
X60429596Y-99453999D01*
X60358001Y-99439758D01*
X60286406Y-99453999D01*
X58132594Y-99453999D01*
X58061000Y-99439758D01*
X57989406Y-99453999D01*
X57989402Y-99453999D01*
X57777340Y-99496181D01*
X57536864Y-99656862D01*
X57511381Y-99695000D01*
X51562000Y-99695000D01*
X51562000Y-94488000D01*
X55118000Y-94488000D01*
X55166601Y-94478333D01*
X55207803Y-94450803D01*
X58218606Y-91440000D01*
X59436000Y-91440000D01*
X59436000Y-94030944D01*
G36*
X77851000Y-90984606D02*
X77851000Y-95324394D01*
X74242394Y-98933000D01*
X72517000Y-98933000D01*
X72517000Y-91873606D01*
X74220606Y-90170000D01*
X77036394Y-90170000D01*
X77851000Y-90984606D01*
X77851000Y-90984606D01*
G37*
X77851000Y-90984606D02*
X77851000Y-95324394D01*
X74242394Y-98933000D01*
X72517000Y-98933000D01*
X72517000Y-91873606D01*
X74220606Y-90170000D01*
X77036394Y-90170000D01*
X77851000Y-90984606D01*
G36*
X64389000Y-90630260D02*
X64379908Y-90643867D01*
X64100869Y-90922907D01*
X64063126Y-90948126D01*
X64010696Y-91026594D01*
X63963225Y-91097639D01*
X63929599Y-91266689D01*
X63857455Y-91338833D01*
X63762000Y-91569282D01*
X63762000Y-91818718D01*
X63857455Y-92049167D01*
X64033833Y-92225545D01*
X64264282Y-92321000D01*
X64389000Y-92321000D01*
X64389000Y-93404587D01*
X64324973Y-93500411D01*
X64299594Y-93628000D01*
X64299594Y-95123000D01*
X63716406Y-95123000D01*
X63716406Y-93628000D01*
X63691027Y-93500411D01*
X63618754Y-93392246D01*
X63510589Y-93319973D01*
X63383000Y-93294594D01*
X62733000Y-93294594D01*
X62605411Y-93319973D01*
X62497246Y-93392246D01*
X62424973Y-93500411D01*
X62399594Y-93628000D01*
X62399594Y-94615000D01*
X60444000Y-94615000D01*
X60444000Y-94433226D01*
X60348545Y-94202777D01*
X60325000Y-94179232D01*
X60325000Y-91059000D01*
X60315333Y-91010399D01*
X60287803Y-90969197D01*
X60246601Y-90941667D01*
X60198000Y-90932000D01*
X57912000Y-90932000D01*
X57863399Y-90941667D01*
X57822197Y-90969197D01*
X54811394Y-93980000D01*
X51562000Y-93980000D01*
X51562000Y-88519000D01*
X64389000Y-88519000D01*
X64389000Y-90630260D01*
X64389000Y-90630260D01*
G37*
X64389000Y-90630260D02*
X64379908Y-90643867D01*
X64100869Y-90922907D01*
X64063126Y-90948126D01*
X64010696Y-91026594D01*
X63963225Y-91097639D01*
X63929599Y-91266689D01*
X63857455Y-91338833D01*
X63762000Y-91569282D01*
X63762000Y-91818718D01*
X63857455Y-92049167D01*
X64033833Y-92225545D01*
X64264282Y-92321000D01*
X64389000Y-92321000D01*
X64389000Y-93404587D01*
X64324973Y-93500411D01*
X64299594Y-93628000D01*
X64299594Y-95123000D01*
X63716406Y-95123000D01*
X63716406Y-93628000D01*
X63691027Y-93500411D01*
X63618754Y-93392246D01*
X63510589Y-93319973D01*
X63383000Y-93294594D01*
X62733000Y-93294594D01*
X62605411Y-93319973D01*
X62497246Y-93392246D01*
X62424973Y-93500411D01*
X62399594Y-93628000D01*
X62399594Y-94615000D01*
X60444000Y-94615000D01*
X60444000Y-94433226D01*
X60348545Y-94202777D01*
X60325000Y-94179232D01*
X60325000Y-91059000D01*
X60315333Y-91010399D01*
X60287803Y-90969197D01*
X60246601Y-90941667D01*
X60198000Y-90932000D01*
X57912000Y-90932000D01*
X57863399Y-90941667D01*
X57822197Y-90969197D01*
X54811394Y-93980000D01*
X51562000Y-93980000D01*
X51562000Y-88519000D01*
X64389000Y-88519000D01*
X64389000Y-90630260D01*
M02*
