G04 #@! TF.GenerationSoftware,KiCad,Pcbnew,(5.0.0-rc2-dev-744-gdfcdfe91f)*
G04 #@! TF.CreationDate,2018-07-03T22:34:29+02:00*
G04 #@! TF.ProjectId,SHMod24,53484D6F6432342E6B696361645F7063,rev?*
G04 #@! TF.SameCoordinates,Original*
G04 #@! TF.FileFunction,Soldermask,Bot*
G04 #@! TF.FilePolarity,Negative*
%FSLAX46Y46*%
G04 Gerber Fmt 4.6, Leading zero omitted, Abs format (unit mm)*
G04 Created by KiCad (PCBNEW (5.0.0-rc2-dev-744-gdfcdfe91f)) date 07/03/18 22:34:29*
%MOMM*%
%LPD*%
G01*
G04 APERTURE LIST*
%ADD10C,1.400000*%
%ADD11R,1.000000X1.000000*%
%ADD12R,1.120000X1.400000*%
%ADD13R,1.400000X1.120000*%
%ADD14R,2.500000X1.100000*%
%ADD15C,2.398980*%
%ADD16R,0.650000X1.060000*%
%ADD17R,2.600000X2.600000*%
%ADD18C,3.000000*%
%ADD19R,2.350000X3.500000*%
%ADD20R,0.800000X0.900000*%
%ADD21R,0.820000X1.000000*%
%ADD22R,1.000000X0.820000*%
%ADD23R,0.900000X0.800000*%
%ADD24R,1.550000X0.600000*%
%ADD25R,2.000000X2.000000*%
%ADD26C,2.500000*%
%ADD27C,3.600000*%
%ADD28R,1.450000X0.450000*%
%ADD29R,1.560000X0.650000*%
%ADD30O,2.599640X1.901140*%
%ADD31O,1.901140X2.599640*%
%ADD32R,1.220000X2.700000*%
%ADD33R,1.800000X2.500000*%
%ADD34R,0.650000X1.560000*%
G04 APERTURE END LIST*
D10*
X52062809Y-80779500D03*
D11*
X74930000Y-88011000D03*
X73580000Y-88011000D03*
X76280000Y-88011000D03*
X75692000Y-99949000D03*
X77042000Y-99949000D03*
X74342000Y-99949000D03*
X72136000Y-77470000D03*
X72136000Y-76170000D03*
D12*
X72571500Y-103886000D03*
X70811500Y-103886000D03*
X65541000Y-90932000D03*
X67301000Y-90932000D03*
D13*
X58293000Y-104530000D03*
X58293000Y-106290000D03*
X81026000Y-101990000D03*
X81026000Y-103750000D03*
X75692000Y-103750000D03*
X75692000Y-101990000D03*
X65913000Y-108213000D03*
X65913000Y-109973000D03*
D12*
X77461000Y-84582000D03*
X75701000Y-84582000D03*
X61223000Y-108204000D03*
X62983000Y-108204000D03*
D13*
X76390500Y-108322000D03*
X76390500Y-106562000D03*
X94234000Y-100702000D03*
X94234000Y-98942000D03*
D12*
X71963500Y-101600000D03*
X73723500Y-101600000D03*
D13*
X61468000Y-97400000D03*
X61468000Y-95640000D03*
D12*
X58166000Y-95758000D03*
X59926000Y-95758000D03*
D13*
X65913000Y-106417000D03*
X65913000Y-104657000D03*
D14*
X69597500Y-72707500D03*
X69597500Y-74707500D03*
X69597500Y-76707500D03*
X69597500Y-78707500D03*
X69597500Y-80707500D03*
X69597500Y-82707500D03*
X69597500Y-84707500D03*
X69597500Y-86707500D03*
X54197500Y-86707500D03*
X54197500Y-84707500D03*
X54197500Y-82707500D03*
X54197500Y-80707500D03*
X54197500Y-78707500D03*
X54197500Y-76707500D03*
X54197500Y-74707500D03*
X54197500Y-72707500D03*
D15*
X53340000Y-101346000D03*
D16*
X79309000Y-103970000D03*
X78359000Y-103970000D03*
X77409000Y-103970000D03*
X77409000Y-101770000D03*
X79309000Y-101770000D03*
D12*
X72399000Y-84582000D03*
X74159000Y-84582000D03*
D17*
X53340000Y-96520000D03*
D18*
X53340000Y-91520000D03*
D19*
X76431000Y-92456000D03*
X70381000Y-92456000D03*
D20*
X84516000Y-109331000D03*
X82616000Y-109331000D03*
X83566000Y-107331000D03*
D21*
X82766000Y-110236000D03*
X84366000Y-110236000D03*
D22*
X86614000Y-105194000D03*
X86614000Y-103594000D03*
X94234000Y-105194000D03*
X94234000Y-103594000D03*
X86614000Y-108750000D03*
X86614000Y-107150000D03*
X94234000Y-108750000D03*
X94234000Y-107150000D03*
D23*
X87519000Y-108900000D03*
X87519000Y-107000000D03*
X89519000Y-107950000D03*
D24*
X86581000Y-101727000D03*
X86581000Y-100457000D03*
X86581000Y-99187000D03*
X86581000Y-97917000D03*
X91981000Y-97917000D03*
X91981000Y-99187000D03*
X91981000Y-100457000D03*
X91981000Y-101727000D03*
D23*
X91329000Y-104394000D03*
X93329000Y-105344000D03*
X93329000Y-103444000D03*
X87519000Y-105344000D03*
X87519000Y-103444000D03*
X89519000Y-104394000D03*
X91329000Y-107950000D03*
X93329000Y-108900000D03*
X93329000Y-107000000D03*
D25*
X98679000Y-101092000D03*
D26*
X98679000Y-98552000D03*
D27*
X75565000Y-65405000D03*
X97155000Y-108585000D03*
X53975000Y-108585000D03*
D10*
X73279000Y-72898000D03*
X73279000Y-71628000D03*
D28*
X65053000Y-101006000D03*
X65053000Y-101656000D03*
X65053000Y-102306000D03*
X65053000Y-102956000D03*
X59153000Y-102956000D03*
X59153000Y-102306000D03*
X59153000Y-101656000D03*
X59153000Y-101006000D03*
D29*
X60753000Y-105410000D03*
X60753000Y-104460000D03*
X60753000Y-106360000D03*
X63453000Y-106360000D03*
X63453000Y-105410000D03*
X63453000Y-104460000D03*
D30*
X98425000Y-66040000D03*
X98425000Y-68580000D03*
X98425000Y-71120000D03*
X98425000Y-73660000D03*
X98425000Y-76200000D03*
X98425000Y-78740000D03*
X98425000Y-81280000D03*
X98425000Y-83820000D03*
X98425000Y-86360000D03*
X98425000Y-88900000D03*
X98425000Y-91440000D03*
X98425000Y-93980000D03*
X83185000Y-93980000D03*
X83185000Y-91440000D03*
X83185000Y-88900000D03*
X83185000Y-86360000D03*
X83185000Y-83820000D03*
X83185000Y-81280000D03*
X83185000Y-78740000D03*
X83185000Y-76200000D03*
X83185000Y-73660000D03*
X83185000Y-71120000D03*
X83185000Y-68580000D03*
X83185000Y-66040000D03*
X85725000Y-77470000D03*
X85725000Y-74930000D03*
D31*
X85725000Y-93980000D03*
X88265000Y-93980000D03*
X90805000Y-93980000D03*
D32*
X61595000Y-92710000D03*
X58735000Y-92710000D03*
X73566000Y-97409000D03*
X70706000Y-97409000D03*
D33*
X67437000Y-93504000D03*
X67437000Y-97504000D03*
D24*
X74391500Y-105537000D03*
X74391500Y-106807000D03*
X74391500Y-108077000D03*
X74391500Y-109347000D03*
X68991500Y-109347000D03*
X68991500Y-108077000D03*
X68991500Y-106807000D03*
X68991500Y-105537000D03*
D34*
X64958000Y-97108000D03*
X64008000Y-97108000D03*
X63058000Y-97108000D03*
X63058000Y-94408000D03*
X64958000Y-94408000D03*
X64008000Y-94408000D03*
D15*
X53340000Y-103886000D03*
D12*
X68525500Y-101600000D03*
X70285500Y-101600000D03*
M02*
