M48
;DRILL file {KiCad (5.0.0-rc2-dev-744-gdfcdfe91f)} date 07/03/18 21:41:30
;FORMAT={-:-/ absolute / inch / decimal}
FMAT,2
INCH,TZ
T1C0.0157
T2C0.0315
T3C0.0433
T4C0.0512
%
G90
G05
M72
T1
X2.05Y-3.14
X2.1791Y-2.9211
X2.195Y-2.865
X2.195Y-3.025
X2.195Y-3.1
X2.195Y-3.175
X2.195Y-3.255
X2.195Y-3.335
X2.205Y-3.415
X2.35Y-3.1504
X2.35Y-3.255
X2.355Y-3.7228
X2.385Y-4.
X2.385Y-4.0288
X2.395Y-3.375
X2.455Y-2.925
X2.485Y-3.505
X2.485Y-3.535
X2.5Y-3.025
X2.505Y-3.1
X2.515Y-3.505
X2.515Y-3.535
X2.535Y-3.61
X2.555Y-3.78
X2.595Y-2.92
X2.595Y-4.3021
X2.5953Y-4.0811
X2.6Y-3.2
X2.62Y-3.175
X2.62Y-3.225
X2.665Y-2.96
X2.68Y-3.02
X2.715Y-3.45
X2.715Y-3.475
X2.84Y-2.82
X2.85Y-3.29
X2.865Y-3.645
X2.865Y-3.615
X2.88Y-4.225
X2.8812Y-4.1812
X2.895Y-3.615
X2.895Y-3.645
X2.945Y-3.225
X2.95Y-3.3822
X2.95Y-3.4452
X2.9704Y-3.2001
X2.995Y-3.175
X3.035Y-2.83
X3.07Y-2.8504
X3.105Y-4.16
X3.11Y-3.53
X3.11Y-3.555
X3.12Y-3.03
X3.1314Y-4.1614
X3.15Y-3.385
X3.152Y-3.0512
X3.155Y-3.125
X3.165Y-3.725
X3.18Y-3.155
X3.18Y-3.395
X3.19Y-2.875
X3.195Y-4.28
X3.195Y-4.305
X3.225Y-3.05
X3.255Y-3.955
X3.275Y-3.975
X3.285Y-4.055
X3.285Y-4.08
X3.325Y-4.185
X3.345Y-3.845
X3.35Y-2.82
X3.35Y-4.185
X3.36Y-4.155
X3.38Y-4.315
X3.4124Y-3.4826
X3.4177Y-4.18
X3.4185Y-3.63
X3.465Y-3.905
X3.475Y-3.625
X3.48Y-4.18
X3.484Y-4.2287
X3.485Y-4.255
X3.4904Y-3.3702
X3.5Y-2.82
X3.5Y-3.3
X3.5006Y-4.1977
X3.51Y-3.815
X3.512Y-4.1638
X3.53Y-3.76
X3.53Y-4.14
X3.555Y-4.14
X3.5551Y-3.4349
X3.585Y-4.22
X3.595Y-4.08
X3.61Y-4.22
X3.615Y-4.0646
X3.62Y-3.3056
X3.63Y-3.575
X3.64Y-3.2535
X3.65Y-3.445
X3.655Y-3.635
X3.67Y-3.475
X3.675Y-4.175
X3.68Y-4.325
X3.7Y-4.175
X3.7Y-4.31
X3.7Y-4.045
X3.7029Y-3.4419
X3.735Y-3.44
X3.75Y-4.16
X3.7596Y-3.36
X3.785Y-3.325
X3.8Y-3.805
X3.84Y-3.815
T2
X3.275Y-2.6
X3.275Y-2.7
X3.275Y-2.8
X3.275Y-2.9
X3.275Y-3.
X3.275Y-3.1
X3.275Y-3.2
X3.275Y-3.3
X3.275Y-3.4
X3.275Y-3.5
X3.275Y-3.6
X3.275Y-3.7
X3.375Y-2.95
X3.375Y-3.05
X3.375Y-3.7
X3.475Y-3.7
X3.575Y-3.7
X3.875Y-2.6
X3.875Y-2.7
X3.875Y-2.8
X3.875Y-2.9
X3.875Y-3.
X3.875Y-3.1
X3.875Y-3.2
X3.875Y-3.3
X3.875Y-3.4
X3.875Y-3.5
X3.875Y-3.6
X3.875Y-3.7
T3
X2.1Y-3.99
X3.885Y-3.88
X3.885Y-3.98
X2.1Y-4.09
T4
X2.1Y-3.6031
X2.1Y-3.8
T0
M30
