G04 #@! TF.GenerationSoftware,KiCad,Pcbnew,(5.0.0-rc2-dev-744-gdfcdfe91f)*
G04 #@! TF.CreationDate,2018-07-03T22:34:29+02:00*
G04 #@! TF.ProjectId,SHMod24,53484D6F6432342E6B696361645F7063,rev?*
G04 #@! TF.SameCoordinates,Original*
G04 #@! TF.FileFunction,Soldermask,Top*
G04 #@! TF.FilePolarity,Negative*
%FSLAX46Y46*%
G04 Gerber Fmt 4.6, Leading zero omitted, Abs format (unit mm)*
G04 Created by KiCad (PCBNEW (5.0.0-rc2-dev-744-gdfcdfe91f)) date 07/03/18 22:34:29*
%MOMM*%
%LPD*%
G01*
G04 APERTURE LIST*
%ADD10R,1.000000X1.000000*%
%ADD11R,1.120000X1.400000*%
%ADD12C,2.398980*%
%ADD13R,1.000000X2.000000*%
%ADD14R,2.600000X2.600000*%
%ADD15C,3.000000*%
%ADD16R,2.000000X2.000000*%
%ADD17C,2.500000*%
%ADD18C,3.600000*%
%ADD19R,1.000000X3.150000*%
%ADD20O,2.599640X1.901140*%
%ADD21O,1.901140X2.599640*%
%ADD22R,3.500000X1.600000*%
G04 APERTURE END LIST*
D10*
X91933000Y-84836000D03*
X93233000Y-84836000D03*
X91933000Y-86233000D03*
X93233000Y-86233000D03*
D11*
X85480000Y-83185000D03*
X87240000Y-83185000D03*
X87240000Y-84963000D03*
X85480000Y-84963000D03*
X62642693Y-84709000D03*
X60882693Y-84709000D03*
X58538000Y-80645000D03*
X56778000Y-80645000D03*
X56778000Y-82677000D03*
X58538000Y-82677000D03*
X62642693Y-80659509D03*
X60882693Y-80659509D03*
X62642693Y-82691509D03*
X60882693Y-82691509D03*
X60570000Y-74676000D03*
X58810000Y-74676000D03*
X60880100Y-78740000D03*
X62640100Y-78740000D03*
X58538000Y-76835000D03*
X56778000Y-76835000D03*
X56769000Y-78740000D03*
X58529000Y-78740000D03*
X56778000Y-84709000D03*
X58538000Y-84709000D03*
X60880100Y-76835000D03*
X62640100Y-76835000D03*
D12*
X53340000Y-101346000D03*
D13*
X86405000Y-72581000D03*
X87675000Y-72581000D03*
X88945000Y-72581000D03*
X90215000Y-72581000D03*
X91485000Y-72581000D03*
X92755000Y-72581000D03*
X94025000Y-72581000D03*
X95295000Y-72581000D03*
D14*
X53340000Y-96520000D03*
D15*
X53340000Y-91520000D03*
D16*
X98679000Y-101092000D03*
D17*
X98679000Y-98552000D03*
D18*
X75565000Y-65405000D03*
X97155000Y-108585000D03*
X53975000Y-108585000D03*
D19*
X59436000Y-108189000D03*
X59436000Y-103139000D03*
X61976000Y-108189000D03*
X61976000Y-103139000D03*
X64516000Y-108189000D03*
X64516000Y-103139000D03*
X67056000Y-108189000D03*
X67056000Y-103139000D03*
X69596000Y-108189000D03*
X69596000Y-103139000D03*
X72136000Y-108189000D03*
X72136000Y-103139000D03*
X74676000Y-108189000D03*
X74676000Y-103139000D03*
X77216000Y-108189000D03*
X77216000Y-103139000D03*
X79756000Y-108189000D03*
X79756000Y-103139000D03*
X82296000Y-108189000D03*
X82296000Y-103139000D03*
X84836000Y-108189000D03*
X84836000Y-103139000D03*
X87376000Y-108189000D03*
X87376000Y-103139000D03*
X89916000Y-108189000D03*
X89916000Y-103139000D03*
X92456000Y-108189000D03*
X92456000Y-103139000D03*
D20*
X98425000Y-66040000D03*
X98425000Y-68580000D03*
X98425000Y-71120000D03*
X98425000Y-73660000D03*
X98425000Y-76200000D03*
X98425000Y-78740000D03*
X98425000Y-81280000D03*
X98425000Y-83820000D03*
X98425000Y-86360000D03*
X98425000Y-88900000D03*
X98425000Y-91440000D03*
X98425000Y-93980000D03*
X83185000Y-93980000D03*
X83185000Y-91440000D03*
X83185000Y-88900000D03*
X83185000Y-86360000D03*
X83185000Y-83820000D03*
X83185000Y-81280000D03*
X83185000Y-78740000D03*
X83185000Y-76200000D03*
X83185000Y-73660000D03*
X83185000Y-71120000D03*
X83185000Y-68580000D03*
X83185000Y-66040000D03*
X85725000Y-77470000D03*
X85725000Y-74930000D03*
D21*
X85725000Y-93980000D03*
X88265000Y-93980000D03*
X90805000Y-93980000D03*
D13*
X86405000Y-81090000D03*
X87675000Y-81090000D03*
X88945000Y-81090000D03*
X90215000Y-81090000D03*
X91485000Y-81090000D03*
X92755000Y-81090000D03*
X94025000Y-81090000D03*
X95295000Y-81090000D03*
D22*
X72042000Y-90551000D03*
X66642000Y-90551000D03*
D12*
X53340000Y-103886000D03*
M02*
