G04 #@! TF.GenerationSoftware,KiCad,Pcbnew,(5.0.0-rc2-dev-744-gdfcdfe91f)*
G04 #@! TF.CreationDate,2018-07-03T22:34:29+02:00*
G04 #@! TF.ProjectId,SHMod24,53484D6F6432342E6B696361645F7063,rev?*
G04 #@! TF.SameCoordinates,Original*
G04 #@! TF.FileFunction,Legend,Bot*
G04 #@! TF.FilePolarity,Positive*
%FSLAX46Y46*%
G04 Gerber Fmt 4.6, Leading zero omitted, Abs format (unit mm)*
G04 Created by KiCad (PCBNEW (5.0.0-rc2-dev-744-gdfcdfe91f)) date 07/03/18 22:34:29*
%MOMM*%
%LPD*%
G01*
G04 APERTURE LIST*
%ADD10C,0.150000*%
%ADD11C,0.120000*%
%ADD12C,0.152400*%
%ADD13C,0.160000*%
G04 APERTURE END LIST*
D10*
X99115571Y-103433571D02*
X98972714Y-103481190D01*
X98925095Y-103528809D01*
X98877476Y-103624047D01*
X98877476Y-103766904D01*
X98925095Y-103862142D01*
X98972714Y-103909761D01*
X99067952Y-103957380D01*
X99448904Y-103957380D01*
X99448904Y-102957380D01*
X99115571Y-102957380D01*
X99020333Y-103005000D01*
X98972714Y-103052619D01*
X98925095Y-103147857D01*
X98925095Y-103243095D01*
X98972714Y-103338333D01*
X99020333Y-103385952D01*
X99115571Y-103433571D01*
X99448904Y-103433571D01*
X99425095Y-96432666D02*
X98948904Y-96432666D01*
X99520333Y-96718380D02*
X99187000Y-95718380D01*
X98853666Y-96718380D01*
X52450952Y-88209428D02*
X51689047Y-88209428D01*
X52070000Y-88590380D02*
X52070000Y-87828476D01*
X52450952Y-99893428D02*
X51689047Y-99893428D01*
X74644095Y-70683380D02*
X74977428Y-70207190D01*
X75215523Y-70683380D02*
X75215523Y-69683380D01*
X74834571Y-69683380D01*
X74739333Y-69731000D01*
X74691714Y-69778619D01*
X74644095Y-69873857D01*
X74644095Y-70016714D01*
X74691714Y-70111952D01*
X74739333Y-70159571D01*
X74834571Y-70207190D01*
X75215523Y-70207190D01*
X73834571Y-70635761D02*
X73929809Y-70683380D01*
X74120285Y-70683380D01*
X74215523Y-70635761D01*
X74263142Y-70540523D01*
X74263142Y-70159571D01*
X74215523Y-70064333D01*
X74120285Y-70016714D01*
X73929809Y-70016714D01*
X73834571Y-70064333D01*
X73786952Y-70159571D01*
X73786952Y-70254809D01*
X74263142Y-70350047D01*
X73406000Y-70635761D02*
X73310761Y-70683380D01*
X73120285Y-70683380D01*
X73025047Y-70635761D01*
X72977428Y-70540523D01*
X72977428Y-70492904D01*
X73025047Y-70397666D01*
X73120285Y-70350047D01*
X73263142Y-70350047D01*
X73358380Y-70302428D01*
X73406000Y-70207190D01*
X73406000Y-70159571D01*
X73358380Y-70064333D01*
X73263142Y-70016714D01*
X73120285Y-70016714D01*
X73025047Y-70064333D01*
X72167904Y-70635761D02*
X72263142Y-70683380D01*
X72453619Y-70683380D01*
X72548857Y-70635761D01*
X72596476Y-70540523D01*
X72596476Y-70159571D01*
X72548857Y-70064333D01*
X72453619Y-70016714D01*
X72263142Y-70016714D01*
X72167904Y-70064333D01*
X72120285Y-70159571D01*
X72120285Y-70254809D01*
X72596476Y-70350047D01*
X71834571Y-70016714D02*
X71453619Y-70016714D01*
X71691714Y-69683380D02*
X71691714Y-70540523D01*
X71644095Y-70635761D01*
X71548857Y-70683380D01*
X71453619Y-70683380D01*
X52014380Y-101735047D02*
X52014380Y-101258857D01*
X51014380Y-101258857D01*
X52014380Y-102068380D02*
X51347714Y-102068380D01*
X51014380Y-102068380D02*
X51062000Y-102020761D01*
X51109619Y-102068380D01*
X51062000Y-102116000D01*
X51014380Y-102068380D01*
X51109619Y-102068380D01*
X52014380Y-102544571D02*
X51014380Y-102544571D01*
X51014380Y-102925523D01*
X51062000Y-103020761D01*
X51109619Y-103068380D01*
X51204857Y-103116000D01*
X51347714Y-103116000D01*
X51442952Y-103068380D01*
X51490571Y-103020761D01*
X51538190Y-102925523D01*
X51538190Y-102544571D01*
X52014380Y-103687428D02*
X51966761Y-103592190D01*
X51919142Y-103544571D01*
X51823904Y-103496952D01*
X51538190Y-103496952D01*
X51442952Y-103544571D01*
X51395333Y-103592190D01*
X51347714Y-103687428D01*
X51347714Y-103830285D01*
X51395333Y-103925523D01*
X51442952Y-103973142D01*
X51538190Y-104020761D01*
X51823904Y-104020761D01*
X51919142Y-103973142D01*
X51966761Y-103925523D01*
X52014380Y-103830285D01*
X52014380Y-103687428D01*
X55498952Y-103830428D02*
X54737047Y-103830428D01*
X55498952Y-101417428D02*
X54737047Y-101417428D01*
X55118000Y-101798380D02*
X55118000Y-101036476D01*
D11*
X52762809Y-80779500D02*
G75*
G03X52762809Y-80779500I-700000J0D01*
G01*
D10*
X77025500Y-88773000D02*
X77025500Y-87249000D01*
X72834500Y-88773000D02*
X77025500Y-88773000D01*
X72834500Y-87249000D02*
X72834500Y-88773000D01*
X77025500Y-87249000D02*
X72834500Y-87249000D01*
X73596500Y-99187000D02*
X73596500Y-100711000D01*
X77787500Y-99187000D02*
X73596500Y-99187000D01*
X77787500Y-100711000D02*
X77787500Y-99187000D01*
X73596500Y-100711000D02*
X77787500Y-100711000D01*
X72898000Y-75423000D02*
X71374000Y-75423000D01*
X72898000Y-78217000D02*
X72898000Y-75423000D01*
X71374000Y-78217000D02*
X72898000Y-78217000D01*
X71374000Y-75423000D02*
X71374000Y-78217000D01*
X71501000Y-103251000D02*
X71882000Y-103251000D01*
X71501000Y-104521000D02*
X71882000Y-104521000D01*
X66230500Y-91567000D02*
X66611500Y-91567000D01*
X66230500Y-90297000D02*
X66611500Y-90297000D01*
X57658000Y-105600500D02*
X57658000Y-105219500D01*
X58928000Y-105600500D02*
X58928000Y-105219500D01*
X80391000Y-102679500D02*
X80391000Y-103060500D01*
X81661000Y-102679500D02*
X81661000Y-103060500D01*
X76327000Y-102679500D02*
X76327000Y-103060500D01*
X75057000Y-102679500D02*
X75057000Y-103060500D01*
X65278000Y-108902500D02*
X65278000Y-109283500D01*
X66548000Y-108902500D02*
X66548000Y-109283500D01*
X76771500Y-83947000D02*
X76390500Y-83947000D01*
X76771500Y-85217000D02*
X76390500Y-85217000D01*
X62293500Y-108839000D02*
X61912500Y-108839000D01*
X62293500Y-107569000D02*
X61912500Y-107569000D01*
X77025500Y-107251500D02*
X77025500Y-107632500D01*
X75755500Y-107251500D02*
X75755500Y-107632500D01*
X94869000Y-100012500D02*
X94869000Y-99631500D01*
X93599000Y-100012500D02*
X93599000Y-99631500D01*
X73034000Y-102235000D02*
X72653000Y-102235000D01*
X73034000Y-100965000D02*
X72653000Y-100965000D01*
X62103000Y-96329500D02*
X62103000Y-96710500D01*
X60833000Y-96329500D02*
X60833000Y-96710500D01*
X58855500Y-96393000D02*
X59236500Y-96393000D01*
X58855500Y-95123000D02*
X59236500Y-95123000D01*
X66548000Y-105346500D02*
X66548000Y-105727500D01*
X65278000Y-105346500D02*
X65278000Y-105727500D01*
D12*
X69913500Y-87566500D02*
X69913500Y-88328500D01*
X69913500Y-88328500D02*
X53911500Y-88328500D01*
X53911500Y-88328500D02*
X53911500Y-87566500D01*
D11*
X76749000Y-103770000D02*
X76749000Y-101970000D01*
X79969000Y-101970000D02*
X79969000Y-104420000D01*
X74279000Y-85542000D02*
X71579000Y-85542000D01*
X71579000Y-85542000D02*
X71579000Y-83622000D01*
X71579000Y-83622000D02*
X74279000Y-83622000D01*
X51805244Y-95836682D02*
G75*
G03X51660000Y-96520000I1534756J-683318D01*
G01*
X54023042Y-94984574D02*
G75*
G03X52656000Y-94985000I-683042J-1535426D01*
G01*
X54875426Y-97203042D02*
G75*
G03X54875000Y-95836000I-1535426J683042D01*
G01*
X52656958Y-98055426D02*
G75*
G03X54024000Y-98055000I683042J1535426D01*
G01*
X51659747Y-96491195D02*
G75*
G03X51805000Y-97204000I1680253J-28805D01*
G01*
X55020000Y-91520000D02*
G75*
G03X55020000Y-91520000I-1680000J0D01*
G01*
X49240000Y-99080000D02*
X49240000Y-88960000D01*
X50740000Y-99080000D02*
X50740000Y-88960000D01*
X55641000Y-99080000D02*
X55641000Y-88960000D01*
X58601000Y-99080000D02*
X58601000Y-88960000D01*
X48680000Y-99080000D02*
X48680000Y-88960000D01*
X58601000Y-99080000D02*
X48680000Y-99080000D01*
X58601000Y-88960000D02*
X48680000Y-88960000D01*
X54409000Y-90245000D02*
X54363000Y-90292000D01*
X52101000Y-92554000D02*
X52066000Y-92589000D01*
X54615000Y-90450000D02*
X54579000Y-90485000D01*
X52317000Y-92747000D02*
X52271000Y-92794000D01*
X49180000Y-99320000D02*
X48440000Y-99320000D01*
X48440000Y-99320000D02*
X48440000Y-98820000D01*
D10*
X77006000Y-95806000D02*
X77006000Y-94306000D01*
X69806000Y-95806000D02*
X69806000Y-94306000D01*
X69806000Y-89106000D02*
X69806000Y-90606000D01*
X77006000Y-89106000D02*
X77006000Y-90606000D01*
X69806000Y-95806000D02*
X77006000Y-95806000D01*
X69806000Y-89106000D02*
X77006000Y-89106000D01*
D11*
X81986000Y-107571000D02*
X82916000Y-107571000D01*
X85146000Y-107571000D02*
X84216000Y-107571000D01*
X85146000Y-107571000D02*
X85146000Y-109731000D01*
X81986000Y-107571000D02*
X81986000Y-109031000D01*
X89279000Y-106370000D02*
X89279000Y-107300000D01*
X89279000Y-109530000D02*
X89279000Y-108600000D01*
X89279000Y-109530000D02*
X87119000Y-109530000D01*
X89279000Y-106370000D02*
X87819000Y-106370000D01*
D10*
X87206000Y-102397000D02*
X87206000Y-102347000D01*
X91356000Y-102397000D02*
X91356000Y-102252000D01*
X91356000Y-97247000D02*
X91356000Y-97392000D01*
X87206000Y-97247000D02*
X87206000Y-97392000D01*
X87206000Y-102397000D02*
X91356000Y-102397000D01*
X87206000Y-97247000D02*
X91356000Y-97247000D01*
X87206000Y-102347000D02*
X85806000Y-102347000D01*
D11*
X91569000Y-105974000D02*
X93029000Y-105974000D01*
X91569000Y-102814000D02*
X93729000Y-102814000D01*
X91569000Y-102814000D02*
X91569000Y-103744000D01*
X91569000Y-105974000D02*
X91569000Y-105044000D01*
X89279000Y-102814000D02*
X89279000Y-103744000D01*
X89279000Y-105974000D02*
X89279000Y-105044000D01*
X89279000Y-105974000D02*
X87119000Y-105974000D01*
X89279000Y-102814000D02*
X87819000Y-102814000D01*
X91569000Y-109530000D02*
X93029000Y-109530000D01*
X91569000Y-106370000D02*
X93729000Y-106370000D01*
X91569000Y-106370000D02*
X91569000Y-107300000D01*
X91569000Y-109530000D02*
X91569000Y-108600000D01*
X96079000Y-102652000D02*
X96079000Y-101882000D01*
X96079000Y-100302000D02*
X96079000Y-99342000D01*
X96079000Y-97762000D02*
X96079000Y-96992000D01*
X101379000Y-102652000D02*
X101379000Y-96992000D01*
X101839000Y-102652000D02*
X101839000Y-96992000D01*
X95519000Y-102652000D02*
X95519000Y-101882000D01*
X95519000Y-100302000D02*
X95519000Y-99342000D01*
X95519000Y-97762000D02*
X95519000Y-96992000D01*
X101839000Y-102652000D02*
X95519000Y-102652000D01*
X101839000Y-96992000D02*
X95519000Y-96992000D01*
X96019000Y-102892000D02*
X95279000Y-102892000D01*
X95279000Y-102892000D02*
X95279000Y-102392000D01*
X73979000Y-72898000D02*
G75*
G03X73979000Y-72898000I-700000J0D01*
G01*
X73979000Y-71628000D02*
G75*
G03X73979000Y-71628000I-700000J0D01*
G01*
D10*
X64428000Y-100356000D02*
X64428000Y-100456000D01*
X59778000Y-100356000D02*
X59778000Y-100556000D01*
X59778000Y-103606000D02*
X59778000Y-103406000D01*
X64428000Y-103606000D02*
X64428000Y-103406000D01*
X64428000Y-100356000D02*
X59778000Y-100356000D01*
X64428000Y-103606000D02*
X59778000Y-103606000D01*
X64428000Y-100456000D02*
X65778000Y-100456000D01*
D11*
X61203000Y-103800000D02*
X64153000Y-103800000D01*
X63003000Y-107020000D02*
X61203000Y-107020000D01*
D10*
X99949000Y-95250000D02*
X81915000Y-95250000D01*
X81915000Y-62484000D02*
X99949000Y-62484000D01*
X99949000Y-95250000D02*
X99949000Y-62484000D01*
X81915000Y-62484000D02*
X81915000Y-95250000D01*
D11*
X60665000Y-91350000D02*
X59665000Y-91350000D01*
X60665000Y-94070000D02*
X59665000Y-94070000D01*
X72636000Y-96049000D02*
X71636000Y-96049000D01*
X72636000Y-98769000D02*
X71636000Y-98769000D01*
X65787000Y-92104000D02*
X69087000Y-92104000D01*
X69087000Y-92104000D02*
X69087000Y-97504000D01*
X65787000Y-92104000D02*
X65787000Y-97504000D01*
D10*
X73766500Y-104867000D02*
X73766500Y-104917000D01*
X69616500Y-104867000D02*
X69616500Y-105012000D01*
X69616500Y-110017000D02*
X69616500Y-109872000D01*
X73766500Y-110017000D02*
X73766500Y-109872000D01*
X73766500Y-104867000D02*
X69616500Y-104867000D01*
X73766500Y-110017000D02*
X69616500Y-110017000D01*
X73766500Y-104917000D02*
X75166500Y-104917000D01*
D11*
X62398000Y-96658000D02*
X62398000Y-94858000D01*
X65618000Y-94858000D02*
X65618000Y-97808000D01*
X70405500Y-102560000D02*
X67705500Y-102560000D01*
X67705500Y-102560000D02*
X67705500Y-100640000D01*
X67705500Y-100640000D02*
X70405500Y-100640000D01*
D10*
X51522380Y-82089666D02*
X52236666Y-82089666D01*
X52379523Y-82042047D01*
X52474761Y-81946809D01*
X52522380Y-81803952D01*
X52522380Y-81708714D01*
X51950952Y-82708714D02*
X51903333Y-82613476D01*
X51855714Y-82565857D01*
X51760476Y-82518238D01*
X51712857Y-82518238D01*
X51617619Y-82565857D01*
X51570000Y-82613476D01*
X51522380Y-82708714D01*
X51522380Y-82899190D01*
X51570000Y-82994428D01*
X51617619Y-83042047D01*
X51712857Y-83089666D01*
X51760476Y-83089666D01*
X51855714Y-83042047D01*
X51903333Y-82994428D01*
X51950952Y-82899190D01*
X51950952Y-82708714D01*
X51998571Y-82613476D01*
X52046190Y-82565857D01*
X52141428Y-82518238D01*
X52331904Y-82518238D01*
X52427142Y-82565857D01*
X52474761Y-82613476D01*
X52522380Y-82708714D01*
X52522380Y-82899190D01*
X52474761Y-82994428D01*
X52427142Y-83042047D01*
X52331904Y-83089666D01*
X52141428Y-83089666D01*
X52046190Y-83042047D01*
X51998571Y-82994428D01*
X51950952Y-82899190D01*
D12*
X78740000Y-87593714D02*
X78740000Y-88138000D01*
X78776285Y-88246857D01*
X78848857Y-88319428D01*
X78957714Y-88355714D01*
X79030285Y-88355714D01*
X78377142Y-88355714D02*
X78377142Y-87593714D01*
X78086857Y-87593714D01*
X78014285Y-87630000D01*
X77978000Y-87666285D01*
X77941714Y-87738857D01*
X77941714Y-87847714D01*
X77978000Y-87920285D01*
X78014285Y-87956571D01*
X78086857Y-87992857D01*
X78377142Y-87992857D01*
X77651428Y-87666285D02*
X77615142Y-87630000D01*
X77542571Y-87593714D01*
X77361142Y-87593714D01*
X77288571Y-87630000D01*
X77252285Y-87666285D01*
X77216000Y-87738857D01*
X77216000Y-87811428D01*
X77252285Y-87920285D01*
X77687714Y-88355714D01*
X77216000Y-88355714D01*
X79502000Y-99404714D02*
X79502000Y-99949000D01*
X79538285Y-100057857D01*
X79610857Y-100130428D01*
X79719714Y-100166714D01*
X79792285Y-100166714D01*
X79139142Y-100166714D02*
X79139142Y-99404714D01*
X78848857Y-99404714D01*
X78776285Y-99441000D01*
X78740000Y-99477285D01*
X78703714Y-99549857D01*
X78703714Y-99658714D01*
X78740000Y-99731285D01*
X78776285Y-99767571D01*
X78848857Y-99803857D01*
X79139142Y-99803857D01*
X77978000Y-100166714D02*
X78413428Y-100166714D01*
X78195714Y-100166714D02*
X78195714Y-99404714D01*
X78268285Y-99513571D01*
X78340857Y-99586142D01*
X78413428Y-99622428D01*
X75057000Y-76417714D02*
X75057000Y-76962000D01*
X75093285Y-77070857D01*
X75165857Y-77143428D01*
X75274714Y-77179714D01*
X75347285Y-77179714D01*
X74694142Y-77179714D02*
X74694142Y-76417714D01*
X74403857Y-76417714D01*
X74331285Y-76454000D01*
X74295000Y-76490285D01*
X74258714Y-76562857D01*
X74258714Y-76671714D01*
X74295000Y-76744285D01*
X74331285Y-76780571D01*
X74403857Y-76816857D01*
X74694142Y-76816857D01*
X74004714Y-76417714D02*
X73533000Y-76417714D01*
X73787000Y-76708000D01*
X73678142Y-76708000D01*
X73605571Y-76744285D01*
X73569285Y-76780571D01*
X73533000Y-76853142D01*
X73533000Y-77034571D01*
X73569285Y-77107142D01*
X73605571Y-77143428D01*
X73678142Y-77179714D01*
X73895857Y-77179714D01*
X73968428Y-77143428D01*
X74004714Y-77107142D01*
D10*
X69254666Y-104243142D02*
X69302285Y-104290761D01*
X69445142Y-104338380D01*
X69540380Y-104338380D01*
X69683238Y-104290761D01*
X69778476Y-104195523D01*
X69826095Y-104100285D01*
X69873714Y-103909809D01*
X69873714Y-103766952D01*
X69826095Y-103576476D01*
X69778476Y-103481238D01*
X69683238Y-103386000D01*
X69540380Y-103338380D01*
X69445142Y-103338380D01*
X69302285Y-103386000D01*
X69254666Y-103433619D01*
X68349904Y-103338380D02*
X68826095Y-103338380D01*
X68873714Y-103814571D01*
X68826095Y-103766952D01*
X68730857Y-103719333D01*
X68492761Y-103719333D01*
X68397523Y-103766952D01*
X68349904Y-103814571D01*
X68302285Y-103909809D01*
X68302285Y-104147904D01*
X68349904Y-104243142D01*
X68397523Y-104290761D01*
X68492761Y-104338380D01*
X68730857Y-104338380D01*
X68826095Y-104290761D01*
X68873714Y-104243142D01*
X66587666Y-89765142D02*
X66635285Y-89812761D01*
X66778142Y-89860380D01*
X66873380Y-89860380D01*
X67016238Y-89812761D01*
X67111476Y-89717523D01*
X67159095Y-89622285D01*
X67206714Y-89431809D01*
X67206714Y-89288952D01*
X67159095Y-89098476D01*
X67111476Y-89003238D01*
X67016238Y-88908000D01*
X66873380Y-88860380D01*
X66778142Y-88860380D01*
X66635285Y-88908000D01*
X66587666Y-88955619D01*
X65730523Y-88860380D02*
X65921000Y-88860380D01*
X66016238Y-88908000D01*
X66063857Y-88955619D01*
X66159095Y-89098476D01*
X66206714Y-89288952D01*
X66206714Y-89669904D01*
X66159095Y-89765142D01*
X66111476Y-89812761D01*
X66016238Y-89860380D01*
X65825761Y-89860380D01*
X65730523Y-89812761D01*
X65682904Y-89765142D01*
X65635285Y-89669904D01*
X65635285Y-89431809D01*
X65682904Y-89336571D01*
X65730523Y-89288952D01*
X65825761Y-89241333D01*
X66016238Y-89241333D01*
X66111476Y-89288952D01*
X66159095Y-89336571D01*
X66206714Y-89431809D01*
X57126142Y-105243333D02*
X57173761Y-105195714D01*
X57221380Y-105052857D01*
X57221380Y-104957619D01*
X57173761Y-104814761D01*
X57078523Y-104719523D01*
X56983285Y-104671904D01*
X56792809Y-104624285D01*
X56649952Y-104624285D01*
X56459476Y-104671904D01*
X56364238Y-104719523D01*
X56269000Y-104814761D01*
X56221380Y-104957619D01*
X56221380Y-105052857D01*
X56269000Y-105195714D01*
X56316619Y-105243333D01*
X56221380Y-105576666D02*
X56221380Y-106195714D01*
X56602333Y-105862380D01*
X56602333Y-106005238D01*
X56649952Y-106100476D01*
X56697571Y-106148095D01*
X56792809Y-106195714D01*
X57030904Y-106195714D01*
X57126142Y-106148095D01*
X57173761Y-106100476D01*
X57221380Y-106005238D01*
X57221380Y-105719523D01*
X57173761Y-105624285D01*
X57126142Y-105576666D01*
X81192666Y-105640142D02*
X81240285Y-105687761D01*
X81383142Y-105735380D01*
X81478380Y-105735380D01*
X81621238Y-105687761D01*
X81716476Y-105592523D01*
X81764095Y-105497285D01*
X81811714Y-105306809D01*
X81811714Y-105163952D01*
X81764095Y-104973476D01*
X81716476Y-104878238D01*
X81621238Y-104783000D01*
X81478380Y-104735380D01*
X81383142Y-104735380D01*
X81240285Y-104783000D01*
X81192666Y-104830619D01*
X80811714Y-104830619D02*
X80764095Y-104783000D01*
X80668857Y-104735380D01*
X80430761Y-104735380D01*
X80335523Y-104783000D01*
X80287904Y-104830619D01*
X80240285Y-104925857D01*
X80240285Y-105021095D01*
X80287904Y-105163952D01*
X80859333Y-105735380D01*
X80240285Y-105735380D01*
X76493666Y-105640142D02*
X76541285Y-105687761D01*
X76684142Y-105735380D01*
X76779380Y-105735380D01*
X76922238Y-105687761D01*
X77017476Y-105592523D01*
X77065095Y-105497285D01*
X77112714Y-105306809D01*
X77112714Y-105163952D01*
X77065095Y-104973476D01*
X77017476Y-104878238D01*
X76922238Y-104783000D01*
X76779380Y-104735380D01*
X76684142Y-104735380D01*
X76541285Y-104783000D01*
X76493666Y-104830619D01*
X75541285Y-105735380D02*
X76112714Y-105735380D01*
X75827000Y-105735380D02*
X75827000Y-104735380D01*
X75922238Y-104878238D01*
X76017476Y-104973476D01*
X76112714Y-105021095D01*
X67794142Y-108926333D02*
X67841761Y-108878714D01*
X67889380Y-108735857D01*
X67889380Y-108640619D01*
X67841761Y-108497761D01*
X67746523Y-108402523D01*
X67651285Y-108354904D01*
X67460809Y-108307285D01*
X67317952Y-108307285D01*
X67127476Y-108354904D01*
X67032238Y-108402523D01*
X66937000Y-108497761D01*
X66889380Y-108640619D01*
X66889380Y-108735857D01*
X66937000Y-108878714D01*
X66984619Y-108926333D01*
X67222714Y-109783476D02*
X67889380Y-109783476D01*
X66841761Y-109545380D02*
X67556047Y-109307285D01*
X67556047Y-109926333D01*
X77223857Y-83384380D02*
X77557190Y-82908190D01*
X77795285Y-83384380D02*
X77795285Y-82384380D01*
X77414333Y-82384380D01*
X77319095Y-82432000D01*
X77271476Y-82479619D01*
X77223857Y-82574857D01*
X77223857Y-82717714D01*
X77271476Y-82812952D01*
X77319095Y-82860571D01*
X77414333Y-82908190D01*
X77795285Y-82908190D01*
X76842904Y-82479619D02*
X76795285Y-82432000D01*
X76700047Y-82384380D01*
X76461952Y-82384380D01*
X76366714Y-82432000D01*
X76319095Y-82479619D01*
X76271476Y-82574857D01*
X76271476Y-82670095D01*
X76319095Y-82812952D01*
X76890523Y-83384380D01*
X76271476Y-83384380D01*
X75938142Y-82384380D02*
X75319095Y-82384380D01*
X75652428Y-82765333D01*
X75509571Y-82765333D01*
X75414333Y-82812952D01*
X75366714Y-82860571D01*
X75319095Y-82955809D01*
X75319095Y-83193904D01*
X75366714Y-83289142D01*
X75414333Y-83336761D01*
X75509571Y-83384380D01*
X75795285Y-83384380D01*
X75890523Y-83336761D01*
X75938142Y-83289142D01*
X62269666Y-110434380D02*
X62603000Y-109958190D01*
X62841095Y-110434380D02*
X62841095Y-109434380D01*
X62460142Y-109434380D01*
X62364904Y-109482000D01*
X62317285Y-109529619D01*
X62269666Y-109624857D01*
X62269666Y-109767714D01*
X62317285Y-109862952D01*
X62364904Y-109910571D01*
X62460142Y-109958190D01*
X62841095Y-109958190D01*
X61936333Y-109434380D02*
X61269666Y-109434380D01*
X61698238Y-110434380D01*
X78430380Y-107275333D02*
X77954190Y-106942000D01*
X78430380Y-106703904D02*
X77430380Y-106703904D01*
X77430380Y-107084857D01*
X77478000Y-107180095D01*
X77525619Y-107227714D01*
X77620857Y-107275333D01*
X77763714Y-107275333D01*
X77858952Y-107227714D01*
X77906571Y-107180095D01*
X77954190Y-107084857D01*
X77954190Y-106703904D01*
X77430380Y-108132476D02*
X77430380Y-107942000D01*
X77478000Y-107846761D01*
X77525619Y-107799142D01*
X77668476Y-107703904D01*
X77858952Y-107656285D01*
X78239904Y-107656285D01*
X78335142Y-107703904D01*
X78382761Y-107751523D01*
X78430380Y-107846761D01*
X78430380Y-108037238D01*
X78382761Y-108132476D01*
X78335142Y-108180095D01*
X78239904Y-108227714D01*
X78001809Y-108227714D01*
X77906571Y-108180095D01*
X77858952Y-108132476D01*
X77811333Y-108037238D01*
X77811333Y-107846761D01*
X77858952Y-107751523D01*
X77906571Y-107703904D01*
X78001809Y-107656285D01*
X94686380Y-96131142D02*
X94210190Y-95797809D01*
X94686380Y-95559714D02*
X93686380Y-95559714D01*
X93686380Y-95940666D01*
X93734000Y-96035904D01*
X93781619Y-96083523D01*
X93876857Y-96131142D01*
X94019714Y-96131142D01*
X94114952Y-96083523D01*
X94162571Y-96035904D01*
X94210190Y-95940666D01*
X94210190Y-95559714D01*
X94686380Y-97083523D02*
X94686380Y-96512095D01*
X94686380Y-96797809D02*
X93686380Y-96797809D01*
X93829238Y-96702571D01*
X93924476Y-96607333D01*
X93972095Y-96512095D01*
X93686380Y-97988285D02*
X93686380Y-97512095D01*
X94162571Y-97464476D01*
X94114952Y-97512095D01*
X94067333Y-97607333D01*
X94067333Y-97845428D01*
X94114952Y-97940666D01*
X94162571Y-97988285D01*
X94257809Y-98035904D01*
X94495904Y-98035904D01*
X94591142Y-97988285D01*
X94638761Y-97940666D01*
X94686380Y-97845428D01*
X94686380Y-97607333D01*
X94638761Y-97512095D01*
X94591142Y-97464476D01*
X72778857Y-100402380D02*
X73112190Y-99926190D01*
X73350285Y-100402380D02*
X73350285Y-99402380D01*
X72969333Y-99402380D01*
X72874095Y-99450000D01*
X72826476Y-99497619D01*
X72778857Y-99592857D01*
X72778857Y-99735714D01*
X72826476Y-99830952D01*
X72874095Y-99878571D01*
X72969333Y-99926190D01*
X73350285Y-99926190D01*
X71826476Y-100402380D02*
X72397904Y-100402380D01*
X72112190Y-100402380D02*
X72112190Y-99402380D01*
X72207428Y-99545238D01*
X72302666Y-99640476D01*
X72397904Y-99688095D01*
X70969333Y-99735714D02*
X70969333Y-100402380D01*
X71207428Y-99354761D02*
X71445523Y-100069047D01*
X70826476Y-100069047D01*
X62110857Y-99512380D02*
X62444190Y-99036190D01*
X62682285Y-99512380D02*
X62682285Y-98512380D01*
X62301333Y-98512380D01*
X62206095Y-98560000D01*
X62158476Y-98607619D01*
X62110857Y-98702857D01*
X62110857Y-98845714D01*
X62158476Y-98940952D01*
X62206095Y-98988571D01*
X62301333Y-99036190D01*
X62682285Y-99036190D01*
X61158476Y-99512380D02*
X61729904Y-99512380D01*
X61444190Y-99512380D02*
X61444190Y-98512380D01*
X61539428Y-98655238D01*
X61634666Y-98750476D01*
X61729904Y-98798095D01*
X60539428Y-98512380D02*
X60444190Y-98512380D01*
X60348952Y-98560000D01*
X60301333Y-98607619D01*
X60253714Y-98702857D01*
X60206095Y-98893333D01*
X60206095Y-99131428D01*
X60253714Y-99321904D01*
X60301333Y-99417142D01*
X60348952Y-99464761D01*
X60444190Y-99512380D01*
X60539428Y-99512380D01*
X60634666Y-99464761D01*
X60682285Y-99417142D01*
X60729904Y-99321904D01*
X60777523Y-99131428D01*
X60777523Y-98893333D01*
X60729904Y-98702857D01*
X60682285Y-98607619D01*
X60634666Y-98560000D01*
X60539428Y-98512380D01*
X59729666Y-97861380D02*
X60063000Y-97385190D01*
X60301095Y-97861380D02*
X60301095Y-96861380D01*
X59920142Y-96861380D01*
X59824904Y-96909000D01*
X59777285Y-96956619D01*
X59729666Y-97051857D01*
X59729666Y-97194714D01*
X59777285Y-97289952D01*
X59824904Y-97337571D01*
X59920142Y-97385190D01*
X60301095Y-97385190D01*
X59253476Y-97861380D02*
X59063000Y-97861380D01*
X58967761Y-97813761D01*
X58920142Y-97766142D01*
X58824904Y-97623285D01*
X58777285Y-97432809D01*
X58777285Y-97051857D01*
X58824904Y-96956619D01*
X58872523Y-96909000D01*
X58967761Y-96861380D01*
X59158238Y-96861380D01*
X59253476Y-96909000D01*
X59301095Y-96956619D01*
X59348714Y-97051857D01*
X59348714Y-97289952D01*
X59301095Y-97385190D01*
X59253476Y-97432809D01*
X59158238Y-97480428D01*
X58967761Y-97480428D01*
X58872523Y-97432809D01*
X58824904Y-97385190D01*
X58777285Y-97289952D01*
X67889380Y-105370333D02*
X67413190Y-105037000D01*
X67889380Y-104798904D02*
X66889380Y-104798904D01*
X66889380Y-105179857D01*
X66937000Y-105275095D01*
X66984619Y-105322714D01*
X67079857Y-105370333D01*
X67222714Y-105370333D01*
X67317952Y-105322714D01*
X67365571Y-105275095D01*
X67413190Y-105179857D01*
X67413190Y-104798904D01*
X67317952Y-105941761D02*
X67270333Y-105846523D01*
X67222714Y-105798904D01*
X67127476Y-105751285D01*
X67079857Y-105751285D01*
X66984619Y-105798904D01*
X66937000Y-105846523D01*
X66889380Y-105941761D01*
X66889380Y-106132238D01*
X66937000Y-106227476D01*
X66984619Y-106275095D01*
X67079857Y-106322714D01*
X67127476Y-106322714D01*
X67222714Y-106275095D01*
X67270333Y-106227476D01*
X67317952Y-106132238D01*
X67317952Y-105941761D01*
X67365571Y-105846523D01*
X67413190Y-105798904D01*
X67508428Y-105751285D01*
X67698904Y-105751285D01*
X67794142Y-105798904D01*
X67841761Y-105846523D01*
X67889380Y-105941761D01*
X67889380Y-106132238D01*
X67841761Y-106227476D01*
X67794142Y-106275095D01*
X67698904Y-106322714D01*
X67508428Y-106322714D01*
X67413190Y-106275095D01*
X67365571Y-106227476D01*
X67317952Y-106132238D01*
X53593904Y-70572380D02*
X53593904Y-71381904D01*
X53546285Y-71477142D01*
X53498666Y-71524761D01*
X53403428Y-71572380D01*
X53212952Y-71572380D01*
X53117714Y-71524761D01*
X53070095Y-71477142D01*
X53022476Y-71381904D01*
X53022476Y-70572380D01*
X52022476Y-71572380D02*
X52593904Y-71572380D01*
X52308190Y-71572380D02*
X52308190Y-70572380D01*
X52403428Y-70715238D01*
X52498666Y-70810476D01*
X52593904Y-70858095D01*
X79501904Y-104735380D02*
X79501904Y-105544904D01*
X79454285Y-105640142D01*
X79406666Y-105687761D01*
X79311428Y-105735380D01*
X79120952Y-105735380D01*
X79025714Y-105687761D01*
X78978095Y-105640142D01*
X78930476Y-105544904D01*
X78930476Y-104735380D01*
X78549523Y-104735380D02*
X77930476Y-104735380D01*
X78263809Y-105116333D01*
X78120952Y-105116333D01*
X78025714Y-105163952D01*
X77978095Y-105211571D01*
X77930476Y-105306809D01*
X77930476Y-105544904D01*
X77978095Y-105640142D01*
X78025714Y-105687761D01*
X78120952Y-105735380D01*
X78406666Y-105735380D01*
X78501904Y-105687761D01*
X78549523Y-105640142D01*
X74271095Y-83383380D02*
X74271095Y-82383380D01*
X74033000Y-82383380D01*
X73890142Y-82431000D01*
X73794904Y-82526238D01*
X73747285Y-82621476D01*
X73699666Y-82811952D01*
X73699666Y-82954809D01*
X73747285Y-83145285D01*
X73794904Y-83240523D01*
X73890142Y-83335761D01*
X74033000Y-83383380D01*
X74271095Y-83383380D01*
X73366333Y-82383380D02*
X72747285Y-82383380D01*
X73080619Y-82764333D01*
X72937761Y-82764333D01*
X72842523Y-82811952D01*
X72794904Y-82859571D01*
X72747285Y-82954809D01*
X72747285Y-83192904D01*
X72794904Y-83288142D01*
X72842523Y-83335761D01*
X72937761Y-83383380D01*
X73223476Y-83383380D01*
X73318714Y-83335761D01*
X73366333Y-83288142D01*
X56213333Y-99274380D02*
X56213333Y-99988666D01*
X56260952Y-100131523D01*
X56356190Y-100226761D01*
X56499047Y-100274380D01*
X56594285Y-100274380D01*
X55260952Y-99274380D02*
X55737142Y-99274380D01*
X55784761Y-99750571D01*
X55737142Y-99702952D01*
X55641904Y-99655333D01*
X55403809Y-99655333D01*
X55308571Y-99702952D01*
X55260952Y-99750571D01*
X55213333Y-99845809D01*
X55213333Y-100083904D01*
X55260952Y-100179142D01*
X55308571Y-100226761D01*
X55403809Y-100274380D01*
X55641904Y-100274380D01*
X55737142Y-100226761D01*
X55784761Y-100179142D01*
X78144666Y-95702380D02*
X78620857Y-95702380D01*
X78620857Y-94702380D01*
X77287523Y-95702380D02*
X77858952Y-95702380D01*
X77573238Y-95702380D02*
X77573238Y-94702380D01*
X77668476Y-94845238D01*
X77763714Y-94940476D01*
X77858952Y-94988095D01*
X80994238Y-108243619D02*
X81089476Y-108196000D01*
X81184714Y-108100761D01*
X81327571Y-107957904D01*
X81422809Y-107910285D01*
X81518047Y-107910285D01*
X81470428Y-108148380D02*
X81565666Y-108100761D01*
X81660904Y-108005523D01*
X81708523Y-107815047D01*
X81708523Y-107481714D01*
X81660904Y-107291238D01*
X81565666Y-107196000D01*
X81470428Y-107148380D01*
X81279952Y-107148380D01*
X81184714Y-107196000D01*
X81089476Y-107291238D01*
X81041857Y-107481714D01*
X81041857Y-107815047D01*
X81089476Y-108005523D01*
X81184714Y-108100761D01*
X81279952Y-108148380D01*
X81470428Y-108148380D01*
X80184714Y-107148380D02*
X80375190Y-107148380D01*
X80470428Y-107196000D01*
X80518047Y-107243619D01*
X80613285Y-107386476D01*
X80660904Y-107576952D01*
X80660904Y-107957904D01*
X80613285Y-108053142D01*
X80565666Y-108100761D01*
X80470428Y-108148380D01*
X80279952Y-108148380D01*
X80184714Y-108100761D01*
X80137095Y-108053142D01*
X80089476Y-107957904D01*
X80089476Y-107719809D01*
X80137095Y-107624571D01*
X80184714Y-107576952D01*
X80279952Y-107529333D01*
X80470428Y-107529333D01*
X80565666Y-107576952D01*
X80613285Y-107624571D01*
X80660904Y-107719809D01*
X81287857Y-110688380D02*
X81621190Y-110212190D01*
X81859285Y-110688380D02*
X81859285Y-109688380D01*
X81478333Y-109688380D01*
X81383095Y-109736000D01*
X81335476Y-109783619D01*
X81287857Y-109878857D01*
X81287857Y-110021714D01*
X81335476Y-110116952D01*
X81383095Y-110164571D01*
X81478333Y-110212190D01*
X81859285Y-110212190D01*
X80906904Y-109783619D02*
X80859285Y-109736000D01*
X80764047Y-109688380D01*
X80525952Y-109688380D01*
X80430714Y-109736000D01*
X80383095Y-109783619D01*
X80335476Y-109878857D01*
X80335476Y-109974095D01*
X80383095Y-110116952D01*
X80954523Y-110688380D01*
X80335476Y-110688380D01*
X79716428Y-109688380D02*
X79621190Y-109688380D01*
X79525952Y-109736000D01*
X79478333Y-109783619D01*
X79430714Y-109878857D01*
X79383095Y-110069333D01*
X79383095Y-110307428D01*
X79430714Y-110497904D01*
X79478333Y-110593142D01*
X79525952Y-110640761D01*
X79621190Y-110688380D01*
X79716428Y-110688380D01*
X79811666Y-110640761D01*
X79859285Y-110593142D01*
X79906904Y-110497904D01*
X79954523Y-110307428D01*
X79954523Y-110069333D01*
X79906904Y-109878857D01*
X79859285Y-109783619D01*
X79811666Y-109736000D01*
X79716428Y-109688380D01*
X85669380Y-103116142D02*
X85193190Y-102782809D01*
X85669380Y-102544714D02*
X84669380Y-102544714D01*
X84669380Y-102925666D01*
X84717000Y-103020904D01*
X84764619Y-103068523D01*
X84859857Y-103116142D01*
X85002714Y-103116142D01*
X85097952Y-103068523D01*
X85145571Y-103020904D01*
X85193190Y-102925666D01*
X85193190Y-102544714D01*
X85669380Y-104068523D02*
X85669380Y-103497095D01*
X85669380Y-103782809D02*
X84669380Y-103782809D01*
X84812238Y-103687571D01*
X84907476Y-103592333D01*
X84955095Y-103497095D01*
X84669380Y-104925666D02*
X84669380Y-104735190D01*
X84717000Y-104639952D01*
X84764619Y-104592333D01*
X84907476Y-104497095D01*
X85097952Y-104449476D01*
X85478904Y-104449476D01*
X85574142Y-104497095D01*
X85621761Y-104544714D01*
X85669380Y-104639952D01*
X85669380Y-104830428D01*
X85621761Y-104925666D01*
X85574142Y-104973285D01*
X85478904Y-105020904D01*
X85240809Y-105020904D01*
X85145571Y-104973285D01*
X85097952Y-104925666D01*
X85050333Y-104830428D01*
X85050333Y-104639952D01*
X85097952Y-104544714D01*
X85145571Y-104497095D01*
X85240809Y-104449476D01*
X97035857Y-104846380D02*
X97369190Y-104370190D01*
X97607285Y-104846380D02*
X97607285Y-103846380D01*
X97226333Y-103846380D01*
X97131095Y-103894000D01*
X97083476Y-103941619D01*
X97035857Y-104036857D01*
X97035857Y-104179714D01*
X97083476Y-104274952D01*
X97131095Y-104322571D01*
X97226333Y-104370190D01*
X97607285Y-104370190D01*
X96083476Y-104846380D02*
X96654904Y-104846380D01*
X96369190Y-104846380D02*
X96369190Y-103846380D01*
X96464428Y-103989238D01*
X96559666Y-104084476D01*
X96654904Y-104132095D01*
X95750142Y-103846380D02*
X95083476Y-103846380D01*
X95512047Y-104846380D01*
X87510857Y-110815380D02*
X87844190Y-110339190D01*
X88082285Y-110815380D02*
X88082285Y-109815380D01*
X87701333Y-109815380D01*
X87606095Y-109863000D01*
X87558476Y-109910619D01*
X87510857Y-110005857D01*
X87510857Y-110148714D01*
X87558476Y-110243952D01*
X87606095Y-110291571D01*
X87701333Y-110339190D01*
X88082285Y-110339190D01*
X86558476Y-110815380D02*
X87129904Y-110815380D01*
X86844190Y-110815380D02*
X86844190Y-109815380D01*
X86939428Y-109958238D01*
X87034666Y-110053476D01*
X87129904Y-110101095D01*
X85987047Y-110243952D02*
X86082285Y-110196333D01*
X86129904Y-110148714D01*
X86177523Y-110053476D01*
X86177523Y-110005857D01*
X86129904Y-109910619D01*
X86082285Y-109863000D01*
X85987047Y-109815380D01*
X85796571Y-109815380D01*
X85701333Y-109863000D01*
X85653714Y-109910619D01*
X85606095Y-110005857D01*
X85606095Y-110053476D01*
X85653714Y-110148714D01*
X85701333Y-110196333D01*
X85796571Y-110243952D01*
X85987047Y-110243952D01*
X86082285Y-110291571D01*
X86129904Y-110339190D01*
X86177523Y-110434428D01*
X86177523Y-110624904D01*
X86129904Y-110720142D01*
X86082285Y-110767761D01*
X85987047Y-110815380D01*
X85796571Y-110815380D01*
X85701333Y-110767761D01*
X85653714Y-110720142D01*
X85606095Y-110624904D01*
X85606095Y-110434428D01*
X85653714Y-110339190D01*
X85701333Y-110291571D01*
X85796571Y-110243952D01*
X95003857Y-110815380D02*
X95337190Y-110339190D01*
X95575285Y-110815380D02*
X95575285Y-109815380D01*
X95194333Y-109815380D01*
X95099095Y-109863000D01*
X95051476Y-109910619D01*
X95003857Y-110005857D01*
X95003857Y-110148714D01*
X95051476Y-110243952D01*
X95099095Y-110291571D01*
X95194333Y-110339190D01*
X95575285Y-110339190D01*
X94051476Y-110815380D02*
X94622904Y-110815380D01*
X94337190Y-110815380D02*
X94337190Y-109815380D01*
X94432428Y-109958238D01*
X94527666Y-110053476D01*
X94622904Y-110101095D01*
X93575285Y-110815380D02*
X93384809Y-110815380D01*
X93289571Y-110767761D01*
X93241952Y-110720142D01*
X93146714Y-110577285D01*
X93099095Y-110386809D01*
X93099095Y-110005857D01*
X93146714Y-109910619D01*
X93194333Y-109863000D01*
X93289571Y-109815380D01*
X93480047Y-109815380D01*
X93575285Y-109863000D01*
X93622904Y-109910619D01*
X93670523Y-110005857D01*
X93670523Y-110243952D01*
X93622904Y-110339190D01*
X93575285Y-110386809D01*
X93480047Y-110434428D01*
X93289571Y-110434428D01*
X93194333Y-110386809D01*
X93146714Y-110339190D01*
X93099095Y-110243952D01*
X89630238Y-110910619D02*
X89725476Y-110863000D01*
X89820714Y-110767761D01*
X89963571Y-110624904D01*
X90058809Y-110577285D01*
X90154047Y-110577285D01*
X90106428Y-110815380D02*
X90201666Y-110767761D01*
X90296904Y-110672523D01*
X90344523Y-110482047D01*
X90344523Y-110148714D01*
X90296904Y-109958238D01*
X90201666Y-109863000D01*
X90106428Y-109815380D01*
X89915952Y-109815380D01*
X89820714Y-109863000D01*
X89725476Y-109958238D01*
X89677857Y-110148714D01*
X89677857Y-110482047D01*
X89725476Y-110672523D01*
X89820714Y-110767761D01*
X89915952Y-110815380D01*
X90106428Y-110815380D01*
X88820714Y-110148714D02*
X88820714Y-110815380D01*
X89058809Y-109767761D02*
X89296904Y-110482047D01*
X88677857Y-110482047D01*
X87121904Y-95972380D02*
X87121904Y-96781904D01*
X87074285Y-96877142D01*
X87026666Y-96924761D01*
X86931428Y-96972380D01*
X86740952Y-96972380D01*
X86645714Y-96924761D01*
X86598095Y-96877142D01*
X86550476Y-96781904D01*
X86550476Y-95972380D01*
X85931428Y-96400952D02*
X86026666Y-96353333D01*
X86074285Y-96305714D01*
X86121904Y-96210476D01*
X86121904Y-96162857D01*
X86074285Y-96067619D01*
X86026666Y-96020000D01*
X85931428Y-95972380D01*
X85740952Y-95972380D01*
X85645714Y-96020000D01*
X85598095Y-96067619D01*
X85550476Y-96162857D01*
X85550476Y-96210476D01*
X85598095Y-96305714D01*
X85645714Y-96353333D01*
X85740952Y-96400952D01*
X85931428Y-96400952D01*
X86026666Y-96448571D01*
X86074285Y-96496190D01*
X86121904Y-96591428D01*
X86121904Y-96781904D01*
X86074285Y-96877142D01*
X86026666Y-96924761D01*
X85931428Y-96972380D01*
X85740952Y-96972380D01*
X85645714Y-96924761D01*
X85598095Y-96877142D01*
X85550476Y-96781904D01*
X85550476Y-96591428D01*
X85598095Y-96496190D01*
X85645714Y-96448571D01*
X85740952Y-96400952D01*
X94075238Y-102782619D02*
X94170476Y-102735000D01*
X94265714Y-102639761D01*
X94408571Y-102496904D01*
X94503809Y-102449285D01*
X94599047Y-102449285D01*
X94551428Y-102687380D02*
X94646666Y-102639761D01*
X94741904Y-102544523D01*
X94789523Y-102354047D01*
X94789523Y-102020714D01*
X94741904Y-101830238D01*
X94646666Y-101735000D01*
X94551428Y-101687380D01*
X94360952Y-101687380D01*
X94265714Y-101735000D01*
X94170476Y-101830238D01*
X94122857Y-102020714D01*
X94122857Y-102354047D01*
X94170476Y-102544523D01*
X94265714Y-102639761D01*
X94360952Y-102687380D01*
X94551428Y-102687380D01*
X93789523Y-101687380D02*
X93170476Y-101687380D01*
X93503809Y-102068333D01*
X93360952Y-102068333D01*
X93265714Y-102115952D01*
X93218095Y-102163571D01*
X93170476Y-102258809D01*
X93170476Y-102496904D01*
X93218095Y-102592142D01*
X93265714Y-102639761D01*
X93360952Y-102687380D01*
X93646666Y-102687380D01*
X93741904Y-102639761D01*
X93789523Y-102592142D01*
X90265238Y-103671619D02*
X90360476Y-103624000D01*
X90455714Y-103528761D01*
X90598571Y-103385904D01*
X90693809Y-103338285D01*
X90789047Y-103338285D01*
X90741428Y-103576380D02*
X90836666Y-103528761D01*
X90931904Y-103433523D01*
X90979523Y-103243047D01*
X90979523Y-102909714D01*
X90931904Y-102719238D01*
X90836666Y-102624000D01*
X90741428Y-102576380D01*
X90550952Y-102576380D01*
X90455714Y-102624000D01*
X90360476Y-102719238D01*
X90312857Y-102909714D01*
X90312857Y-103243047D01*
X90360476Y-103433523D01*
X90455714Y-103528761D01*
X90550952Y-103576380D01*
X90741428Y-103576380D01*
X89931904Y-102671619D02*
X89884285Y-102624000D01*
X89789047Y-102576380D01*
X89550952Y-102576380D01*
X89455714Y-102624000D01*
X89408095Y-102671619D01*
X89360476Y-102766857D01*
X89360476Y-102862095D01*
X89408095Y-103004952D01*
X89979523Y-103576380D01*
X89360476Y-103576380D01*
X91916238Y-110910619D02*
X92011476Y-110863000D01*
X92106714Y-110767761D01*
X92249571Y-110624904D01*
X92344809Y-110577285D01*
X92440047Y-110577285D01*
X92392428Y-110815380D02*
X92487666Y-110767761D01*
X92582904Y-110672523D01*
X92630523Y-110482047D01*
X92630523Y-110148714D01*
X92582904Y-109958238D01*
X92487666Y-109863000D01*
X92392428Y-109815380D01*
X92201952Y-109815380D01*
X92106714Y-109863000D01*
X92011476Y-109958238D01*
X91963857Y-110148714D01*
X91963857Y-110482047D01*
X92011476Y-110672523D01*
X92106714Y-110767761D01*
X92201952Y-110815380D01*
X92392428Y-110815380D01*
X91059095Y-109815380D02*
X91535285Y-109815380D01*
X91582904Y-110291571D01*
X91535285Y-110243952D01*
X91440047Y-110196333D01*
X91201952Y-110196333D01*
X91106714Y-110243952D01*
X91059095Y-110291571D01*
X91011476Y-110386809D01*
X91011476Y-110624904D01*
X91059095Y-110720142D01*
X91106714Y-110767761D01*
X91201952Y-110815380D01*
X91440047Y-110815380D01*
X91535285Y-110767761D01*
X91582904Y-110720142D01*
X96853333Y-95718380D02*
X96853333Y-96432666D01*
X96900952Y-96575523D01*
X96996190Y-96670761D01*
X97139047Y-96718380D01*
X97234285Y-96718380D01*
X96329523Y-96718380D02*
X96139047Y-96718380D01*
X96043809Y-96670761D01*
X95996190Y-96623142D01*
X95900952Y-96480285D01*
X95853333Y-96289809D01*
X95853333Y-95908857D01*
X95900952Y-95813619D01*
X95948571Y-95766000D01*
X96043809Y-95718380D01*
X96234285Y-95718380D01*
X96329523Y-95766000D01*
X96377142Y-95813619D01*
X96424761Y-95908857D01*
X96424761Y-96146952D01*
X96377142Y-96242190D01*
X96329523Y-96289809D01*
X96234285Y-96337428D01*
X96043809Y-96337428D01*
X95948571Y-96289809D01*
X95900952Y-96242190D01*
X95853333Y-96146952D01*
X58896238Y-100496619D02*
X58991476Y-100449000D01*
X59086714Y-100353761D01*
X59229571Y-100210904D01*
X59324809Y-100163285D01*
X59420047Y-100163285D01*
X59372428Y-100401380D02*
X59467666Y-100353761D01*
X59562904Y-100258523D01*
X59610523Y-100068047D01*
X59610523Y-99734714D01*
X59562904Y-99544238D01*
X59467666Y-99449000D01*
X59372428Y-99401380D01*
X59181952Y-99401380D01*
X59086714Y-99449000D01*
X58991476Y-99544238D01*
X58943857Y-99734714D01*
X58943857Y-100068047D01*
X58991476Y-100258523D01*
X59086714Y-100353761D01*
X59181952Y-100401380D01*
X59372428Y-100401380D01*
X57991476Y-100401380D02*
X58562904Y-100401380D01*
X58277190Y-100401380D02*
X58277190Y-99401380D01*
X58372428Y-99544238D01*
X58467666Y-99639476D01*
X58562904Y-99687095D01*
X60070904Y-107021380D02*
X60070904Y-107830904D01*
X60023285Y-107926142D01*
X59975666Y-107973761D01*
X59880428Y-108021380D01*
X59689952Y-108021380D01*
X59594714Y-107973761D01*
X59547095Y-107926142D01*
X59499476Y-107830904D01*
X59499476Y-107021380D01*
X58547095Y-107021380D02*
X59023285Y-107021380D01*
X59070904Y-107497571D01*
X59023285Y-107449952D01*
X58928047Y-107402333D01*
X58689952Y-107402333D01*
X58594714Y-107449952D01*
X58547095Y-107497571D01*
X58499476Y-107592809D01*
X58499476Y-107830904D01*
X58547095Y-107926142D01*
X58594714Y-107973761D01*
X58689952Y-108021380D01*
X58928047Y-108021380D01*
X59023285Y-107973761D01*
X59070904Y-107926142D01*
D13*
X83330952Y-96500904D02*
X83330952Y-95700904D01*
X82492857Y-96424714D02*
X82530952Y-96462809D01*
X82645238Y-96500904D01*
X82721428Y-96500904D01*
X82835714Y-96462809D01*
X82911904Y-96386619D01*
X82950000Y-96310428D01*
X82988095Y-96158047D01*
X82988095Y-96043761D01*
X82950000Y-95891380D01*
X82911904Y-95815190D01*
X82835714Y-95739000D01*
X82721428Y-95700904D01*
X82645238Y-95700904D01*
X82530952Y-95739000D01*
X82492857Y-95777095D01*
X81730952Y-96500904D02*
X82188095Y-96500904D01*
X81959523Y-96500904D02*
X81959523Y-95700904D01*
X82035714Y-95815190D01*
X82111904Y-95891380D01*
X82188095Y-95929476D01*
D10*
X60364666Y-90908142D02*
X60412285Y-90955761D01*
X60555142Y-91003380D01*
X60650380Y-91003380D01*
X60793238Y-90955761D01*
X60888476Y-90860523D01*
X60936095Y-90765285D01*
X60983714Y-90574809D01*
X60983714Y-90431952D01*
X60936095Y-90241476D01*
X60888476Y-90146238D01*
X60793238Y-90051000D01*
X60650380Y-90003380D01*
X60555142Y-90003380D01*
X60412285Y-90051000D01*
X60364666Y-90098619D01*
X60031333Y-90003380D02*
X59364666Y-90003380D01*
X59793238Y-91003380D01*
X75604666Y-97766142D02*
X75652285Y-97813761D01*
X75795142Y-97861380D01*
X75890380Y-97861380D01*
X76033238Y-97813761D01*
X76128476Y-97718523D01*
X76176095Y-97623285D01*
X76223714Y-97432809D01*
X76223714Y-97289952D01*
X76176095Y-97099476D01*
X76128476Y-97004238D01*
X76033238Y-96909000D01*
X75890380Y-96861380D01*
X75795142Y-96861380D01*
X75652285Y-96909000D01*
X75604666Y-96956619D01*
X75033238Y-97289952D02*
X75128476Y-97242333D01*
X75176095Y-97194714D01*
X75223714Y-97099476D01*
X75223714Y-97051857D01*
X75176095Y-96956619D01*
X75128476Y-96909000D01*
X75033238Y-96861380D01*
X74842761Y-96861380D01*
X74747523Y-96909000D01*
X74699904Y-96956619D01*
X74652285Y-97051857D01*
X74652285Y-97099476D01*
X74699904Y-97194714D01*
X74747523Y-97242333D01*
X74842761Y-97289952D01*
X75033238Y-97289952D01*
X75128476Y-97337571D01*
X75176095Y-97385190D01*
X75223714Y-97480428D01*
X75223714Y-97670904D01*
X75176095Y-97766142D01*
X75128476Y-97813761D01*
X75033238Y-97861380D01*
X74842761Y-97861380D01*
X74747523Y-97813761D01*
X74699904Y-97766142D01*
X74652285Y-97670904D01*
X74652285Y-97480428D01*
X74699904Y-97385190D01*
X74747523Y-97337571D01*
X74842761Y-97289952D01*
X66270095Y-99512380D02*
X66270095Y-98512380D01*
X66032000Y-98512380D01*
X65889142Y-98560000D01*
X65793904Y-98655238D01*
X65746285Y-98750476D01*
X65698666Y-98940952D01*
X65698666Y-99083809D01*
X65746285Y-99274285D01*
X65793904Y-99369523D01*
X65889142Y-99464761D01*
X66032000Y-99512380D01*
X66270095Y-99512380D01*
X64746285Y-99512380D02*
X65317714Y-99512380D01*
X65032000Y-99512380D02*
X65032000Y-98512380D01*
X65127238Y-98655238D01*
X65222476Y-98750476D01*
X65317714Y-98798095D01*
X75818904Y-109942380D02*
X75818904Y-110751904D01*
X75771285Y-110847142D01*
X75723666Y-110894761D01*
X75628428Y-110942380D01*
X75437952Y-110942380D01*
X75342714Y-110894761D01*
X75295095Y-110847142D01*
X75247476Y-110751904D01*
X75247476Y-109942380D01*
X74342714Y-110275714D02*
X74342714Y-110942380D01*
X74580809Y-109894761D02*
X74818904Y-110609047D01*
X74199857Y-110609047D01*
X64769904Y-92289380D02*
X64769904Y-93098904D01*
X64722285Y-93194142D01*
X64674666Y-93241761D01*
X64579428Y-93289380D01*
X64388952Y-93289380D01*
X64293714Y-93241761D01*
X64246095Y-93194142D01*
X64198476Y-93098904D01*
X64198476Y-92289380D01*
X63293714Y-92289380D02*
X63484190Y-92289380D01*
X63579428Y-92337000D01*
X63627047Y-92384619D01*
X63722285Y-92527476D01*
X63769904Y-92717952D01*
X63769904Y-93098904D01*
X63722285Y-93194142D01*
X63674666Y-93241761D01*
X63579428Y-93289380D01*
X63388952Y-93289380D01*
X63293714Y-93241761D01*
X63246095Y-93194142D01*
X63198476Y-93098904D01*
X63198476Y-92860809D01*
X63246095Y-92765571D01*
X63293714Y-92717952D01*
X63388952Y-92670333D01*
X63579428Y-92670333D01*
X63674666Y-92717952D01*
X63722285Y-92765571D01*
X63769904Y-92860809D01*
X69826095Y-100401380D02*
X69826095Y-99401380D01*
X69588000Y-99401380D01*
X69445142Y-99449000D01*
X69349904Y-99544238D01*
X69302285Y-99639476D01*
X69254666Y-99829952D01*
X69254666Y-99972809D01*
X69302285Y-100163285D01*
X69349904Y-100258523D01*
X69445142Y-100353761D01*
X69588000Y-100401380D01*
X69826095Y-100401380D01*
X68873714Y-99496619D02*
X68826095Y-99449000D01*
X68730857Y-99401380D01*
X68492761Y-99401380D01*
X68397523Y-99449000D01*
X68349904Y-99496619D01*
X68302285Y-99591857D01*
X68302285Y-99687095D01*
X68349904Y-99829952D01*
X68921333Y-100401380D01*
X68302285Y-100401380D01*
M02*
