G04 #@! TF.GenerationSoftware,KiCad,Pcbnew,(5.0.0-rc2-dev-744-gdfcdfe91f)*
G04 #@! TF.CreationDate,2018-07-03T22:34:29+02:00*
G04 #@! TF.ProjectId,SHMod24,53484D6F6432342E6B696361645F7063,rev?*
G04 #@! TF.SameCoordinates,Original*
G04 #@! TF.FileFunction,Copper,L1,Top,Signal*
G04 #@! TF.FilePolarity,Positive*
%FSLAX46Y46*%
G04 Gerber Fmt 4.6, Leading zero omitted, Abs format (unit mm)*
G04 Created by KiCad (PCBNEW (5.0.0-rc2-dev-744-gdfcdfe91f)) date 07/03/18 22:34:29*
%MOMM*%
%LPD*%
G01*
G04 APERTURE LIST*
%ADD10R,1.000000X1.000000*%
%ADD11R,1.120000X1.400000*%
%ADD12C,1.998980*%
%ADD13R,1.000000X2.000000*%
%ADD14R,2.600000X2.600000*%
%ADD15C,2.600000*%
%ADD16R,2.000000X2.000000*%
%ADD17C,2.100000*%
%ADD18R,1.000000X3.150000*%
%ADD19O,2.199640X1.501140*%
%ADD20O,1.501140X2.199640*%
%ADD21R,3.500000X1.600000*%
%ADD22C,0.600000*%
%ADD23C,0.250000*%
%ADD24C,0.400000*%
%ADD25C,1.000000*%
%ADD26C,0.600000*%
%ADD27C,0.800000*%
%ADD28C,0.254000*%
G04 APERTURE END LIST*
D10*
X91933000Y-84836000D03*
X93233000Y-84836000D03*
X91933000Y-86233000D03*
X93233000Y-86233000D03*
D11*
X85480000Y-83185000D03*
X87240000Y-83185000D03*
X87240000Y-84963000D03*
X85480000Y-84963000D03*
X62642693Y-84709000D03*
X60882693Y-84709000D03*
X58538000Y-80645000D03*
X56778000Y-80645000D03*
X56778000Y-82677000D03*
X58538000Y-82677000D03*
X62642693Y-80659509D03*
X60882693Y-80659509D03*
X62642693Y-82691509D03*
X60882693Y-82691509D03*
X60570000Y-74676000D03*
X58810000Y-74676000D03*
X60880100Y-78740000D03*
X62640100Y-78740000D03*
X58538000Y-76835000D03*
X56778000Y-76835000D03*
X56769000Y-78740000D03*
X58529000Y-78740000D03*
X56778000Y-84709000D03*
X58538000Y-84709000D03*
X60880100Y-76835000D03*
X62640100Y-76835000D03*
D12*
X53340000Y-101346000D03*
D13*
X86405000Y-72581000D03*
X87675000Y-72581000D03*
X88945000Y-72581000D03*
X90215000Y-72581000D03*
X91485000Y-72581000D03*
X92755000Y-72581000D03*
X94025000Y-72581000D03*
X95295000Y-72581000D03*
D14*
X53340000Y-96520000D03*
D15*
X53340000Y-91520000D03*
D16*
X98679000Y-101092000D03*
D17*
X98679000Y-98552000D03*
D18*
X59436000Y-108189000D03*
X59436000Y-103139000D03*
X61976000Y-108189000D03*
X61976000Y-103139000D03*
X64516000Y-108189000D03*
X64516000Y-103139000D03*
X67056000Y-108189000D03*
X67056000Y-103139000D03*
X69596000Y-108189000D03*
X69596000Y-103139000D03*
X72136000Y-108189000D03*
X72136000Y-103139000D03*
X74676000Y-108189000D03*
X74676000Y-103139000D03*
X77216000Y-108189000D03*
X77216000Y-103139000D03*
X79756000Y-108189000D03*
X79756000Y-103139000D03*
X82296000Y-108189000D03*
X82296000Y-103139000D03*
X84836000Y-108189000D03*
X84836000Y-103139000D03*
X87376000Y-108189000D03*
X87376000Y-103139000D03*
X89916000Y-108189000D03*
X89916000Y-103139000D03*
X92456000Y-108189000D03*
X92456000Y-103139000D03*
D19*
X98425000Y-66040000D03*
X98425000Y-68580000D03*
X98425000Y-71120000D03*
X98425000Y-73660000D03*
X98425000Y-76200000D03*
X98425000Y-78740000D03*
X98425000Y-81280000D03*
X98425000Y-83820000D03*
X98425000Y-86360000D03*
X98425000Y-88900000D03*
X98425000Y-91440000D03*
X98425000Y-93980000D03*
X83185000Y-93980000D03*
X83185000Y-91440000D03*
X83185000Y-88900000D03*
X83185000Y-86360000D03*
X83185000Y-83820000D03*
X83185000Y-81280000D03*
X83185000Y-78740000D03*
X83185000Y-76200000D03*
X83185000Y-73660000D03*
X83185000Y-71120000D03*
X83185000Y-68580000D03*
X83185000Y-66040000D03*
X85725000Y-77470000D03*
X85725000Y-74930000D03*
D20*
X85725000Y-93980000D03*
X88265000Y-93980000D03*
X90805000Y-93980000D03*
D13*
X86405000Y-81090000D03*
X87675000Y-81090000D03*
X88945000Y-81090000D03*
X90215000Y-81090000D03*
X91485000Y-81090000D03*
X92755000Y-81090000D03*
X94025000Y-81090000D03*
X95295000Y-81090000D03*
D21*
X72042000Y-90551000D03*
X66642000Y-90551000D03*
D12*
X53340000Y-103886000D03*
D22*
X68072000Y-76708000D03*
X68961000Y-87630000D03*
X68961000Y-88265000D03*
X60833000Y-85725000D03*
X59690000Y-82677000D03*
X78994000Y-89662000D03*
X78994000Y-90297000D03*
X55753000Y-80645000D03*
X76073000Y-80645000D03*
X66548000Y-80645000D03*
X84963000Y-97663000D03*
X94054185Y-87423304D03*
X55753000Y-82677000D03*
X75447990Y-81281474D03*
X94869000Y-87376000D03*
X85852004Y-109601004D03*
X84455000Y-106299000D03*
X85090000Y-106299000D03*
X66040000Y-81280000D03*
X88011000Y-99187000D03*
X86829987Y-92202000D03*
X56007000Y-86741000D03*
X73152000Y-107315000D03*
X73181942Y-106201942D03*
X72390000Y-83566000D03*
X65921382Y-103660003D03*
X60579000Y-102331000D03*
X60579000Y-101600000D03*
X79537058Y-105699058D03*
X78867000Y-105664000D03*
X65913000Y-109273012D03*
X88494447Y-107409776D03*
X81153002Y-109347000D03*
X81153000Y-108712000D03*
X93345000Y-106045000D03*
X93980000Y-106045000D03*
X93472000Y-109855000D03*
X93980000Y-109474000D03*
X85343968Y-105537000D03*
X59690000Y-80020000D03*
X63500000Y-76835000D03*
X72136000Y-71628000D03*
X97536000Y-96901000D03*
X88519000Y-108077000D03*
X52070000Y-79756000D03*
X81915000Y-77470000D03*
X55753000Y-78740000D03*
X80772000Y-80137000D03*
X65913000Y-74168000D03*
X55753000Y-76835000D03*
X80137000Y-79375000D03*
X74930000Y-87507500D03*
X74930000Y-85907500D03*
X63627000Y-78740000D03*
X83439000Y-103632000D03*
X83439000Y-102997000D03*
X82677000Y-100457000D03*
X83185000Y-100964992D03*
X77978000Y-72400000D03*
X55753000Y-72771000D03*
X79248000Y-76961994D03*
X93218000Y-88265000D03*
X92837000Y-92329000D03*
X81026000Y-73025000D03*
X80061003Y-77500606D03*
X55350085Y-74195016D03*
X92710000Y-87503000D03*
X92202000Y-90805000D03*
X72771000Y-91821000D03*
X73533000Y-91821000D03*
X72770986Y-92583000D03*
X73533000Y-92583000D03*
X59817000Y-94557944D03*
X64897000Y-96012000D03*
X64389000Y-91694000D03*
X95250000Y-105664000D03*
X86674942Y-88458058D03*
X91059000Y-107188000D03*
X96520000Y-96647000D03*
X91694000Y-107188000D03*
X93980011Y-102742989D03*
X91313000Y-103632000D03*
X91821000Y-103241000D03*
X88915999Y-106620457D03*
X86810510Y-106172001D03*
X96139000Y-84455000D03*
X88392004Y-106172000D03*
X90297000Y-105156000D03*
X89662000Y-105156000D03*
X95494000Y-85344000D03*
X89205003Y-105760396D03*
X88900000Y-83820000D03*
X85090000Y-71628000D03*
X88900000Y-71628000D03*
X77089000Y-71882000D03*
X80010000Y-85979000D03*
X91948000Y-83962421D03*
X92456000Y-82639000D03*
X80772000Y-86232998D03*
X67691000Y-75184000D03*
X63881000Y-89789000D03*
X63119000Y-89789000D03*
X63880996Y-89027000D03*
X63119000Y-89027000D03*
X88265000Y-92075002D03*
X89662000Y-95504000D03*
X89154002Y-96901000D03*
X55753000Y-84709000D03*
X74803000Y-81915006D03*
X66548000Y-81915000D03*
X80391000Y-94615000D03*
X90299555Y-87246453D03*
X88656760Y-85603659D03*
X62357000Y-74295000D03*
D23*
X62642693Y-84569000D02*
X62642693Y-84709000D01*
X63754000Y-83457693D02*
X62642693Y-84569000D01*
X63754000Y-80899000D02*
X63754000Y-83457693D01*
X68072000Y-76708000D02*
X67945000Y-76708000D01*
X67945000Y-76708000D02*
X63754000Y-80899000D01*
D24*
X87503000Y-74731584D02*
X86405000Y-73633584D01*
X86405000Y-73633584D02*
X86405000Y-72581000D01*
X87503000Y-78592000D02*
X87503000Y-74731584D01*
X86405000Y-79690000D02*
X87503000Y-78592000D01*
X86405000Y-81090000D02*
X86405000Y-79690000D01*
X83185000Y-73660000D02*
X83566000Y-73660000D01*
X84645000Y-72581000D02*
X86405000Y-72581000D01*
X83566000Y-73660000D02*
X84645000Y-72581000D01*
X58538000Y-82677000D02*
X58538000Y-80645000D01*
X58538000Y-78749000D02*
X58529000Y-78740000D01*
X58538000Y-80645000D02*
X58538000Y-78749000D01*
X58529000Y-76844000D02*
X58538000Y-76835000D01*
X58529000Y-78740000D02*
X58529000Y-76844000D01*
D25*
X64516000Y-103124000D02*
X64516000Y-108189000D01*
D24*
X60833000Y-84758693D02*
X60882693Y-84709000D01*
X60833000Y-85725000D02*
X60833000Y-84758693D01*
X59690000Y-82677000D02*
X58538000Y-82677000D01*
D26*
X85480000Y-83185000D02*
X85480000Y-84963000D01*
X85269000Y-85174000D02*
X84520000Y-85174000D01*
X85480000Y-84963000D02*
X85269000Y-85174000D01*
X86405000Y-81489000D02*
X86405000Y-81090000D01*
X85480000Y-83185000D02*
X85480000Y-82414000D01*
X85480000Y-82414000D02*
X86405000Y-81489000D01*
D27*
X69385264Y-88265000D02*
X68961000Y-88265000D01*
X73406000Y-88265000D02*
X69385264Y-88265000D01*
X64516000Y-100838000D02*
X71628000Y-93726000D01*
X64516000Y-103139000D02*
X64516000Y-100838000D01*
X74061998Y-93726000D02*
X74676000Y-93111998D01*
X71628000Y-93726000D02*
X74061998Y-93726000D01*
X74676000Y-93111998D02*
X74676000Y-89535000D01*
X74676000Y-89535000D02*
X73406000Y-88265000D01*
X68961000Y-88265000D02*
X68961000Y-87630000D01*
D24*
X58538000Y-74685000D02*
X58547000Y-74676000D01*
X58538000Y-74948000D02*
X58810000Y-74676000D01*
X58538000Y-76835000D02*
X58538000Y-74948000D01*
D26*
X79629000Y-85090000D02*
X78994000Y-85725000D01*
D24*
X84520000Y-85174000D02*
X84436000Y-85090000D01*
D26*
X84436000Y-85090000D02*
X79629000Y-85090000D01*
X78994000Y-85725000D02*
X78994000Y-89662000D01*
X78994000Y-89662000D02*
X78994000Y-90297000D01*
D23*
X56778000Y-80645000D02*
X55753000Y-80645000D01*
X66548000Y-80645000D02*
X76073000Y-80645000D01*
X90224032Y-97663000D02*
X94054185Y-93832847D01*
X84963000Y-97663000D02*
X90224032Y-97663000D01*
X94054185Y-87847568D02*
X94054185Y-87423304D01*
X94054185Y-93832847D02*
X94054185Y-87847568D01*
X84836000Y-97790000D02*
X84963000Y-97663000D01*
X84836000Y-103139000D02*
X84836000Y-97790000D01*
X56778000Y-82677000D02*
X55753000Y-82677000D01*
X84836000Y-107188000D02*
X84836000Y-108189000D01*
D26*
X84455000Y-106299000D02*
X85090000Y-106299000D01*
X84836000Y-106680000D02*
X84836000Y-106934000D01*
X84455000Y-106299000D02*
X84836000Y-106680000D01*
X84790001Y-106634001D02*
X84836000Y-106680000D01*
X85090000Y-106299000D02*
X84790001Y-106598999D01*
X84790001Y-106598999D02*
X84790001Y-106634001D01*
D23*
X75436516Y-81270000D02*
X75447990Y-81281474D01*
X66050000Y-81270000D02*
X75436516Y-81270000D01*
X66040000Y-81280000D02*
X66050000Y-81270000D01*
X94869000Y-93654442D02*
X89336442Y-99187000D01*
X94869000Y-87376000D02*
X94869000Y-93654442D01*
X89336442Y-99187000D02*
X88011000Y-99187000D01*
X86152003Y-109301005D02*
X86152003Y-100503003D01*
X85852004Y-109601004D02*
X86152003Y-109301005D01*
X88011000Y-99187000D02*
X87468006Y-99187000D01*
X87468006Y-99187000D02*
X86152003Y-100503003D01*
X60882693Y-80519509D02*
X60882693Y-80659509D01*
X77216000Y-103139000D02*
X77216000Y-102064000D01*
X60851000Y-78740000D02*
X60851000Y-76835000D01*
X60882693Y-78771693D02*
X60851000Y-78740000D01*
X60882693Y-80659509D02*
X60882693Y-78771693D01*
X60880100Y-76695000D02*
X60880100Y-76835000D01*
X82835750Y-83820000D02*
X83185000Y-83820000D01*
X81407000Y-82391250D02*
X82835750Y-83820000D01*
X81407000Y-77851000D02*
X81407000Y-82391250D01*
X67183000Y-74431998D02*
X77987998Y-74431998D01*
X65795998Y-75819000D02*
X67183000Y-74431998D01*
X63469102Y-75819000D02*
X65795998Y-75819000D01*
X77987998Y-74431998D02*
X81407000Y-77851000D01*
X60880100Y-75885000D02*
X60946100Y-75819000D01*
X60946100Y-75819000D02*
X61811098Y-75819000D01*
X61811098Y-75819000D02*
X61820099Y-75809999D01*
X60880100Y-76835000D02*
X60880100Y-75885000D01*
X61820099Y-75809999D02*
X63460101Y-75809999D01*
X63460101Y-75809999D02*
X63469102Y-75819000D01*
X77216000Y-103139000D02*
X77216000Y-98436288D01*
X80247458Y-95404830D02*
X86229020Y-95404830D01*
X77216000Y-98436288D02*
X80247458Y-95404830D01*
X86829987Y-94803863D02*
X86829987Y-92626264D01*
X86229020Y-95404830D02*
X86829987Y-94803863D01*
X86829987Y-92626264D02*
X86829987Y-92202000D01*
D24*
X87240000Y-84074000D02*
X87240000Y-82940000D01*
D26*
X87675000Y-82505000D02*
X87675000Y-81090000D01*
X87240000Y-82940000D02*
X87675000Y-82505000D01*
D24*
X87675000Y-74055042D02*
X88265000Y-74645042D01*
X87675000Y-72581000D02*
X87675000Y-74055042D01*
X87675000Y-79690000D02*
X87675000Y-81090000D01*
X88265000Y-79100000D02*
X87675000Y-79690000D01*
X88265000Y-74645042D02*
X88265000Y-79100000D01*
D27*
X82835750Y-68580000D02*
X81407000Y-70008750D01*
X81407000Y-70008750D02*
X81407000Y-71501000D01*
X83185000Y-68580000D02*
X82835750Y-68580000D01*
D24*
X59309000Y-84709000D02*
X58538000Y-84709000D01*
X59690000Y-84328000D02*
X59309000Y-84709000D01*
X59690000Y-83947000D02*
X59690000Y-84328000D01*
X60882693Y-82691509D02*
X60882693Y-82754307D01*
X60882693Y-82754307D02*
X59690000Y-83947000D01*
X87675000Y-71038000D02*
X87675000Y-72581000D01*
X87503000Y-70866000D02*
X87675000Y-71038000D01*
X87249000Y-70866000D02*
X96012000Y-70866000D01*
X87249000Y-70866000D02*
X87503000Y-70866000D01*
X96012000Y-70866000D02*
X96647000Y-71501000D01*
X98075750Y-73660000D02*
X98425000Y-73660000D01*
X96647000Y-71501000D02*
X96647000Y-72231250D01*
X59690000Y-81498816D02*
X60882693Y-82691509D01*
X62640100Y-76835000D02*
X63500000Y-76835000D01*
X59690000Y-80020000D02*
X59690000Y-81498816D01*
D27*
X85935249Y-70980999D02*
X87134001Y-70980999D01*
X83185000Y-68580000D02*
X83534250Y-68580000D01*
X83534250Y-68580000D02*
X85935249Y-70980999D01*
D23*
X95295000Y-81090000D02*
X95295000Y-80600000D01*
X56769000Y-78740000D02*
X55753000Y-78740000D01*
X69596000Y-108189000D02*
X69596000Y-106364000D01*
X71215200Y-101255033D02*
X78058033Y-94412200D01*
X78058033Y-94412200D02*
X78058033Y-82850967D01*
X69596000Y-106364000D02*
X71215200Y-104744800D01*
X80472001Y-80436999D02*
X80772000Y-80137000D01*
X78058033Y-82850967D02*
X80472001Y-80436999D01*
X71215200Y-104744800D02*
X71215200Y-101255033D01*
X81786590Y-77470000D02*
X85725000Y-77470000D01*
X78298577Y-73981987D02*
X81786590Y-77470000D01*
X65913000Y-74168000D02*
X66099013Y-73981987D01*
X66099013Y-73981987D02*
X78298577Y-73981987D01*
X56778000Y-76835000D02*
X55753000Y-76835000D01*
X77608022Y-94225800D02*
X77608022Y-81903978D01*
X77608022Y-81903978D02*
X79837001Y-79674999D01*
X69596000Y-103139000D02*
X69596000Y-102064000D01*
X69596000Y-102064000D02*
X70346000Y-101314000D01*
X70519822Y-101314000D02*
X77608022Y-94225800D01*
X79837001Y-79674999D02*
X80137000Y-79375000D01*
X70346000Y-101314000D02*
X70519822Y-101314000D01*
X79883000Y-74930000D02*
X84375180Y-74930000D01*
X78484977Y-73531976D02*
X79883000Y-74930000D01*
X55753000Y-74676000D02*
X56897024Y-73531976D01*
X56897024Y-73531976D02*
X78484977Y-73531976D01*
X55753000Y-76835000D02*
X55753000Y-74676000D01*
X84375180Y-74930000D02*
X85725000Y-74930000D01*
D24*
X74930000Y-87507500D02*
X74930000Y-85907500D01*
X63627000Y-78740000D02*
X62640100Y-78740000D01*
D27*
X83409990Y-101189990D02*
X82976999Y-100756999D01*
X82976999Y-100756999D02*
X82677000Y-100457000D01*
D24*
X83185000Y-100965000D02*
X83185000Y-100964992D01*
D27*
X83438992Y-102854040D02*
X83484999Y-102808033D01*
X83484999Y-102808033D02*
X83484999Y-101264991D01*
D24*
X83409990Y-101189990D02*
X83185000Y-100965000D01*
D27*
X83484999Y-101264991D02*
X83185000Y-100964992D01*
X83439000Y-102997000D02*
X83439000Y-103632000D01*
D23*
X67056000Y-103139000D02*
X67056000Y-102064000D01*
X67056000Y-102064000D02*
X68834000Y-100286000D01*
X68834000Y-100286000D02*
X69596000Y-99524000D01*
X55753000Y-72771000D02*
X56007000Y-72517000D01*
X56007000Y-72517000D02*
X77934736Y-72517000D01*
X71037000Y-99524000D02*
X76708000Y-93853000D01*
X69596000Y-99524000D02*
X71037000Y-99524000D01*
X76708000Y-93853000D02*
X76708000Y-79501994D01*
X76708000Y-79501994D02*
X78948001Y-77261993D01*
X78948001Y-77261993D02*
X79248000Y-76961994D01*
X92837000Y-88646000D02*
X92837000Y-91904736D01*
X92837000Y-91904736D02*
X92837000Y-92329000D01*
X93218000Y-88265000D02*
X92837000Y-88646000D01*
X67056000Y-109474000D02*
X67056000Y-108189000D01*
X67310000Y-109728000D02*
X67056000Y-109474000D01*
X56520101Y-73025000D02*
X55650084Y-73895017D01*
X55650084Y-73895017D02*
X55350085Y-74195016D01*
X81026000Y-73025000D02*
X56520101Y-73025000D01*
X71223400Y-99974011D02*
X77158011Y-94039400D01*
X70207400Y-99974011D02*
X71223400Y-99974011D01*
X68326000Y-105094000D02*
X68326000Y-101855411D01*
X68326000Y-101855411D02*
X70207400Y-99974011D01*
X67056000Y-108189000D02*
X67056000Y-106364000D01*
X67056000Y-106364000D02*
X68326000Y-105094000D01*
X77158011Y-94039400D02*
X77158011Y-80403598D01*
X77158011Y-80403598D02*
X79761004Y-77800605D01*
X79761004Y-77800605D02*
X80061003Y-77500606D01*
X92710000Y-87503000D02*
X92202000Y-88011000D01*
X92202000Y-88011000D02*
X92202000Y-90805000D01*
D25*
X61976000Y-106214000D02*
X63246000Y-104944000D01*
X61976000Y-108189000D02*
X61976000Y-106214000D01*
X63246000Y-104944000D02*
X63246000Y-100552352D01*
X63246000Y-100552352D02*
X63881000Y-99917352D01*
X63881000Y-99917352D02*
X64484352Y-99314000D01*
X72771000Y-91821000D02*
X73533000Y-91821000D01*
X64484352Y-99314000D02*
X71215352Y-92583000D01*
X71215352Y-92583000D02*
X72346722Y-92583000D01*
X72346722Y-92583000D02*
X72770986Y-92583000D01*
X72771000Y-91821000D02*
X72771000Y-92582986D01*
X72771000Y-92582986D02*
X72770986Y-92583000D01*
X72770986Y-92583000D02*
X73533000Y-92583000D01*
X73533000Y-92583000D02*
X73533000Y-91821000D01*
X72644000Y-90551000D02*
X72042000Y-90551000D01*
X72771000Y-91821000D02*
X72771000Y-90678000D01*
X72771000Y-90678000D02*
X72644000Y-90551000D01*
D24*
X59817000Y-94557944D02*
X64484352Y-99225296D01*
X64484352Y-99225296D02*
X64484352Y-99314000D01*
D23*
X64688999Y-91993999D02*
X64389000Y-91694000D01*
X64897000Y-92202000D02*
X64688999Y-91993999D01*
X64897000Y-96012000D02*
X64897000Y-92202000D01*
X83534250Y-93980000D02*
X83185000Y-93980000D01*
X92456000Y-108189000D02*
X92456000Y-107114000D01*
X83534250Y-93980000D02*
X86201250Y-91313000D01*
X86201250Y-91313000D02*
X86201250Y-88931750D01*
X86201250Y-88931750D02*
X86674942Y-88458058D01*
D24*
X92456000Y-107696000D02*
X91948000Y-107188000D01*
X92456000Y-108189000D02*
X92456000Y-107696000D01*
D23*
X96520000Y-104394000D02*
X96520000Y-97071264D01*
X96520000Y-97071264D02*
X96520000Y-96647000D01*
X95250000Y-105664000D02*
X96520000Y-104394000D01*
D26*
X91948000Y-107188000D02*
X91694000Y-107188000D01*
X91059000Y-107188000D02*
X91694000Y-107188000D01*
D23*
X98075750Y-81280000D02*
X96901000Y-82454750D01*
X96901000Y-82454750D02*
X96901000Y-84836000D01*
X95561990Y-93597863D02*
X87376000Y-101783853D01*
X95561990Y-86175010D02*
X95561990Y-93597863D01*
X98425000Y-81280000D02*
X98075750Y-81280000D01*
X96901000Y-84836000D02*
X95561990Y-86175010D01*
X87376000Y-101783853D02*
X87376000Y-103139000D01*
X92456000Y-103139000D02*
X92568000Y-103139000D01*
X92456000Y-101981000D02*
X92456000Y-103139000D01*
X92456000Y-102064000D02*
X92456000Y-103139000D01*
X92456000Y-104140000D02*
X92456000Y-103505000D01*
X92710000Y-104394000D02*
X92456000Y-104140000D01*
D26*
X91313000Y-103632000D02*
X91430000Y-103632000D01*
X91430000Y-103632000D02*
X91821000Y-103241000D01*
X92354000Y-103241000D02*
X92456000Y-103139000D01*
X91821000Y-103241000D02*
X92354000Y-103241000D01*
D23*
X98425000Y-93980000D02*
X98075750Y-93980000D01*
X97075180Y-94980570D02*
X96088516Y-94980570D01*
X93980011Y-102318725D02*
X93980011Y-102742989D01*
X93980011Y-97089075D02*
X93980011Y-102318725D01*
X98075750Y-93980000D02*
X97075180Y-94980570D01*
X96088516Y-94980570D02*
X93980011Y-97089075D01*
X95714736Y-84455000D02*
X96139000Y-84455000D01*
X94364000Y-84455000D02*
X95714736Y-84455000D01*
X93233000Y-84836000D02*
X93983000Y-84836000D01*
X93983000Y-84836000D02*
X94364000Y-84455000D01*
X96012000Y-93784264D02*
X96012000Y-86487000D01*
X86810510Y-106172001D02*
X87110509Y-105872002D01*
X88322989Y-101473275D02*
X96012000Y-93784264D01*
X96012000Y-86487000D02*
X98425000Y-84074000D01*
X98425000Y-84074000D02*
X98425000Y-83820000D01*
X87385996Y-105872002D02*
X88322989Y-104935009D01*
X87110509Y-105872002D02*
X87385996Y-105872002D01*
X88322989Y-104935009D02*
X88322989Y-101473275D01*
D26*
X87376000Y-107188004D02*
X88092005Y-106471999D01*
X88467542Y-106172000D02*
X88392004Y-106172000D01*
X88915999Y-106620457D02*
X88467542Y-106172000D01*
X87376000Y-108189000D02*
X87376000Y-107188004D01*
X88092005Y-106471999D02*
X88392004Y-106172000D01*
X89916000Y-105156000D02*
X90297000Y-105156000D01*
D23*
X89724000Y-105156000D02*
X89662000Y-105156000D01*
D26*
X89916000Y-103139000D02*
X89916000Y-105156000D01*
X89662000Y-105156000D02*
X89916000Y-105156000D01*
D23*
X94605000Y-86233000D02*
X93233000Y-86233000D01*
X95494000Y-85344000D02*
X94605000Y-86233000D01*
X89205003Y-105336132D02*
X89205003Y-105760396D01*
X98075750Y-86360000D02*
X96520000Y-87915750D01*
X98425000Y-86360000D02*
X98075750Y-86360000D01*
X89205003Y-101227672D02*
X89205003Y-105336132D01*
X96520000Y-87915750D02*
X96520000Y-93912675D01*
X96520000Y-93912675D02*
X89205003Y-101227672D01*
X88945000Y-83775000D02*
X88900000Y-83820000D01*
X88945000Y-81090000D02*
X88945000Y-72581000D01*
X88900000Y-81135000D02*
X88945000Y-81090000D01*
X88900000Y-83820000D02*
X88900000Y-81135000D01*
X88900000Y-72536000D02*
X88945000Y-72581000D01*
X88900000Y-71628000D02*
X88900000Y-72536000D01*
X77089000Y-71882000D02*
X77216000Y-71755000D01*
X77216000Y-71755000D02*
X78613000Y-71755000D01*
X78613000Y-71755000D02*
X79121000Y-72263000D01*
X79121000Y-72263000D02*
X84201000Y-72263000D01*
X84201000Y-72263000D02*
X84881999Y-71582001D01*
X84963000Y-71628000D02*
X85090000Y-71628000D01*
X84917001Y-71582001D02*
X84963000Y-71628000D01*
X84881999Y-71582001D02*
X84917001Y-71582001D01*
X98774250Y-88900000D02*
X98425000Y-88900000D01*
X99849830Y-89975580D02*
X98774250Y-88900000D01*
X99849830Y-94425519D02*
X99849830Y-89975580D01*
X98844769Y-95430580D02*
X99849830Y-94425519D01*
X96811418Y-95430580D02*
X98844769Y-95430580D01*
X89916000Y-107114000D02*
X91874000Y-105156000D01*
X89916000Y-108189000D02*
X89916000Y-107114000D01*
X91874000Y-105156000D02*
X93134264Y-105156000D01*
X93134264Y-105156000D02*
X95376997Y-102913267D01*
X95376997Y-102913267D02*
X95376997Y-96865001D01*
X95376997Y-96865001D02*
X96811418Y-95430580D01*
X92755000Y-72581000D02*
X92755000Y-81090000D01*
X81280000Y-89884250D02*
X82835750Y-91440000D01*
X81280000Y-88265000D02*
X81280000Y-89884250D01*
X81915000Y-87630000D02*
X81280000Y-88265000D01*
X85020990Y-86810010D02*
X84201000Y-87630000D01*
X89174575Y-86810010D02*
X85020990Y-86810010D01*
X92755000Y-81090000D02*
X92755000Y-82340000D01*
X92207589Y-82887411D02*
X90975589Y-82887411D01*
X82835750Y-91440000D02*
X83185000Y-91440000D01*
X90975589Y-82887411D02*
X90493010Y-83369990D01*
X90493010Y-83369990D02*
X90493010Y-85491576D01*
X84201000Y-87630000D02*
X81915000Y-87630000D01*
X90493010Y-85491576D02*
X89174575Y-86810010D01*
X91933000Y-84836000D02*
X91933000Y-83977421D01*
X91933000Y-83977421D02*
X91948000Y-83962421D01*
X92755000Y-82340000D02*
X92456000Y-82639000D01*
X92456000Y-82639000D02*
X92207589Y-82887411D01*
X72136000Y-103139000D02*
X72136000Y-100970643D01*
X79710001Y-86278999D02*
X80010000Y-85979000D01*
X72136000Y-100970643D02*
X78508044Y-94598600D01*
X78508044Y-94598600D02*
X78508044Y-94217599D01*
X78508044Y-94217599D02*
X79710001Y-93015642D01*
X79710001Y-93015642D02*
X79710001Y-86278999D01*
X94025000Y-79840000D02*
X94025000Y-72581000D01*
X94025000Y-81090000D02*
X94025000Y-79840000D01*
X84534820Y-88900000D02*
X84836000Y-88598820D01*
X83185000Y-88900000D02*
X84534820Y-88900000D01*
X84836000Y-88011000D02*
X85586980Y-87260020D01*
X84836000Y-88598820D02*
X84836000Y-88011000D01*
X89360986Y-87260020D02*
X90515006Y-86106000D01*
X85586980Y-87260020D02*
X89360986Y-87260020D01*
X90515006Y-86106000D02*
X90515006Y-86105990D01*
X90943020Y-85677986D02*
X90515006Y-86106000D01*
X90943020Y-83556390D02*
X90943020Y-85677986D01*
X91161989Y-83337421D02*
X90943020Y-83556390D01*
X93027579Y-83337421D02*
X91161989Y-83337421D01*
X94025000Y-82340000D02*
X93027579Y-83337421D01*
X94025000Y-81090000D02*
X94025000Y-82340000D01*
X91933000Y-86233000D02*
X91821000Y-86233000D01*
X91265986Y-85677986D02*
X90943020Y-85677986D01*
X91821000Y-86233000D02*
X91265986Y-85677986D01*
X72136000Y-108189000D02*
X72136000Y-106364000D01*
X78958055Y-94785000D02*
X78958055Y-94403998D01*
X73406000Y-105094000D02*
X73406000Y-100337055D01*
X73406000Y-100337055D02*
X78958055Y-94785000D01*
X80218001Y-93144052D02*
X80218001Y-86786997D01*
X80218001Y-86786997D02*
X80472001Y-86532997D01*
X72136000Y-106364000D02*
X73406000Y-105094000D01*
X78958055Y-94403998D02*
X80218001Y-93144052D01*
X80472001Y-86532997D02*
X80772000Y-86232998D01*
X91485000Y-81090000D02*
X91485000Y-72581000D01*
X74676000Y-103139000D02*
X74676000Y-102064000D01*
X83185000Y-86360000D02*
X88900000Y-86360000D01*
X88900000Y-86360000D02*
X90043000Y-85217000D01*
X90043000Y-85217000D02*
X90043000Y-83059410D01*
X90043000Y-83059410D02*
X90665009Y-82437401D01*
X91485000Y-82340000D02*
X91485000Y-81090000D01*
X90665009Y-82437401D02*
X91387599Y-82437401D01*
X91387599Y-82437401D02*
X91485000Y-82340000D01*
X81835180Y-86360000D02*
X80772000Y-87423180D01*
X74676000Y-101314000D02*
X74676000Y-103139000D01*
X74676000Y-99703463D02*
X74676000Y-101314000D01*
X80772000Y-93345000D02*
X79408066Y-94708934D01*
X83185000Y-86360000D02*
X81835180Y-86360000D01*
X80772000Y-87423180D02*
X80772000Y-93345000D01*
X79408066Y-94708934D02*
X79408066Y-94971400D01*
X79408066Y-94971400D02*
X79144454Y-95235011D01*
X79144454Y-95235011D02*
X74676000Y-99703463D01*
X62642693Y-80659509D02*
X62642693Y-82691509D01*
X67691000Y-76073000D02*
X67691000Y-75184000D01*
X62642693Y-80659509D02*
X63104491Y-80659509D01*
X63104491Y-80659509D02*
X67691000Y-76073000D01*
D25*
X58674000Y-93562934D02*
X62447934Y-89789000D01*
X58674000Y-94996000D02*
X58674000Y-93562934D01*
X61976000Y-103139000D02*
X61976000Y-98298000D01*
X61976000Y-98298000D02*
X58674000Y-94996000D01*
X62447934Y-89789000D02*
X63119000Y-89789000D01*
X63119000Y-89789000D02*
X63881000Y-89789000D01*
X63881000Y-89027004D02*
X63880996Y-89027000D01*
X63881000Y-89789000D02*
X63881000Y-89027004D01*
X63119000Y-89789000D02*
X63119000Y-89027000D01*
X63119000Y-89027000D02*
X63880996Y-89027000D01*
D23*
X77216000Y-108189000D02*
X77216000Y-106364000D01*
X78486000Y-105094000D02*
X78486000Y-97917000D01*
X78486000Y-97917000D02*
X80407021Y-95995979D01*
X88243607Y-95995979D02*
X89535592Y-94703994D01*
X80407021Y-95995979D02*
X88243607Y-95995979D01*
X89535592Y-93345594D02*
X88564999Y-92375001D01*
X89535592Y-94703994D02*
X89535592Y-93345594D01*
X77216000Y-106364000D02*
X78486000Y-105094000D01*
X88564999Y-92375001D02*
X88265000Y-92075002D01*
X79756000Y-103139000D02*
X79756000Y-97409000D01*
X88415008Y-96460988D02*
X89071997Y-95803999D01*
X89071997Y-95803999D02*
X89362001Y-95803999D01*
X89362001Y-95803999D02*
X89662000Y-95504000D01*
X79756000Y-97409000D02*
X80704012Y-96460988D01*
X80704012Y-96460988D02*
X88415008Y-96460988D01*
X88648737Y-96982001D02*
X88729738Y-96901000D01*
X80645000Y-97663000D02*
X81325999Y-96982001D01*
X81325999Y-96982001D02*
X88648737Y-96982001D01*
X79756000Y-108189000D02*
X79756000Y-106364000D01*
X80645000Y-105475000D02*
X80645000Y-97663000D01*
X79756000Y-106364000D02*
X80645000Y-105475000D01*
X88729738Y-96901000D02*
X89154002Y-96901000D01*
X90215000Y-72581000D02*
X90215000Y-81090000D01*
X56778000Y-84709000D02*
X55753000Y-84709000D01*
X74802994Y-81915000D02*
X74803000Y-81915006D01*
X66548000Y-81915000D02*
X74802994Y-81915000D01*
X80091001Y-94914999D02*
X80091001Y-94924872D01*
X80091001Y-94924872D02*
X75946000Y-99069873D01*
X75946000Y-99069873D02*
X75946000Y-105094000D01*
X75946000Y-105094000D02*
X74676000Y-106364000D01*
X74676000Y-106364000D02*
X74676000Y-108189000D01*
X80391000Y-94615000D02*
X80091001Y-94914999D01*
X85286009Y-88703991D02*
X86233000Y-87757000D01*
X86233000Y-87757000D02*
X89789008Y-87757000D01*
X85286009Y-91497991D02*
X85286009Y-88703991D01*
X90215000Y-82251000D02*
X89535000Y-82931000D01*
X89789008Y-87757000D02*
X89999556Y-87546452D01*
X89999556Y-87546452D02*
X90299555Y-87246453D01*
X84074000Y-92710000D02*
X85286009Y-91497991D01*
X88956759Y-85303660D02*
X88656760Y-85603659D01*
X82296000Y-92710000D02*
X84074000Y-92710000D01*
X89535000Y-84725419D02*
X88956759Y-85303660D01*
X80391000Y-94615000D02*
X82296000Y-92710000D01*
X89535000Y-82931000D02*
X89535000Y-84725419D01*
X90215000Y-81090000D02*
X90215000Y-82251000D01*
X62057001Y-74594999D02*
X62357000Y-74295000D01*
X61976000Y-74676000D02*
X62057001Y-74594999D01*
X60570000Y-74676000D02*
X61976000Y-74676000D01*
D28*
G36*
X81682012Y-71120000D02*
X81769835Y-71561516D01*
X81900453Y-71757000D01*
X79330592Y-71757000D01*
X79006038Y-71432447D01*
X78977806Y-71390194D01*
X78810431Y-71278359D01*
X78662835Y-71249000D01*
X78662834Y-71249000D01*
X78613000Y-71239087D01*
X78563166Y-71249000D01*
X77340342Y-71249000D01*
X77224459Y-71201000D01*
X76953541Y-71201000D01*
X76703244Y-71304676D01*
X76511676Y-71496244D01*
X76408000Y-71746541D01*
X76408000Y-72011000D01*
X56056833Y-72011000D01*
X56006999Y-72001087D01*
X55957165Y-72011000D01*
X55809569Y-72040359D01*
X55735275Y-72090000D01*
X55617541Y-72090000D01*
X55367244Y-72193676D01*
X55175676Y-72385244D01*
X55072000Y-72635541D01*
X55072000Y-72906459D01*
X55175676Y-73156756D01*
X55367244Y-73348324D01*
X55447813Y-73381697D01*
X55315494Y-73514016D01*
X55214626Y-73514016D01*
X54964329Y-73617692D01*
X54772761Y-73809260D01*
X54669085Y-74059557D01*
X54669085Y-74330475D01*
X54772761Y-74580772D01*
X54964329Y-74772340D01*
X55214626Y-74876016D01*
X55247001Y-74876016D01*
X55247000Y-76377920D01*
X55175676Y-76449244D01*
X55072000Y-76699541D01*
X55072000Y-76970459D01*
X55175676Y-77220756D01*
X55367244Y-77412324D01*
X55617541Y-77516000D01*
X55829536Y-77516000D01*
X55829536Y-77535000D01*
X55859106Y-77683659D01*
X55923990Y-77780765D01*
X55850106Y-77891341D01*
X55820536Y-78040000D01*
X55820536Y-78059000D01*
X55617541Y-78059000D01*
X55367244Y-78162676D01*
X55175676Y-78354244D01*
X55072000Y-78604541D01*
X55072000Y-78875459D01*
X55175676Y-79125756D01*
X55367244Y-79317324D01*
X55617541Y-79421000D01*
X55820536Y-79421000D01*
X55820536Y-79440000D01*
X55850106Y-79588659D01*
X55923990Y-79699235D01*
X55859106Y-79796341D01*
X55829536Y-79945000D01*
X55829536Y-79964000D01*
X55617541Y-79964000D01*
X55367244Y-80067676D01*
X55175676Y-80259244D01*
X55072000Y-80509541D01*
X55072000Y-80780459D01*
X55175676Y-81030756D01*
X55367244Y-81222324D01*
X55617541Y-81326000D01*
X55829536Y-81326000D01*
X55829536Y-81345000D01*
X55859106Y-81493659D01*
X55943314Y-81619686D01*
X56005145Y-81661000D01*
X55943314Y-81702314D01*
X55859106Y-81828341D01*
X55829536Y-81977000D01*
X55829536Y-81996000D01*
X55617541Y-81996000D01*
X55367244Y-82099676D01*
X55175676Y-82291244D01*
X55072000Y-82541541D01*
X55072000Y-82812459D01*
X55175676Y-83062756D01*
X55367244Y-83254324D01*
X55617541Y-83358000D01*
X55829536Y-83358000D01*
X55829536Y-83377000D01*
X55859106Y-83525659D01*
X55943314Y-83651686D01*
X56005145Y-83693000D01*
X55943314Y-83734314D01*
X55859106Y-83860341D01*
X55829536Y-84009000D01*
X55829536Y-84028000D01*
X55617541Y-84028000D01*
X55367244Y-84131676D01*
X55175676Y-84323244D01*
X55072000Y-84573541D01*
X55072000Y-84844459D01*
X55175676Y-85094756D01*
X55367244Y-85286324D01*
X55617541Y-85390000D01*
X55829536Y-85390000D01*
X55829536Y-85409000D01*
X55859106Y-85557659D01*
X55943314Y-85683686D01*
X56069341Y-85767894D01*
X56218000Y-85797464D01*
X57338000Y-85797464D01*
X57486659Y-85767894D01*
X57612686Y-85683686D01*
X57653862Y-85622062D01*
X57655004Y-85624819D01*
X57762180Y-85731996D01*
X57902214Y-85790000D01*
X58315750Y-85790000D01*
X58411000Y-85694750D01*
X58411000Y-84836000D01*
X58665000Y-84836000D01*
X58665000Y-85694750D01*
X58760250Y-85790000D01*
X59173786Y-85790000D01*
X59313820Y-85731996D01*
X59420996Y-85624819D01*
X59479000Y-85484785D01*
X59479000Y-84931250D01*
X59383750Y-84836000D01*
X58665000Y-84836000D01*
X58411000Y-84836000D01*
X58391000Y-84836000D01*
X58391000Y-84582000D01*
X58411000Y-84582000D01*
X58411000Y-84562000D01*
X58665000Y-84562000D01*
X58665000Y-84582000D01*
X59383750Y-84582000D01*
X59479000Y-84486750D01*
X59479000Y-83933215D01*
X59420996Y-83793181D01*
X59316826Y-83689010D01*
X59372686Y-83651686D01*
X59456894Y-83525659D01*
X59486464Y-83377000D01*
X59486464Y-83329802D01*
X59554541Y-83358000D01*
X59825459Y-83358000D01*
X59941693Y-83309854D01*
X59941693Y-83467294D01*
X59999697Y-83607328D01*
X60095169Y-83702801D01*
X60048007Y-83734314D01*
X59963799Y-83860341D01*
X59934229Y-84009000D01*
X59934229Y-85409000D01*
X59963799Y-85557659D01*
X60048007Y-85683686D01*
X60152000Y-85753171D01*
X60152000Y-85860459D01*
X60255676Y-86110756D01*
X60447244Y-86302324D01*
X60697541Y-86406000D01*
X60968459Y-86406000D01*
X61218756Y-86302324D01*
X61410324Y-86110756D01*
X61514000Y-85860459D01*
X61514000Y-85783280D01*
X61591352Y-85767894D01*
X61717379Y-85683686D01*
X61762693Y-85615868D01*
X61808007Y-85683686D01*
X61934034Y-85767894D01*
X62082693Y-85797464D01*
X63202693Y-85797464D01*
X63330503Y-85772041D01*
X74249000Y-85772041D01*
X74249000Y-86042959D01*
X74349001Y-86284383D01*
X74349000Y-87130618D01*
X74249000Y-87372041D01*
X74249000Y-87642959D01*
X74352676Y-87893256D01*
X74544244Y-88084824D01*
X74794541Y-88188500D01*
X75065459Y-88188500D01*
X75315756Y-88084824D01*
X75507324Y-87893256D01*
X75611000Y-87642959D01*
X75611000Y-87372041D01*
X75511000Y-87130619D01*
X75511000Y-86284381D01*
X75611000Y-86042959D01*
X75611000Y-85772041D01*
X75507324Y-85521744D01*
X75315756Y-85330176D01*
X75065459Y-85226500D01*
X74794541Y-85226500D01*
X74544244Y-85330176D01*
X74352676Y-85521744D01*
X74249000Y-85772041D01*
X63330503Y-85772041D01*
X63351352Y-85767894D01*
X63477379Y-85683686D01*
X63561587Y-85557659D01*
X63591157Y-85409000D01*
X63591157Y-84336128D01*
X64076555Y-83850730D01*
X64118806Y-83822499D01*
X64230641Y-83655124D01*
X64260000Y-83507528D01*
X64269913Y-83457694D01*
X64260000Y-83407860D01*
X64260000Y-81108591D01*
X67979592Y-77389000D01*
X68207459Y-77389000D01*
X68457756Y-77285324D01*
X68649324Y-77093756D01*
X68753000Y-76843459D01*
X68753000Y-76572541D01*
X68649324Y-76322244D01*
X68457756Y-76130676D01*
X68207459Y-76027000D01*
X68197763Y-76027000D01*
X68197000Y-76023167D01*
X68197000Y-75641080D01*
X68268324Y-75569756D01*
X68372000Y-75319459D01*
X68372000Y-75048541D01*
X68326212Y-74937998D01*
X77778407Y-74937998D01*
X79121403Y-76280994D01*
X79112541Y-76280994D01*
X78862244Y-76384670D01*
X78670676Y-76576238D01*
X78567000Y-76826535D01*
X78567000Y-76927402D01*
X76385445Y-79108957D01*
X76343195Y-79137188D01*
X76253704Y-79271123D01*
X76231360Y-79304563D01*
X76192087Y-79501994D01*
X76202001Y-79551833D01*
X76202001Y-79964000D01*
X75937541Y-79964000D01*
X75687244Y-80067676D01*
X75615920Y-80139000D01*
X67005080Y-80139000D01*
X66933756Y-80067676D01*
X66683459Y-79964000D01*
X66412541Y-79964000D01*
X66162244Y-80067676D01*
X65970676Y-80259244D01*
X65867000Y-80509541D01*
X65867000Y-80614550D01*
X65654244Y-80702676D01*
X65462676Y-80894244D01*
X65359000Y-81144541D01*
X65359000Y-81415459D01*
X65462676Y-81665756D01*
X65654244Y-81857324D01*
X65867000Y-81945450D01*
X65867000Y-82050459D01*
X65970676Y-82300756D01*
X66162244Y-82492324D01*
X66412541Y-82596000D01*
X66683459Y-82596000D01*
X66933756Y-82492324D01*
X67005080Y-82421000D01*
X74345914Y-82421000D01*
X74417244Y-82492330D01*
X74667541Y-82596006D01*
X74938459Y-82596006D01*
X75188756Y-82492330D01*
X75380324Y-82300762D01*
X75484000Y-82050465D01*
X75484000Y-81962474D01*
X75583449Y-81962474D01*
X75833746Y-81858798D01*
X76025314Y-81667230D01*
X76128990Y-81416933D01*
X76128990Y-81326000D01*
X76202001Y-81326000D01*
X76202000Y-93643408D01*
X70827409Y-99018000D01*
X69645835Y-99018000D01*
X69596000Y-99008087D01*
X69398568Y-99047359D01*
X69364874Y-99069873D01*
X69231194Y-99159194D01*
X69202963Y-99201445D01*
X68511445Y-99892964D01*
X68511442Y-99892966D01*
X67228873Y-101175536D01*
X66556000Y-101175536D01*
X66407341Y-101205106D01*
X66281314Y-101289314D01*
X66197106Y-101415341D01*
X66167536Y-101564000D01*
X66167536Y-104714000D01*
X66197106Y-104862659D01*
X66281314Y-104988686D01*
X66407341Y-105072894D01*
X66556000Y-105102464D01*
X67556000Y-105102464D01*
X67613352Y-105091056D01*
X66733445Y-105970964D01*
X66691195Y-105999194D01*
X66644263Y-106069434D01*
X66579360Y-106166569D01*
X66567630Y-106225536D01*
X66556000Y-106225536D01*
X66407341Y-106255106D01*
X66281314Y-106339314D01*
X66197106Y-106465341D01*
X66167536Y-106614000D01*
X66167536Y-109764000D01*
X66197106Y-109912659D01*
X66281314Y-110038686D01*
X66407341Y-110122894D01*
X66556000Y-110152464D01*
X67034481Y-110152464D01*
X67112568Y-110204640D01*
X67309999Y-110243913D01*
X67507431Y-110204640D01*
X67598031Y-110144104D01*
X67704659Y-110122894D01*
X67830686Y-110038686D01*
X67914894Y-109912659D01*
X67944464Y-109764000D01*
X67944464Y-106614000D01*
X67914894Y-106465341D01*
X67830686Y-106339314D01*
X67810059Y-106325532D01*
X68648556Y-105487036D01*
X68690806Y-105458806D01*
X68802641Y-105291431D01*
X68832000Y-105143835D01*
X68832000Y-105143834D01*
X68841913Y-105094001D01*
X68832000Y-105044167D01*
X68832000Y-104995826D01*
X68947341Y-105072894D01*
X69096000Y-105102464D01*
X70096000Y-105102464D01*
X70153353Y-105091056D01*
X69273445Y-105970963D01*
X69231195Y-105999194D01*
X69184263Y-106069434D01*
X69119360Y-106166569D01*
X69107630Y-106225536D01*
X69096000Y-106225536D01*
X68947341Y-106255106D01*
X68821314Y-106339314D01*
X68737106Y-106465341D01*
X68707536Y-106614000D01*
X68707536Y-109764000D01*
X68737106Y-109912659D01*
X68821314Y-110038686D01*
X68947341Y-110122894D01*
X69096000Y-110152464D01*
X70096000Y-110152464D01*
X70244659Y-110122894D01*
X70370686Y-110038686D01*
X70454894Y-109912659D01*
X70484464Y-109764000D01*
X70484464Y-106614000D01*
X70454894Y-106465341D01*
X70370686Y-106339314D01*
X70350059Y-106325532D01*
X71537756Y-105137836D01*
X71580006Y-105109606D01*
X71590787Y-105093471D01*
X71636000Y-105102464D01*
X72636000Y-105102464D01*
X72693352Y-105091056D01*
X71813445Y-105970964D01*
X71771195Y-105999194D01*
X71724263Y-106069434D01*
X71659360Y-106166569D01*
X71647630Y-106225536D01*
X71636000Y-106225536D01*
X71487341Y-106255106D01*
X71361314Y-106339314D01*
X71277106Y-106465341D01*
X71247536Y-106614000D01*
X71247536Y-109764000D01*
X71277106Y-109912659D01*
X71361314Y-110038686D01*
X71487341Y-110122894D01*
X71636000Y-110152464D01*
X72636000Y-110152464D01*
X72784659Y-110122894D01*
X72910686Y-110038686D01*
X72994894Y-109912659D01*
X73024464Y-109764000D01*
X73024464Y-106614000D01*
X72994894Y-106465341D01*
X72910686Y-106339314D01*
X72890059Y-106325532D01*
X73728556Y-105487036D01*
X73770806Y-105458806D01*
X73882641Y-105291431D01*
X73912000Y-105143835D01*
X73912000Y-105143834D01*
X73921913Y-105094001D01*
X73912000Y-105044167D01*
X73912000Y-104995826D01*
X74027341Y-105072894D01*
X74176000Y-105102464D01*
X75176000Y-105102464D01*
X75233352Y-105091056D01*
X74353447Y-105970962D01*
X74311194Y-105999194D01*
X74199359Y-106166570D01*
X74187630Y-106225536D01*
X74176000Y-106225536D01*
X74027341Y-106255106D01*
X73901314Y-106339314D01*
X73817106Y-106465341D01*
X73787536Y-106614000D01*
X73787536Y-109764000D01*
X73817106Y-109912659D01*
X73901314Y-110038686D01*
X74027341Y-110122894D01*
X74176000Y-110152464D01*
X75176000Y-110152464D01*
X75324659Y-110122894D01*
X75450686Y-110038686D01*
X75534894Y-109912659D01*
X75564464Y-109764000D01*
X75564464Y-106614000D01*
X75534894Y-106465341D01*
X75450686Y-106339314D01*
X75430059Y-106325532D01*
X76268555Y-105487037D01*
X76310806Y-105458806D01*
X76422641Y-105291431D01*
X76452000Y-105143835D01*
X76452000Y-105143834D01*
X76461913Y-105094001D01*
X76452000Y-105044167D01*
X76452000Y-104995826D01*
X76567341Y-105072894D01*
X76716000Y-105102464D01*
X77716000Y-105102464D01*
X77773352Y-105091056D01*
X76893445Y-105970964D01*
X76851195Y-105999194D01*
X76804263Y-106069434D01*
X76739360Y-106166569D01*
X76727630Y-106225536D01*
X76716000Y-106225536D01*
X76567341Y-106255106D01*
X76441314Y-106339314D01*
X76357106Y-106465341D01*
X76327536Y-106614000D01*
X76327536Y-109764000D01*
X76357106Y-109912659D01*
X76441314Y-110038686D01*
X76567341Y-110122894D01*
X76716000Y-110152464D01*
X77716000Y-110152464D01*
X77864659Y-110122894D01*
X77990686Y-110038686D01*
X78074894Y-109912659D01*
X78104464Y-109764000D01*
X78104464Y-106614000D01*
X78074894Y-106465341D01*
X77990686Y-106339314D01*
X77970059Y-106325532D01*
X78808556Y-105487036D01*
X78850806Y-105458806D01*
X78962641Y-105291431D01*
X78992000Y-105143835D01*
X78992000Y-105143834D01*
X79001913Y-105094001D01*
X78992000Y-105044167D01*
X78992000Y-104995826D01*
X79107341Y-105072894D01*
X79256000Y-105102464D01*
X80139000Y-105102464D01*
X80139000Y-105265408D01*
X79433445Y-105970964D01*
X79391195Y-105999194D01*
X79344263Y-106069434D01*
X79279360Y-106166569D01*
X79267630Y-106225536D01*
X79256000Y-106225536D01*
X79107341Y-106255106D01*
X78981314Y-106339314D01*
X78897106Y-106465341D01*
X78867536Y-106614000D01*
X78867536Y-109764000D01*
X78897106Y-109912659D01*
X78981314Y-110038686D01*
X79107341Y-110122894D01*
X79256000Y-110152464D01*
X80256000Y-110152464D01*
X80404659Y-110122894D01*
X80530686Y-110038686D01*
X80614894Y-109912659D01*
X80644464Y-109764000D01*
X80644464Y-108411250D01*
X81415000Y-108411250D01*
X81415000Y-109839786D01*
X81473004Y-109979820D01*
X81580181Y-110086996D01*
X81720215Y-110145000D01*
X82073750Y-110145000D01*
X82169000Y-110049750D01*
X82169000Y-108316000D01*
X82423000Y-108316000D01*
X82423000Y-110049750D01*
X82518250Y-110145000D01*
X82871785Y-110145000D01*
X83011819Y-110086996D01*
X83118996Y-109979820D01*
X83177000Y-109839786D01*
X83177000Y-108411250D01*
X83081750Y-108316000D01*
X82423000Y-108316000D01*
X82169000Y-108316000D01*
X81510250Y-108316000D01*
X81415000Y-108411250D01*
X80644464Y-108411250D01*
X80644464Y-106614000D01*
X80629390Y-106538214D01*
X81415000Y-106538214D01*
X81415000Y-107966750D01*
X81510250Y-108062000D01*
X82169000Y-108062000D01*
X82169000Y-106328250D01*
X82423000Y-106328250D01*
X82423000Y-108062000D01*
X83081750Y-108062000D01*
X83177000Y-107966750D01*
X83177000Y-106538214D01*
X83118996Y-106398180D01*
X83011819Y-106291004D01*
X82871785Y-106233000D01*
X82518250Y-106233000D01*
X82423000Y-106328250D01*
X82169000Y-106328250D01*
X82073750Y-106233000D01*
X81720215Y-106233000D01*
X81580181Y-106291004D01*
X81473004Y-106398180D01*
X81415000Y-106538214D01*
X80629390Y-106538214D01*
X80614894Y-106465341D01*
X80530686Y-106339314D01*
X80510060Y-106325532D01*
X80967556Y-105868036D01*
X81009806Y-105839806D01*
X81121641Y-105672431D01*
X81151000Y-105524835D01*
X81151000Y-105524834D01*
X81160913Y-105475000D01*
X81151000Y-105425166D01*
X81151000Y-103361250D01*
X81415000Y-103361250D01*
X81415000Y-104789786D01*
X81473004Y-104929820D01*
X81580181Y-105036996D01*
X81720215Y-105095000D01*
X82073750Y-105095000D01*
X82169000Y-104999750D01*
X82169000Y-103266000D01*
X81510250Y-103266000D01*
X81415000Y-103361250D01*
X81151000Y-103361250D01*
X81151000Y-101488214D01*
X81415000Y-101488214D01*
X81415000Y-102916750D01*
X81510250Y-103012000D01*
X82169000Y-103012000D01*
X82169000Y-101278250D01*
X82073750Y-101183000D01*
X81720215Y-101183000D01*
X81580181Y-101241004D01*
X81473004Y-101348180D01*
X81415000Y-101488214D01*
X81151000Y-101488214D01*
X81151000Y-97872591D01*
X81535591Y-97488001D01*
X84298378Y-97488001D01*
X84282000Y-97527541D01*
X84282000Y-97798459D01*
X84330001Y-97914344D01*
X84330000Y-101176729D01*
X84266264Y-101189407D01*
X84242792Y-101071404D01*
X84220684Y-100960260D01*
X84048068Y-100701922D01*
X83982856Y-100658349D01*
X83682861Y-100358353D01*
X83682836Y-100358336D01*
X83474860Y-100150360D01*
X83474858Y-100150359D01*
X83174861Y-99850361D01*
X82981730Y-99721315D01*
X82677000Y-99660701D01*
X82372270Y-99721315D01*
X82113931Y-99893931D01*
X81941315Y-100152270D01*
X81880701Y-100457000D01*
X81941315Y-100761730D01*
X82070361Y-100954861D01*
X82370359Y-101254858D01*
X82370360Y-101254860D01*
X82423000Y-101307500D01*
X82423000Y-103012000D01*
X82443000Y-103012000D01*
X82443000Y-103266000D01*
X82423000Y-103266000D01*
X82423000Y-104999750D01*
X82518250Y-105095000D01*
X82871785Y-105095000D01*
X83011819Y-105036996D01*
X83118996Y-104929820D01*
X83177000Y-104789786D01*
X83177000Y-104376185D01*
X83439000Y-104428300D01*
X83743731Y-104367685D01*
X83947536Y-104231507D01*
X83947536Y-104714000D01*
X83977106Y-104862659D01*
X84061314Y-104988686D01*
X84187341Y-105072894D01*
X84336000Y-105102464D01*
X85336000Y-105102464D01*
X85484659Y-105072894D01*
X85610686Y-104988686D01*
X85646003Y-104935829D01*
X85646003Y-105891923D01*
X85618963Y-105864883D01*
X85580973Y-105808027D01*
X85524117Y-105770037D01*
X85475756Y-105721676D01*
X85412570Y-105695504D01*
X85355713Y-105657513D01*
X85288644Y-105644172D01*
X85225459Y-105618000D01*
X85157065Y-105618000D01*
X85090000Y-105604660D01*
X85022935Y-105618000D01*
X84522065Y-105618000D01*
X84455000Y-105604660D01*
X84387935Y-105618000D01*
X84319541Y-105618000D01*
X84256356Y-105644172D01*
X84189287Y-105657513D01*
X84132430Y-105695504D01*
X84069244Y-105721676D01*
X84020883Y-105770037D01*
X83964027Y-105808027D01*
X83926037Y-105864883D01*
X83877676Y-105913244D01*
X83851504Y-105976430D01*
X83813513Y-106033287D01*
X83800172Y-106100356D01*
X83774000Y-106163541D01*
X83774000Y-106231931D01*
X83760659Y-106299000D01*
X83774000Y-106366069D01*
X83774000Y-106434459D01*
X83800172Y-106497644D01*
X83813513Y-106564713D01*
X83851504Y-106621570D01*
X83877676Y-106684756D01*
X83926037Y-106733117D01*
X83947536Y-106765292D01*
X83947536Y-109764000D01*
X83977106Y-109912659D01*
X84061314Y-110038686D01*
X84187341Y-110122894D01*
X84336000Y-110152464D01*
X85336000Y-110152464D01*
X85423066Y-110135146D01*
X85466248Y-110178328D01*
X85716545Y-110282004D01*
X85987463Y-110282004D01*
X86237760Y-110178328D01*
X86429328Y-109986760D01*
X86498586Y-109819555D01*
X86517106Y-109912659D01*
X86601314Y-110038686D01*
X86727341Y-110122894D01*
X86876000Y-110152464D01*
X87876000Y-110152464D01*
X88024659Y-110122894D01*
X88150686Y-110038686D01*
X88234894Y-109912659D01*
X88264464Y-109764000D01*
X88264464Y-107262619D01*
X88429772Y-107097310D01*
X88530243Y-107197781D01*
X88593430Y-107223954D01*
X88650286Y-107261944D01*
X88717354Y-107275284D01*
X88780540Y-107301457D01*
X88848934Y-107301457D01*
X88915999Y-107314797D01*
X88983064Y-107301457D01*
X89027536Y-107301457D01*
X89027536Y-109764000D01*
X89057106Y-109912659D01*
X89141314Y-110038686D01*
X89267341Y-110122894D01*
X89416000Y-110152464D01*
X90416000Y-110152464D01*
X90564659Y-110122894D01*
X90690686Y-110038686D01*
X90774894Y-109912659D01*
X90804464Y-109764000D01*
X90804464Y-107831710D01*
X90860356Y-107842828D01*
X90923541Y-107869000D01*
X91567536Y-107869000D01*
X91567536Y-109764000D01*
X91597106Y-109912659D01*
X91681314Y-110038686D01*
X91807341Y-110122894D01*
X91956000Y-110152464D01*
X92956000Y-110152464D01*
X93104659Y-110122894D01*
X93230686Y-110038686D01*
X93314894Y-109912659D01*
X93344464Y-109764000D01*
X93344464Y-108190955D01*
X95174000Y-108190955D01*
X95174000Y-108979045D01*
X95475589Y-109707146D01*
X96032854Y-110264411D01*
X96760955Y-110566000D01*
X97549045Y-110566000D01*
X98277146Y-110264411D01*
X98834411Y-109707146D01*
X99136000Y-108979045D01*
X99136000Y-108190955D01*
X98834411Y-107462854D01*
X98277146Y-106905589D01*
X97549045Y-106604000D01*
X96760955Y-106604000D01*
X96032854Y-106905589D01*
X95475589Y-107462854D01*
X95174000Y-108190955D01*
X93344464Y-108190955D01*
X93344464Y-106614000D01*
X93314894Y-106465341D01*
X93230686Y-106339314D01*
X93104659Y-106255106D01*
X92956000Y-106225536D01*
X91956000Y-106225536D01*
X91807341Y-106255106D01*
X91681314Y-106339314D01*
X91597106Y-106465341D01*
X91588820Y-106507000D01*
X91238591Y-106507000D01*
X92083592Y-105662000D01*
X93084430Y-105662000D01*
X93134264Y-105671913D01*
X93184098Y-105662000D01*
X93184099Y-105662000D01*
X93331695Y-105632641D01*
X93499070Y-105520806D01*
X93527303Y-105478552D01*
X95699553Y-103306303D01*
X95741803Y-103278073D01*
X95853638Y-103110698D01*
X95882997Y-102963102D01*
X95882997Y-102963101D01*
X95892910Y-102913268D01*
X95882997Y-102863434D01*
X95882997Y-97074592D01*
X95937450Y-97020139D01*
X95942676Y-97032756D01*
X96014000Y-97104080D01*
X96014000Y-97121098D01*
X96014001Y-97121103D01*
X96014000Y-104184408D01*
X95215409Y-104983000D01*
X95114541Y-104983000D01*
X94864244Y-105086676D01*
X94672676Y-105278244D01*
X94569000Y-105528541D01*
X94569000Y-105799459D01*
X94672676Y-106049756D01*
X94864244Y-106241324D01*
X95114541Y-106345000D01*
X95385459Y-106345000D01*
X95635756Y-106241324D01*
X95827324Y-106049756D01*
X95931000Y-105799459D01*
X95931000Y-105698591D01*
X96842556Y-104787036D01*
X96884806Y-104758806D01*
X96996641Y-104591431D01*
X97026000Y-104443835D01*
X97026000Y-104443834D01*
X97035913Y-104394001D01*
X97026000Y-104344167D01*
X97026000Y-97104080D01*
X97097324Y-97032756D01*
X97201000Y-96782459D01*
X97201000Y-96511541D01*
X97097324Y-96261244D01*
X96905756Y-96069676D01*
X96893140Y-96064450D01*
X97021010Y-95936580D01*
X98794935Y-95936580D01*
X98844769Y-95946493D01*
X98894603Y-95936580D01*
X98894604Y-95936580D01*
X99042200Y-95907221D01*
X99209575Y-95795386D01*
X99237807Y-95753133D01*
X99874001Y-95116940D01*
X99874001Y-97723262D01*
X99489596Y-97338857D01*
X98963644Y-97121000D01*
X98394356Y-97121000D01*
X97868404Y-97338857D01*
X97465857Y-97741404D01*
X97248000Y-98267356D01*
X97248000Y-98836644D01*
X97465857Y-99362596D01*
X97806797Y-99703536D01*
X97679000Y-99703536D01*
X97530341Y-99733106D01*
X97404314Y-99817314D01*
X97320106Y-99943341D01*
X97290536Y-100092000D01*
X97290536Y-102092000D01*
X97320106Y-102240659D01*
X97404314Y-102366686D01*
X97530341Y-102450894D01*
X97679000Y-102480464D01*
X99679000Y-102480464D01*
X99827659Y-102450894D01*
X99874001Y-102419930D01*
X99874001Y-111304000D01*
X51256000Y-111304000D01*
X51256000Y-108190955D01*
X51994000Y-108190955D01*
X51994000Y-108979045D01*
X52295589Y-109707146D01*
X52852854Y-110264411D01*
X53580955Y-110566000D01*
X54369045Y-110566000D01*
X55097146Y-110264411D01*
X55654411Y-109707146D01*
X55956000Y-108979045D01*
X55956000Y-108411250D01*
X58555000Y-108411250D01*
X58555000Y-109839786D01*
X58613004Y-109979820D01*
X58720181Y-110086996D01*
X58860215Y-110145000D01*
X59213750Y-110145000D01*
X59309000Y-110049750D01*
X59309000Y-108316000D01*
X59563000Y-108316000D01*
X59563000Y-110049750D01*
X59658250Y-110145000D01*
X60011785Y-110145000D01*
X60151819Y-110086996D01*
X60258996Y-109979820D01*
X60317000Y-109839786D01*
X60317000Y-108411250D01*
X60221750Y-108316000D01*
X59563000Y-108316000D01*
X59309000Y-108316000D01*
X58650250Y-108316000D01*
X58555000Y-108411250D01*
X55956000Y-108411250D01*
X55956000Y-108190955D01*
X55654411Y-107462854D01*
X55097146Y-106905589D01*
X54369045Y-106604000D01*
X53580955Y-106604000D01*
X52852854Y-106905589D01*
X52295589Y-107462854D01*
X51994000Y-108190955D01*
X51256000Y-108190955D01*
X51256000Y-106538214D01*
X58555000Y-106538214D01*
X58555000Y-107966750D01*
X58650250Y-108062000D01*
X59309000Y-108062000D01*
X59309000Y-106328250D01*
X59563000Y-106328250D01*
X59563000Y-108062000D01*
X60221750Y-108062000D01*
X60317000Y-107966750D01*
X60317000Y-106538214D01*
X60258996Y-106398180D01*
X60151819Y-106291004D01*
X60011785Y-106233000D01*
X59658250Y-106233000D01*
X59563000Y-106328250D01*
X59309000Y-106328250D01*
X59213750Y-106233000D01*
X58860215Y-106233000D01*
X58720181Y-106291004D01*
X58613004Y-106398180D01*
X58555000Y-106538214D01*
X51256000Y-106538214D01*
X51256000Y-101071404D01*
X51959510Y-101071404D01*
X51959510Y-101620596D01*
X52169677Y-102127985D01*
X52558015Y-102516323D01*
X52798657Y-102616000D01*
X52558015Y-102715677D01*
X52169677Y-103104015D01*
X51959510Y-103611404D01*
X51959510Y-104160596D01*
X52169677Y-104667985D01*
X52558015Y-105056323D01*
X53065404Y-105266490D01*
X53614596Y-105266490D01*
X54121985Y-105056323D01*
X54510323Y-104667985D01*
X54720490Y-104160596D01*
X54720490Y-103611404D01*
X54616874Y-103361250D01*
X58555000Y-103361250D01*
X58555000Y-104789786D01*
X58613004Y-104929820D01*
X58720181Y-105036996D01*
X58860215Y-105095000D01*
X59213750Y-105095000D01*
X59309000Y-104999750D01*
X59309000Y-103266000D01*
X59563000Y-103266000D01*
X59563000Y-104999750D01*
X59658250Y-105095000D01*
X60011785Y-105095000D01*
X60151819Y-105036996D01*
X60258996Y-104929820D01*
X60317000Y-104789786D01*
X60317000Y-103361250D01*
X60221750Y-103266000D01*
X59563000Y-103266000D01*
X59309000Y-103266000D01*
X58650250Y-103266000D01*
X58555000Y-103361250D01*
X54616874Y-103361250D01*
X54510323Y-103104015D01*
X54121985Y-102715677D01*
X53881343Y-102616000D01*
X54121985Y-102516323D01*
X54510323Y-102127985D01*
X54720490Y-101620596D01*
X54720490Y-101488214D01*
X58555000Y-101488214D01*
X58555000Y-102916750D01*
X58650250Y-103012000D01*
X59309000Y-103012000D01*
X59309000Y-101278250D01*
X59563000Y-101278250D01*
X59563000Y-103012000D01*
X60221750Y-103012000D01*
X60317000Y-102916750D01*
X60317000Y-101488214D01*
X60258996Y-101348180D01*
X60151819Y-101241004D01*
X60011785Y-101183000D01*
X59658250Y-101183000D01*
X59563000Y-101278250D01*
X59309000Y-101278250D01*
X59213750Y-101183000D01*
X58860215Y-101183000D01*
X58720181Y-101241004D01*
X58613004Y-101348180D01*
X58555000Y-101488214D01*
X54720490Y-101488214D01*
X54720490Y-101071404D01*
X54510323Y-100564015D01*
X54121985Y-100175677D01*
X53614596Y-99965510D01*
X53065404Y-99965510D01*
X52558015Y-100175677D01*
X52169677Y-100564015D01*
X51959510Y-101071404D01*
X51256000Y-101071404D01*
X51256000Y-96742250D01*
X51659000Y-96742250D01*
X51659000Y-97895786D01*
X51717004Y-98035820D01*
X51824181Y-98142996D01*
X51964215Y-98201000D01*
X53117750Y-98201000D01*
X53213000Y-98105750D01*
X53213000Y-96647000D01*
X53467000Y-96647000D01*
X53467000Y-98105750D01*
X53562250Y-98201000D01*
X54715785Y-98201000D01*
X54855819Y-98142996D01*
X54962996Y-98035820D01*
X55021000Y-97895786D01*
X55021000Y-96742250D01*
X54925750Y-96647000D01*
X53467000Y-96647000D01*
X53213000Y-96647000D01*
X51754250Y-96647000D01*
X51659000Y-96742250D01*
X51256000Y-96742250D01*
X51256000Y-95144214D01*
X51659000Y-95144214D01*
X51659000Y-96297750D01*
X51754250Y-96393000D01*
X53213000Y-96393000D01*
X53213000Y-94934250D01*
X53467000Y-94934250D01*
X53467000Y-96393000D01*
X54925750Y-96393000D01*
X55021000Y-96297750D01*
X55021000Y-95144214D01*
X54962996Y-95004180D01*
X54855819Y-94897004D01*
X54715785Y-94839000D01*
X53562250Y-94839000D01*
X53467000Y-94934250D01*
X53213000Y-94934250D01*
X53117750Y-94839000D01*
X51964215Y-94839000D01*
X51824181Y-94897004D01*
X51717004Y-95004180D01*
X51659000Y-95144214D01*
X51256000Y-95144214D01*
X51256000Y-93562934D01*
X57775742Y-93562934D01*
X57793001Y-93649701D01*
X57793000Y-94909237D01*
X57775742Y-94996000D01*
X57793000Y-95082763D01*
X57793000Y-95082766D01*
X57844117Y-95339748D01*
X58038835Y-95631165D01*
X58112396Y-95680317D01*
X61095001Y-98662923D01*
X61095000Y-101526474D01*
X61087536Y-101564000D01*
X61087536Y-104714000D01*
X61117106Y-104862659D01*
X61201314Y-104988686D01*
X61327341Y-105072894D01*
X61476000Y-105102464D01*
X61841615Y-105102464D01*
X61414393Y-105529685D01*
X61340836Y-105578835D01*
X61291686Y-105652393D01*
X61146117Y-105870252D01*
X61077742Y-106214000D01*
X61095001Y-106300767D01*
X61095001Y-106576472D01*
X61087536Y-106614000D01*
X61087536Y-109764000D01*
X61117106Y-109912659D01*
X61201314Y-110038686D01*
X61327341Y-110122894D01*
X61476000Y-110152464D01*
X62476000Y-110152464D01*
X62624659Y-110122894D01*
X62750686Y-110038686D01*
X62834894Y-109912659D01*
X62864464Y-109764000D01*
X62864464Y-106614000D01*
X62857406Y-106578516D01*
X63635001Y-105800921D01*
X63635001Y-106576472D01*
X63627536Y-106614000D01*
X63627536Y-109764000D01*
X63657106Y-109912659D01*
X63741314Y-110038686D01*
X63867341Y-110122894D01*
X64016000Y-110152464D01*
X65016000Y-110152464D01*
X65164659Y-110122894D01*
X65290686Y-110038686D01*
X65374894Y-109912659D01*
X65404464Y-109764000D01*
X65404464Y-106614000D01*
X65397000Y-106576476D01*
X65397000Y-104751524D01*
X65404464Y-104714000D01*
X65404464Y-101564000D01*
X65374894Y-101415341D01*
X65297000Y-101298764D01*
X65297000Y-101161500D01*
X71951501Y-94507000D01*
X73985084Y-94507000D01*
X74061998Y-94522299D01*
X74138912Y-94507000D01*
X74138916Y-94507000D01*
X74366729Y-94461685D01*
X74625067Y-94289069D01*
X74668639Y-94223860D01*
X75173862Y-93718637D01*
X75239069Y-93675067D01*
X75411685Y-93416729D01*
X75457000Y-93188916D01*
X75457000Y-93188912D01*
X75472299Y-93111998D01*
X75457000Y-93035084D01*
X75457000Y-89611913D01*
X75472299Y-89534999D01*
X75457000Y-89458085D01*
X75457000Y-89458082D01*
X75411685Y-89230269D01*
X75303792Y-89068796D01*
X75282639Y-89037138D01*
X75239069Y-88971931D01*
X75173862Y-88928361D01*
X74012641Y-87767141D01*
X73969069Y-87701931D01*
X73710731Y-87529315D01*
X73482918Y-87484000D01*
X73482914Y-87484000D01*
X73406000Y-87468701D01*
X73329086Y-87484000D01*
X69728259Y-87484000D01*
X69696685Y-87325269D01*
X69524069Y-87066931D01*
X69265731Y-86894315D01*
X68961000Y-86833700D01*
X68656270Y-86894315D01*
X68397932Y-87066931D01*
X68225315Y-87325269D01*
X68180000Y-87553082D01*
X68180000Y-88188082D01*
X68164700Y-88265000D01*
X68225315Y-88569731D01*
X68366224Y-88780616D01*
X68397931Y-88828069D01*
X68656269Y-89000685D01*
X68961000Y-89061300D01*
X69037918Y-89046000D01*
X73082500Y-89046000D01*
X73399036Y-89362536D01*
X70292000Y-89362536D01*
X70143341Y-89392106D01*
X70017314Y-89476314D01*
X69933106Y-89602341D01*
X69903536Y-89751000D01*
X69903536Y-91351000D01*
X69933106Y-91499659D01*
X70017314Y-91625686D01*
X70143341Y-91709894D01*
X70292000Y-91739464D01*
X70940241Y-91739464D01*
X70871603Y-91753117D01*
X70580187Y-91947835D01*
X70531037Y-92021393D01*
X64316572Y-98235859D01*
X60494324Y-94413611D01*
X60394324Y-94172188D01*
X60202756Y-93980620D01*
X59952459Y-93876944D01*
X59681541Y-93876944D01*
X59555000Y-93929359D01*
X59555000Y-93927855D01*
X61924314Y-91558541D01*
X63708000Y-91558541D01*
X63708000Y-91829459D01*
X63811676Y-92079756D01*
X64003244Y-92271324D01*
X64253541Y-92375000D01*
X64354409Y-92375000D01*
X64391001Y-92411592D01*
X64391000Y-95554920D01*
X64319676Y-95626244D01*
X64216000Y-95876541D01*
X64216000Y-96147459D01*
X64319676Y-96397756D01*
X64511244Y-96589324D01*
X64761541Y-96693000D01*
X65032459Y-96693000D01*
X65282756Y-96589324D01*
X65474324Y-96397756D01*
X65578000Y-96147459D01*
X65578000Y-95876541D01*
X65474324Y-95626244D01*
X65403000Y-95554920D01*
X65403000Y-92251834D01*
X65412913Y-92202000D01*
X65402494Y-92149623D01*
X65373641Y-92004569D01*
X65261806Y-91837194D01*
X65219552Y-91808961D01*
X65142591Y-91732000D01*
X66419750Y-91732000D01*
X66515000Y-91636750D01*
X66515000Y-90678000D01*
X66769000Y-90678000D01*
X66769000Y-91636750D01*
X66864250Y-91732000D01*
X68467786Y-91732000D01*
X68607820Y-91673996D01*
X68714996Y-91566819D01*
X68773000Y-91426785D01*
X68773000Y-90773250D01*
X68677750Y-90678000D01*
X66769000Y-90678000D01*
X66515000Y-90678000D01*
X64606250Y-90678000D01*
X64511000Y-90773250D01*
X64511000Y-91013000D01*
X64253541Y-91013000D01*
X64003244Y-91116676D01*
X63811676Y-91308244D01*
X63708000Y-91558541D01*
X61924314Y-91558541D01*
X62812856Y-90670000D01*
X63032233Y-90670000D01*
X63119000Y-90687259D01*
X63205767Y-90670000D01*
X63794233Y-90670000D01*
X63881000Y-90687259D01*
X63967767Y-90670000D01*
X64224749Y-90618883D01*
X64516165Y-90424165D01*
X64552314Y-90370064D01*
X64606250Y-90424000D01*
X66515000Y-90424000D01*
X66515000Y-89465250D01*
X66769000Y-89465250D01*
X66769000Y-90424000D01*
X68677750Y-90424000D01*
X68773000Y-90328750D01*
X68773000Y-89675215D01*
X68714996Y-89535181D01*
X68607820Y-89428004D01*
X68467786Y-89370000D01*
X66864250Y-89370000D01*
X66769000Y-89465250D01*
X66515000Y-89465250D01*
X66419750Y-89370000D01*
X64816214Y-89370000D01*
X64762000Y-89392456D01*
X64762000Y-89113771D01*
X64779259Y-89027004D01*
X64760312Y-88931750D01*
X64710883Y-88683255D01*
X64516165Y-88391839D01*
X64516161Y-88391835D01*
X64224745Y-88197117D01*
X63967763Y-88146000D01*
X63967759Y-88146000D01*
X63880996Y-88128742D01*
X63794233Y-88146000D01*
X63205767Y-88146000D01*
X63119000Y-88128741D01*
X63032233Y-88146000D01*
X62775251Y-88197117D01*
X62483835Y-88391835D01*
X62289117Y-88683251D01*
X62239602Y-88932181D01*
X62104185Y-88959117D01*
X61812769Y-89153835D01*
X61763619Y-89227393D01*
X58112394Y-92878619D01*
X58038836Y-92927769D01*
X57989686Y-93001327D01*
X57844117Y-93219186D01*
X57775742Y-93562934D01*
X51256000Y-93562934D01*
X51256000Y-91185628D01*
X51659000Y-91185628D01*
X51659000Y-91854372D01*
X51914917Y-92472210D01*
X52387790Y-92945083D01*
X53005628Y-93201000D01*
X53674372Y-93201000D01*
X54292210Y-92945083D01*
X54765083Y-92472210D01*
X55021000Y-91854372D01*
X55021000Y-91185628D01*
X54765083Y-90567790D01*
X54292210Y-90094917D01*
X53674372Y-89839000D01*
X53005628Y-89839000D01*
X52387790Y-90094917D01*
X51914917Y-90567790D01*
X51659000Y-91185628D01*
X51256000Y-91185628D01*
X51256000Y-70739000D01*
X81757798Y-70739000D01*
X81682012Y-71120000D01*
X81682012Y-71120000D01*
G37*
X81682012Y-71120000D02*
X81769835Y-71561516D01*
X81900453Y-71757000D01*
X79330592Y-71757000D01*
X79006038Y-71432447D01*
X78977806Y-71390194D01*
X78810431Y-71278359D01*
X78662835Y-71249000D01*
X78662834Y-71249000D01*
X78613000Y-71239087D01*
X78563166Y-71249000D01*
X77340342Y-71249000D01*
X77224459Y-71201000D01*
X76953541Y-71201000D01*
X76703244Y-71304676D01*
X76511676Y-71496244D01*
X76408000Y-71746541D01*
X76408000Y-72011000D01*
X56056833Y-72011000D01*
X56006999Y-72001087D01*
X55957165Y-72011000D01*
X55809569Y-72040359D01*
X55735275Y-72090000D01*
X55617541Y-72090000D01*
X55367244Y-72193676D01*
X55175676Y-72385244D01*
X55072000Y-72635541D01*
X55072000Y-72906459D01*
X55175676Y-73156756D01*
X55367244Y-73348324D01*
X55447813Y-73381697D01*
X55315494Y-73514016D01*
X55214626Y-73514016D01*
X54964329Y-73617692D01*
X54772761Y-73809260D01*
X54669085Y-74059557D01*
X54669085Y-74330475D01*
X54772761Y-74580772D01*
X54964329Y-74772340D01*
X55214626Y-74876016D01*
X55247001Y-74876016D01*
X55247000Y-76377920D01*
X55175676Y-76449244D01*
X55072000Y-76699541D01*
X55072000Y-76970459D01*
X55175676Y-77220756D01*
X55367244Y-77412324D01*
X55617541Y-77516000D01*
X55829536Y-77516000D01*
X55829536Y-77535000D01*
X55859106Y-77683659D01*
X55923990Y-77780765D01*
X55850106Y-77891341D01*
X55820536Y-78040000D01*
X55820536Y-78059000D01*
X55617541Y-78059000D01*
X55367244Y-78162676D01*
X55175676Y-78354244D01*
X55072000Y-78604541D01*
X55072000Y-78875459D01*
X55175676Y-79125756D01*
X55367244Y-79317324D01*
X55617541Y-79421000D01*
X55820536Y-79421000D01*
X55820536Y-79440000D01*
X55850106Y-79588659D01*
X55923990Y-79699235D01*
X55859106Y-79796341D01*
X55829536Y-79945000D01*
X55829536Y-79964000D01*
X55617541Y-79964000D01*
X55367244Y-80067676D01*
X55175676Y-80259244D01*
X55072000Y-80509541D01*
X55072000Y-80780459D01*
X55175676Y-81030756D01*
X55367244Y-81222324D01*
X55617541Y-81326000D01*
X55829536Y-81326000D01*
X55829536Y-81345000D01*
X55859106Y-81493659D01*
X55943314Y-81619686D01*
X56005145Y-81661000D01*
X55943314Y-81702314D01*
X55859106Y-81828341D01*
X55829536Y-81977000D01*
X55829536Y-81996000D01*
X55617541Y-81996000D01*
X55367244Y-82099676D01*
X55175676Y-82291244D01*
X55072000Y-82541541D01*
X55072000Y-82812459D01*
X55175676Y-83062756D01*
X55367244Y-83254324D01*
X55617541Y-83358000D01*
X55829536Y-83358000D01*
X55829536Y-83377000D01*
X55859106Y-83525659D01*
X55943314Y-83651686D01*
X56005145Y-83693000D01*
X55943314Y-83734314D01*
X55859106Y-83860341D01*
X55829536Y-84009000D01*
X55829536Y-84028000D01*
X55617541Y-84028000D01*
X55367244Y-84131676D01*
X55175676Y-84323244D01*
X55072000Y-84573541D01*
X55072000Y-84844459D01*
X55175676Y-85094756D01*
X55367244Y-85286324D01*
X55617541Y-85390000D01*
X55829536Y-85390000D01*
X55829536Y-85409000D01*
X55859106Y-85557659D01*
X55943314Y-85683686D01*
X56069341Y-85767894D01*
X56218000Y-85797464D01*
X57338000Y-85797464D01*
X57486659Y-85767894D01*
X57612686Y-85683686D01*
X57653862Y-85622062D01*
X57655004Y-85624819D01*
X57762180Y-85731996D01*
X57902214Y-85790000D01*
X58315750Y-85790000D01*
X58411000Y-85694750D01*
X58411000Y-84836000D01*
X58665000Y-84836000D01*
X58665000Y-85694750D01*
X58760250Y-85790000D01*
X59173786Y-85790000D01*
X59313820Y-85731996D01*
X59420996Y-85624819D01*
X59479000Y-85484785D01*
X59479000Y-84931250D01*
X59383750Y-84836000D01*
X58665000Y-84836000D01*
X58411000Y-84836000D01*
X58391000Y-84836000D01*
X58391000Y-84582000D01*
X58411000Y-84582000D01*
X58411000Y-84562000D01*
X58665000Y-84562000D01*
X58665000Y-84582000D01*
X59383750Y-84582000D01*
X59479000Y-84486750D01*
X59479000Y-83933215D01*
X59420996Y-83793181D01*
X59316826Y-83689010D01*
X59372686Y-83651686D01*
X59456894Y-83525659D01*
X59486464Y-83377000D01*
X59486464Y-83329802D01*
X59554541Y-83358000D01*
X59825459Y-83358000D01*
X59941693Y-83309854D01*
X59941693Y-83467294D01*
X59999697Y-83607328D01*
X60095169Y-83702801D01*
X60048007Y-83734314D01*
X59963799Y-83860341D01*
X59934229Y-84009000D01*
X59934229Y-85409000D01*
X59963799Y-85557659D01*
X60048007Y-85683686D01*
X60152000Y-85753171D01*
X60152000Y-85860459D01*
X60255676Y-86110756D01*
X60447244Y-86302324D01*
X60697541Y-86406000D01*
X60968459Y-86406000D01*
X61218756Y-86302324D01*
X61410324Y-86110756D01*
X61514000Y-85860459D01*
X61514000Y-85783280D01*
X61591352Y-85767894D01*
X61717379Y-85683686D01*
X61762693Y-85615868D01*
X61808007Y-85683686D01*
X61934034Y-85767894D01*
X62082693Y-85797464D01*
X63202693Y-85797464D01*
X63330503Y-85772041D01*
X74249000Y-85772041D01*
X74249000Y-86042959D01*
X74349001Y-86284383D01*
X74349000Y-87130618D01*
X74249000Y-87372041D01*
X74249000Y-87642959D01*
X74352676Y-87893256D01*
X74544244Y-88084824D01*
X74794541Y-88188500D01*
X75065459Y-88188500D01*
X75315756Y-88084824D01*
X75507324Y-87893256D01*
X75611000Y-87642959D01*
X75611000Y-87372041D01*
X75511000Y-87130619D01*
X75511000Y-86284381D01*
X75611000Y-86042959D01*
X75611000Y-85772041D01*
X75507324Y-85521744D01*
X75315756Y-85330176D01*
X75065459Y-85226500D01*
X74794541Y-85226500D01*
X74544244Y-85330176D01*
X74352676Y-85521744D01*
X74249000Y-85772041D01*
X63330503Y-85772041D01*
X63351352Y-85767894D01*
X63477379Y-85683686D01*
X63561587Y-85557659D01*
X63591157Y-85409000D01*
X63591157Y-84336128D01*
X64076555Y-83850730D01*
X64118806Y-83822499D01*
X64230641Y-83655124D01*
X64260000Y-83507528D01*
X64269913Y-83457694D01*
X64260000Y-83407860D01*
X64260000Y-81108591D01*
X67979592Y-77389000D01*
X68207459Y-77389000D01*
X68457756Y-77285324D01*
X68649324Y-77093756D01*
X68753000Y-76843459D01*
X68753000Y-76572541D01*
X68649324Y-76322244D01*
X68457756Y-76130676D01*
X68207459Y-76027000D01*
X68197763Y-76027000D01*
X68197000Y-76023167D01*
X68197000Y-75641080D01*
X68268324Y-75569756D01*
X68372000Y-75319459D01*
X68372000Y-75048541D01*
X68326212Y-74937998D01*
X77778407Y-74937998D01*
X79121403Y-76280994D01*
X79112541Y-76280994D01*
X78862244Y-76384670D01*
X78670676Y-76576238D01*
X78567000Y-76826535D01*
X78567000Y-76927402D01*
X76385445Y-79108957D01*
X76343195Y-79137188D01*
X76253704Y-79271123D01*
X76231360Y-79304563D01*
X76192087Y-79501994D01*
X76202001Y-79551833D01*
X76202001Y-79964000D01*
X75937541Y-79964000D01*
X75687244Y-80067676D01*
X75615920Y-80139000D01*
X67005080Y-80139000D01*
X66933756Y-80067676D01*
X66683459Y-79964000D01*
X66412541Y-79964000D01*
X66162244Y-80067676D01*
X65970676Y-80259244D01*
X65867000Y-80509541D01*
X65867000Y-80614550D01*
X65654244Y-80702676D01*
X65462676Y-80894244D01*
X65359000Y-81144541D01*
X65359000Y-81415459D01*
X65462676Y-81665756D01*
X65654244Y-81857324D01*
X65867000Y-81945450D01*
X65867000Y-82050459D01*
X65970676Y-82300756D01*
X66162244Y-82492324D01*
X66412541Y-82596000D01*
X66683459Y-82596000D01*
X66933756Y-82492324D01*
X67005080Y-82421000D01*
X74345914Y-82421000D01*
X74417244Y-82492330D01*
X74667541Y-82596006D01*
X74938459Y-82596006D01*
X75188756Y-82492330D01*
X75380324Y-82300762D01*
X75484000Y-82050465D01*
X75484000Y-81962474D01*
X75583449Y-81962474D01*
X75833746Y-81858798D01*
X76025314Y-81667230D01*
X76128990Y-81416933D01*
X76128990Y-81326000D01*
X76202001Y-81326000D01*
X76202000Y-93643408D01*
X70827409Y-99018000D01*
X69645835Y-99018000D01*
X69596000Y-99008087D01*
X69398568Y-99047359D01*
X69364874Y-99069873D01*
X69231194Y-99159194D01*
X69202963Y-99201445D01*
X68511445Y-99892964D01*
X68511442Y-99892966D01*
X67228873Y-101175536D01*
X66556000Y-101175536D01*
X66407341Y-101205106D01*
X66281314Y-101289314D01*
X66197106Y-101415341D01*
X66167536Y-101564000D01*
X66167536Y-104714000D01*
X66197106Y-104862659D01*
X66281314Y-104988686D01*
X66407341Y-105072894D01*
X66556000Y-105102464D01*
X67556000Y-105102464D01*
X67613352Y-105091056D01*
X66733445Y-105970964D01*
X66691195Y-105999194D01*
X66644263Y-106069434D01*
X66579360Y-106166569D01*
X66567630Y-106225536D01*
X66556000Y-106225536D01*
X66407341Y-106255106D01*
X66281314Y-106339314D01*
X66197106Y-106465341D01*
X66167536Y-106614000D01*
X66167536Y-109764000D01*
X66197106Y-109912659D01*
X66281314Y-110038686D01*
X66407341Y-110122894D01*
X66556000Y-110152464D01*
X67034481Y-110152464D01*
X67112568Y-110204640D01*
X67309999Y-110243913D01*
X67507431Y-110204640D01*
X67598031Y-110144104D01*
X67704659Y-110122894D01*
X67830686Y-110038686D01*
X67914894Y-109912659D01*
X67944464Y-109764000D01*
X67944464Y-106614000D01*
X67914894Y-106465341D01*
X67830686Y-106339314D01*
X67810059Y-106325532D01*
X68648556Y-105487036D01*
X68690806Y-105458806D01*
X68802641Y-105291431D01*
X68832000Y-105143835D01*
X68832000Y-105143834D01*
X68841913Y-105094001D01*
X68832000Y-105044167D01*
X68832000Y-104995826D01*
X68947341Y-105072894D01*
X69096000Y-105102464D01*
X70096000Y-105102464D01*
X70153353Y-105091056D01*
X69273445Y-105970963D01*
X69231195Y-105999194D01*
X69184263Y-106069434D01*
X69119360Y-106166569D01*
X69107630Y-106225536D01*
X69096000Y-106225536D01*
X68947341Y-106255106D01*
X68821314Y-106339314D01*
X68737106Y-106465341D01*
X68707536Y-106614000D01*
X68707536Y-109764000D01*
X68737106Y-109912659D01*
X68821314Y-110038686D01*
X68947341Y-110122894D01*
X69096000Y-110152464D01*
X70096000Y-110152464D01*
X70244659Y-110122894D01*
X70370686Y-110038686D01*
X70454894Y-109912659D01*
X70484464Y-109764000D01*
X70484464Y-106614000D01*
X70454894Y-106465341D01*
X70370686Y-106339314D01*
X70350059Y-106325532D01*
X71537756Y-105137836D01*
X71580006Y-105109606D01*
X71590787Y-105093471D01*
X71636000Y-105102464D01*
X72636000Y-105102464D01*
X72693352Y-105091056D01*
X71813445Y-105970964D01*
X71771195Y-105999194D01*
X71724263Y-106069434D01*
X71659360Y-106166569D01*
X71647630Y-106225536D01*
X71636000Y-106225536D01*
X71487341Y-106255106D01*
X71361314Y-106339314D01*
X71277106Y-106465341D01*
X71247536Y-106614000D01*
X71247536Y-109764000D01*
X71277106Y-109912659D01*
X71361314Y-110038686D01*
X71487341Y-110122894D01*
X71636000Y-110152464D01*
X72636000Y-110152464D01*
X72784659Y-110122894D01*
X72910686Y-110038686D01*
X72994894Y-109912659D01*
X73024464Y-109764000D01*
X73024464Y-106614000D01*
X72994894Y-106465341D01*
X72910686Y-106339314D01*
X72890059Y-106325532D01*
X73728556Y-105487036D01*
X73770806Y-105458806D01*
X73882641Y-105291431D01*
X73912000Y-105143835D01*
X73912000Y-105143834D01*
X73921913Y-105094001D01*
X73912000Y-105044167D01*
X73912000Y-104995826D01*
X74027341Y-105072894D01*
X74176000Y-105102464D01*
X75176000Y-105102464D01*
X75233352Y-105091056D01*
X74353447Y-105970962D01*
X74311194Y-105999194D01*
X74199359Y-106166570D01*
X74187630Y-106225536D01*
X74176000Y-106225536D01*
X74027341Y-106255106D01*
X73901314Y-106339314D01*
X73817106Y-106465341D01*
X73787536Y-106614000D01*
X73787536Y-109764000D01*
X73817106Y-109912659D01*
X73901314Y-110038686D01*
X74027341Y-110122894D01*
X74176000Y-110152464D01*
X75176000Y-110152464D01*
X75324659Y-110122894D01*
X75450686Y-110038686D01*
X75534894Y-109912659D01*
X75564464Y-109764000D01*
X75564464Y-106614000D01*
X75534894Y-106465341D01*
X75450686Y-106339314D01*
X75430059Y-106325532D01*
X76268555Y-105487037D01*
X76310806Y-105458806D01*
X76422641Y-105291431D01*
X76452000Y-105143835D01*
X76452000Y-105143834D01*
X76461913Y-105094001D01*
X76452000Y-105044167D01*
X76452000Y-104995826D01*
X76567341Y-105072894D01*
X76716000Y-105102464D01*
X77716000Y-105102464D01*
X77773352Y-105091056D01*
X76893445Y-105970964D01*
X76851195Y-105999194D01*
X76804263Y-106069434D01*
X76739360Y-106166569D01*
X76727630Y-106225536D01*
X76716000Y-106225536D01*
X76567341Y-106255106D01*
X76441314Y-106339314D01*
X76357106Y-106465341D01*
X76327536Y-106614000D01*
X76327536Y-109764000D01*
X76357106Y-109912659D01*
X76441314Y-110038686D01*
X76567341Y-110122894D01*
X76716000Y-110152464D01*
X77716000Y-110152464D01*
X77864659Y-110122894D01*
X77990686Y-110038686D01*
X78074894Y-109912659D01*
X78104464Y-109764000D01*
X78104464Y-106614000D01*
X78074894Y-106465341D01*
X77990686Y-106339314D01*
X77970059Y-106325532D01*
X78808556Y-105487036D01*
X78850806Y-105458806D01*
X78962641Y-105291431D01*
X78992000Y-105143835D01*
X78992000Y-105143834D01*
X79001913Y-105094001D01*
X78992000Y-105044167D01*
X78992000Y-104995826D01*
X79107341Y-105072894D01*
X79256000Y-105102464D01*
X80139000Y-105102464D01*
X80139000Y-105265408D01*
X79433445Y-105970964D01*
X79391195Y-105999194D01*
X79344263Y-106069434D01*
X79279360Y-106166569D01*
X79267630Y-106225536D01*
X79256000Y-106225536D01*
X79107341Y-106255106D01*
X78981314Y-106339314D01*
X78897106Y-106465341D01*
X78867536Y-106614000D01*
X78867536Y-109764000D01*
X78897106Y-109912659D01*
X78981314Y-110038686D01*
X79107341Y-110122894D01*
X79256000Y-110152464D01*
X80256000Y-110152464D01*
X80404659Y-110122894D01*
X80530686Y-110038686D01*
X80614894Y-109912659D01*
X80644464Y-109764000D01*
X80644464Y-108411250D01*
X81415000Y-108411250D01*
X81415000Y-109839786D01*
X81473004Y-109979820D01*
X81580181Y-110086996D01*
X81720215Y-110145000D01*
X82073750Y-110145000D01*
X82169000Y-110049750D01*
X82169000Y-108316000D01*
X82423000Y-108316000D01*
X82423000Y-110049750D01*
X82518250Y-110145000D01*
X82871785Y-110145000D01*
X83011819Y-110086996D01*
X83118996Y-109979820D01*
X83177000Y-109839786D01*
X83177000Y-108411250D01*
X83081750Y-108316000D01*
X82423000Y-108316000D01*
X82169000Y-108316000D01*
X81510250Y-108316000D01*
X81415000Y-108411250D01*
X80644464Y-108411250D01*
X80644464Y-106614000D01*
X80629390Y-106538214D01*
X81415000Y-106538214D01*
X81415000Y-107966750D01*
X81510250Y-108062000D01*
X82169000Y-108062000D01*
X82169000Y-106328250D01*
X82423000Y-106328250D01*
X82423000Y-108062000D01*
X83081750Y-108062000D01*
X83177000Y-107966750D01*
X83177000Y-106538214D01*
X83118996Y-106398180D01*
X83011819Y-106291004D01*
X82871785Y-106233000D01*
X82518250Y-106233000D01*
X82423000Y-106328250D01*
X82169000Y-106328250D01*
X82073750Y-106233000D01*
X81720215Y-106233000D01*
X81580181Y-106291004D01*
X81473004Y-106398180D01*
X81415000Y-106538214D01*
X80629390Y-106538214D01*
X80614894Y-106465341D01*
X80530686Y-106339314D01*
X80510060Y-106325532D01*
X80967556Y-105868036D01*
X81009806Y-105839806D01*
X81121641Y-105672431D01*
X81151000Y-105524835D01*
X81151000Y-105524834D01*
X81160913Y-105475000D01*
X81151000Y-105425166D01*
X81151000Y-103361250D01*
X81415000Y-103361250D01*
X81415000Y-104789786D01*
X81473004Y-104929820D01*
X81580181Y-105036996D01*
X81720215Y-105095000D01*
X82073750Y-105095000D01*
X82169000Y-104999750D01*
X82169000Y-103266000D01*
X81510250Y-103266000D01*
X81415000Y-103361250D01*
X81151000Y-103361250D01*
X81151000Y-101488214D01*
X81415000Y-101488214D01*
X81415000Y-102916750D01*
X81510250Y-103012000D01*
X82169000Y-103012000D01*
X82169000Y-101278250D01*
X82073750Y-101183000D01*
X81720215Y-101183000D01*
X81580181Y-101241004D01*
X81473004Y-101348180D01*
X81415000Y-101488214D01*
X81151000Y-101488214D01*
X81151000Y-97872591D01*
X81535591Y-97488001D01*
X84298378Y-97488001D01*
X84282000Y-97527541D01*
X84282000Y-97798459D01*
X84330001Y-97914344D01*
X84330000Y-101176729D01*
X84266264Y-101189407D01*
X84242792Y-101071404D01*
X84220684Y-100960260D01*
X84048068Y-100701922D01*
X83982856Y-100658349D01*
X83682861Y-100358353D01*
X83682836Y-100358336D01*
X83474860Y-100150360D01*
X83474858Y-100150359D01*
X83174861Y-99850361D01*
X82981730Y-99721315D01*
X82677000Y-99660701D01*
X82372270Y-99721315D01*
X82113931Y-99893931D01*
X81941315Y-100152270D01*
X81880701Y-100457000D01*
X81941315Y-100761730D01*
X82070361Y-100954861D01*
X82370359Y-101254858D01*
X82370360Y-101254860D01*
X82423000Y-101307500D01*
X82423000Y-103012000D01*
X82443000Y-103012000D01*
X82443000Y-103266000D01*
X82423000Y-103266000D01*
X82423000Y-104999750D01*
X82518250Y-105095000D01*
X82871785Y-105095000D01*
X83011819Y-105036996D01*
X83118996Y-104929820D01*
X83177000Y-104789786D01*
X83177000Y-104376185D01*
X83439000Y-104428300D01*
X83743731Y-104367685D01*
X83947536Y-104231507D01*
X83947536Y-104714000D01*
X83977106Y-104862659D01*
X84061314Y-104988686D01*
X84187341Y-105072894D01*
X84336000Y-105102464D01*
X85336000Y-105102464D01*
X85484659Y-105072894D01*
X85610686Y-104988686D01*
X85646003Y-104935829D01*
X85646003Y-105891923D01*
X85618963Y-105864883D01*
X85580973Y-105808027D01*
X85524117Y-105770037D01*
X85475756Y-105721676D01*
X85412570Y-105695504D01*
X85355713Y-105657513D01*
X85288644Y-105644172D01*
X85225459Y-105618000D01*
X85157065Y-105618000D01*
X85090000Y-105604660D01*
X85022935Y-105618000D01*
X84522065Y-105618000D01*
X84455000Y-105604660D01*
X84387935Y-105618000D01*
X84319541Y-105618000D01*
X84256356Y-105644172D01*
X84189287Y-105657513D01*
X84132430Y-105695504D01*
X84069244Y-105721676D01*
X84020883Y-105770037D01*
X83964027Y-105808027D01*
X83926037Y-105864883D01*
X83877676Y-105913244D01*
X83851504Y-105976430D01*
X83813513Y-106033287D01*
X83800172Y-106100356D01*
X83774000Y-106163541D01*
X83774000Y-106231931D01*
X83760659Y-106299000D01*
X83774000Y-106366069D01*
X83774000Y-106434459D01*
X83800172Y-106497644D01*
X83813513Y-106564713D01*
X83851504Y-106621570D01*
X83877676Y-106684756D01*
X83926037Y-106733117D01*
X83947536Y-106765292D01*
X83947536Y-109764000D01*
X83977106Y-109912659D01*
X84061314Y-110038686D01*
X84187341Y-110122894D01*
X84336000Y-110152464D01*
X85336000Y-110152464D01*
X85423066Y-110135146D01*
X85466248Y-110178328D01*
X85716545Y-110282004D01*
X85987463Y-110282004D01*
X86237760Y-110178328D01*
X86429328Y-109986760D01*
X86498586Y-109819555D01*
X86517106Y-109912659D01*
X86601314Y-110038686D01*
X86727341Y-110122894D01*
X86876000Y-110152464D01*
X87876000Y-110152464D01*
X88024659Y-110122894D01*
X88150686Y-110038686D01*
X88234894Y-109912659D01*
X88264464Y-109764000D01*
X88264464Y-107262619D01*
X88429772Y-107097310D01*
X88530243Y-107197781D01*
X88593430Y-107223954D01*
X88650286Y-107261944D01*
X88717354Y-107275284D01*
X88780540Y-107301457D01*
X88848934Y-107301457D01*
X88915999Y-107314797D01*
X88983064Y-107301457D01*
X89027536Y-107301457D01*
X89027536Y-109764000D01*
X89057106Y-109912659D01*
X89141314Y-110038686D01*
X89267341Y-110122894D01*
X89416000Y-110152464D01*
X90416000Y-110152464D01*
X90564659Y-110122894D01*
X90690686Y-110038686D01*
X90774894Y-109912659D01*
X90804464Y-109764000D01*
X90804464Y-107831710D01*
X90860356Y-107842828D01*
X90923541Y-107869000D01*
X91567536Y-107869000D01*
X91567536Y-109764000D01*
X91597106Y-109912659D01*
X91681314Y-110038686D01*
X91807341Y-110122894D01*
X91956000Y-110152464D01*
X92956000Y-110152464D01*
X93104659Y-110122894D01*
X93230686Y-110038686D01*
X93314894Y-109912659D01*
X93344464Y-109764000D01*
X93344464Y-108190955D01*
X95174000Y-108190955D01*
X95174000Y-108979045D01*
X95475589Y-109707146D01*
X96032854Y-110264411D01*
X96760955Y-110566000D01*
X97549045Y-110566000D01*
X98277146Y-110264411D01*
X98834411Y-109707146D01*
X99136000Y-108979045D01*
X99136000Y-108190955D01*
X98834411Y-107462854D01*
X98277146Y-106905589D01*
X97549045Y-106604000D01*
X96760955Y-106604000D01*
X96032854Y-106905589D01*
X95475589Y-107462854D01*
X95174000Y-108190955D01*
X93344464Y-108190955D01*
X93344464Y-106614000D01*
X93314894Y-106465341D01*
X93230686Y-106339314D01*
X93104659Y-106255106D01*
X92956000Y-106225536D01*
X91956000Y-106225536D01*
X91807341Y-106255106D01*
X91681314Y-106339314D01*
X91597106Y-106465341D01*
X91588820Y-106507000D01*
X91238591Y-106507000D01*
X92083592Y-105662000D01*
X93084430Y-105662000D01*
X93134264Y-105671913D01*
X93184098Y-105662000D01*
X93184099Y-105662000D01*
X93331695Y-105632641D01*
X93499070Y-105520806D01*
X93527303Y-105478552D01*
X95699553Y-103306303D01*
X95741803Y-103278073D01*
X95853638Y-103110698D01*
X95882997Y-102963102D01*
X95882997Y-102963101D01*
X95892910Y-102913268D01*
X95882997Y-102863434D01*
X95882997Y-97074592D01*
X95937450Y-97020139D01*
X95942676Y-97032756D01*
X96014000Y-97104080D01*
X96014000Y-97121098D01*
X96014001Y-97121103D01*
X96014000Y-104184408D01*
X95215409Y-104983000D01*
X95114541Y-104983000D01*
X94864244Y-105086676D01*
X94672676Y-105278244D01*
X94569000Y-105528541D01*
X94569000Y-105799459D01*
X94672676Y-106049756D01*
X94864244Y-106241324D01*
X95114541Y-106345000D01*
X95385459Y-106345000D01*
X95635756Y-106241324D01*
X95827324Y-106049756D01*
X95931000Y-105799459D01*
X95931000Y-105698591D01*
X96842556Y-104787036D01*
X96884806Y-104758806D01*
X96996641Y-104591431D01*
X97026000Y-104443835D01*
X97026000Y-104443834D01*
X97035913Y-104394001D01*
X97026000Y-104344167D01*
X97026000Y-97104080D01*
X97097324Y-97032756D01*
X97201000Y-96782459D01*
X97201000Y-96511541D01*
X97097324Y-96261244D01*
X96905756Y-96069676D01*
X96893140Y-96064450D01*
X97021010Y-95936580D01*
X98794935Y-95936580D01*
X98844769Y-95946493D01*
X98894603Y-95936580D01*
X98894604Y-95936580D01*
X99042200Y-95907221D01*
X99209575Y-95795386D01*
X99237807Y-95753133D01*
X99874001Y-95116940D01*
X99874001Y-97723262D01*
X99489596Y-97338857D01*
X98963644Y-97121000D01*
X98394356Y-97121000D01*
X97868404Y-97338857D01*
X97465857Y-97741404D01*
X97248000Y-98267356D01*
X97248000Y-98836644D01*
X97465857Y-99362596D01*
X97806797Y-99703536D01*
X97679000Y-99703536D01*
X97530341Y-99733106D01*
X97404314Y-99817314D01*
X97320106Y-99943341D01*
X97290536Y-100092000D01*
X97290536Y-102092000D01*
X97320106Y-102240659D01*
X97404314Y-102366686D01*
X97530341Y-102450894D01*
X97679000Y-102480464D01*
X99679000Y-102480464D01*
X99827659Y-102450894D01*
X99874001Y-102419930D01*
X99874001Y-111304000D01*
X51256000Y-111304000D01*
X51256000Y-108190955D01*
X51994000Y-108190955D01*
X51994000Y-108979045D01*
X52295589Y-109707146D01*
X52852854Y-110264411D01*
X53580955Y-110566000D01*
X54369045Y-110566000D01*
X55097146Y-110264411D01*
X55654411Y-109707146D01*
X55956000Y-108979045D01*
X55956000Y-108411250D01*
X58555000Y-108411250D01*
X58555000Y-109839786D01*
X58613004Y-109979820D01*
X58720181Y-110086996D01*
X58860215Y-110145000D01*
X59213750Y-110145000D01*
X59309000Y-110049750D01*
X59309000Y-108316000D01*
X59563000Y-108316000D01*
X59563000Y-110049750D01*
X59658250Y-110145000D01*
X60011785Y-110145000D01*
X60151819Y-110086996D01*
X60258996Y-109979820D01*
X60317000Y-109839786D01*
X60317000Y-108411250D01*
X60221750Y-108316000D01*
X59563000Y-108316000D01*
X59309000Y-108316000D01*
X58650250Y-108316000D01*
X58555000Y-108411250D01*
X55956000Y-108411250D01*
X55956000Y-108190955D01*
X55654411Y-107462854D01*
X55097146Y-106905589D01*
X54369045Y-106604000D01*
X53580955Y-106604000D01*
X52852854Y-106905589D01*
X52295589Y-107462854D01*
X51994000Y-108190955D01*
X51256000Y-108190955D01*
X51256000Y-106538214D01*
X58555000Y-106538214D01*
X58555000Y-107966750D01*
X58650250Y-108062000D01*
X59309000Y-108062000D01*
X59309000Y-106328250D01*
X59563000Y-106328250D01*
X59563000Y-108062000D01*
X60221750Y-108062000D01*
X60317000Y-107966750D01*
X60317000Y-106538214D01*
X60258996Y-106398180D01*
X60151819Y-106291004D01*
X60011785Y-106233000D01*
X59658250Y-106233000D01*
X59563000Y-106328250D01*
X59309000Y-106328250D01*
X59213750Y-106233000D01*
X58860215Y-106233000D01*
X58720181Y-106291004D01*
X58613004Y-106398180D01*
X58555000Y-106538214D01*
X51256000Y-106538214D01*
X51256000Y-101071404D01*
X51959510Y-101071404D01*
X51959510Y-101620596D01*
X52169677Y-102127985D01*
X52558015Y-102516323D01*
X52798657Y-102616000D01*
X52558015Y-102715677D01*
X52169677Y-103104015D01*
X51959510Y-103611404D01*
X51959510Y-104160596D01*
X52169677Y-104667985D01*
X52558015Y-105056323D01*
X53065404Y-105266490D01*
X53614596Y-105266490D01*
X54121985Y-105056323D01*
X54510323Y-104667985D01*
X54720490Y-104160596D01*
X54720490Y-103611404D01*
X54616874Y-103361250D01*
X58555000Y-103361250D01*
X58555000Y-104789786D01*
X58613004Y-104929820D01*
X58720181Y-105036996D01*
X58860215Y-105095000D01*
X59213750Y-105095000D01*
X59309000Y-104999750D01*
X59309000Y-103266000D01*
X59563000Y-103266000D01*
X59563000Y-104999750D01*
X59658250Y-105095000D01*
X60011785Y-105095000D01*
X60151819Y-105036996D01*
X60258996Y-104929820D01*
X60317000Y-104789786D01*
X60317000Y-103361250D01*
X60221750Y-103266000D01*
X59563000Y-103266000D01*
X59309000Y-103266000D01*
X58650250Y-103266000D01*
X58555000Y-103361250D01*
X54616874Y-103361250D01*
X54510323Y-103104015D01*
X54121985Y-102715677D01*
X53881343Y-102616000D01*
X54121985Y-102516323D01*
X54510323Y-102127985D01*
X54720490Y-101620596D01*
X54720490Y-101488214D01*
X58555000Y-101488214D01*
X58555000Y-102916750D01*
X58650250Y-103012000D01*
X59309000Y-103012000D01*
X59309000Y-101278250D01*
X59563000Y-101278250D01*
X59563000Y-103012000D01*
X60221750Y-103012000D01*
X60317000Y-102916750D01*
X60317000Y-101488214D01*
X60258996Y-101348180D01*
X60151819Y-101241004D01*
X60011785Y-101183000D01*
X59658250Y-101183000D01*
X59563000Y-101278250D01*
X59309000Y-101278250D01*
X59213750Y-101183000D01*
X58860215Y-101183000D01*
X58720181Y-101241004D01*
X58613004Y-101348180D01*
X58555000Y-101488214D01*
X54720490Y-101488214D01*
X54720490Y-101071404D01*
X54510323Y-100564015D01*
X54121985Y-100175677D01*
X53614596Y-99965510D01*
X53065404Y-99965510D01*
X52558015Y-100175677D01*
X52169677Y-100564015D01*
X51959510Y-101071404D01*
X51256000Y-101071404D01*
X51256000Y-96742250D01*
X51659000Y-96742250D01*
X51659000Y-97895786D01*
X51717004Y-98035820D01*
X51824181Y-98142996D01*
X51964215Y-98201000D01*
X53117750Y-98201000D01*
X53213000Y-98105750D01*
X53213000Y-96647000D01*
X53467000Y-96647000D01*
X53467000Y-98105750D01*
X53562250Y-98201000D01*
X54715785Y-98201000D01*
X54855819Y-98142996D01*
X54962996Y-98035820D01*
X55021000Y-97895786D01*
X55021000Y-96742250D01*
X54925750Y-96647000D01*
X53467000Y-96647000D01*
X53213000Y-96647000D01*
X51754250Y-96647000D01*
X51659000Y-96742250D01*
X51256000Y-96742250D01*
X51256000Y-95144214D01*
X51659000Y-95144214D01*
X51659000Y-96297750D01*
X51754250Y-96393000D01*
X53213000Y-96393000D01*
X53213000Y-94934250D01*
X53467000Y-94934250D01*
X53467000Y-96393000D01*
X54925750Y-96393000D01*
X55021000Y-96297750D01*
X55021000Y-95144214D01*
X54962996Y-95004180D01*
X54855819Y-94897004D01*
X54715785Y-94839000D01*
X53562250Y-94839000D01*
X53467000Y-94934250D01*
X53213000Y-94934250D01*
X53117750Y-94839000D01*
X51964215Y-94839000D01*
X51824181Y-94897004D01*
X51717004Y-95004180D01*
X51659000Y-95144214D01*
X51256000Y-95144214D01*
X51256000Y-93562934D01*
X57775742Y-93562934D01*
X57793001Y-93649701D01*
X57793000Y-94909237D01*
X57775742Y-94996000D01*
X57793000Y-95082763D01*
X57793000Y-95082766D01*
X57844117Y-95339748D01*
X58038835Y-95631165D01*
X58112396Y-95680317D01*
X61095001Y-98662923D01*
X61095000Y-101526474D01*
X61087536Y-101564000D01*
X61087536Y-104714000D01*
X61117106Y-104862659D01*
X61201314Y-104988686D01*
X61327341Y-105072894D01*
X61476000Y-105102464D01*
X61841615Y-105102464D01*
X61414393Y-105529685D01*
X61340836Y-105578835D01*
X61291686Y-105652393D01*
X61146117Y-105870252D01*
X61077742Y-106214000D01*
X61095001Y-106300767D01*
X61095001Y-106576472D01*
X61087536Y-106614000D01*
X61087536Y-109764000D01*
X61117106Y-109912659D01*
X61201314Y-110038686D01*
X61327341Y-110122894D01*
X61476000Y-110152464D01*
X62476000Y-110152464D01*
X62624659Y-110122894D01*
X62750686Y-110038686D01*
X62834894Y-109912659D01*
X62864464Y-109764000D01*
X62864464Y-106614000D01*
X62857406Y-106578516D01*
X63635001Y-105800921D01*
X63635001Y-106576472D01*
X63627536Y-106614000D01*
X63627536Y-109764000D01*
X63657106Y-109912659D01*
X63741314Y-110038686D01*
X63867341Y-110122894D01*
X64016000Y-110152464D01*
X65016000Y-110152464D01*
X65164659Y-110122894D01*
X65290686Y-110038686D01*
X65374894Y-109912659D01*
X65404464Y-109764000D01*
X65404464Y-106614000D01*
X65397000Y-106576476D01*
X65397000Y-104751524D01*
X65404464Y-104714000D01*
X65404464Y-101564000D01*
X65374894Y-101415341D01*
X65297000Y-101298764D01*
X65297000Y-101161500D01*
X71951501Y-94507000D01*
X73985084Y-94507000D01*
X74061998Y-94522299D01*
X74138912Y-94507000D01*
X74138916Y-94507000D01*
X74366729Y-94461685D01*
X74625067Y-94289069D01*
X74668639Y-94223860D01*
X75173862Y-93718637D01*
X75239069Y-93675067D01*
X75411685Y-93416729D01*
X75457000Y-93188916D01*
X75457000Y-93188912D01*
X75472299Y-93111998D01*
X75457000Y-93035084D01*
X75457000Y-89611913D01*
X75472299Y-89534999D01*
X75457000Y-89458085D01*
X75457000Y-89458082D01*
X75411685Y-89230269D01*
X75303792Y-89068796D01*
X75282639Y-89037138D01*
X75239069Y-88971931D01*
X75173862Y-88928361D01*
X74012641Y-87767141D01*
X73969069Y-87701931D01*
X73710731Y-87529315D01*
X73482918Y-87484000D01*
X73482914Y-87484000D01*
X73406000Y-87468701D01*
X73329086Y-87484000D01*
X69728259Y-87484000D01*
X69696685Y-87325269D01*
X69524069Y-87066931D01*
X69265731Y-86894315D01*
X68961000Y-86833700D01*
X68656270Y-86894315D01*
X68397932Y-87066931D01*
X68225315Y-87325269D01*
X68180000Y-87553082D01*
X68180000Y-88188082D01*
X68164700Y-88265000D01*
X68225315Y-88569731D01*
X68366224Y-88780616D01*
X68397931Y-88828069D01*
X68656269Y-89000685D01*
X68961000Y-89061300D01*
X69037918Y-89046000D01*
X73082500Y-89046000D01*
X73399036Y-89362536D01*
X70292000Y-89362536D01*
X70143341Y-89392106D01*
X70017314Y-89476314D01*
X69933106Y-89602341D01*
X69903536Y-89751000D01*
X69903536Y-91351000D01*
X69933106Y-91499659D01*
X70017314Y-91625686D01*
X70143341Y-91709894D01*
X70292000Y-91739464D01*
X70940241Y-91739464D01*
X70871603Y-91753117D01*
X70580187Y-91947835D01*
X70531037Y-92021393D01*
X64316572Y-98235859D01*
X60494324Y-94413611D01*
X60394324Y-94172188D01*
X60202756Y-93980620D01*
X59952459Y-93876944D01*
X59681541Y-93876944D01*
X59555000Y-93929359D01*
X59555000Y-93927855D01*
X61924314Y-91558541D01*
X63708000Y-91558541D01*
X63708000Y-91829459D01*
X63811676Y-92079756D01*
X64003244Y-92271324D01*
X64253541Y-92375000D01*
X64354409Y-92375000D01*
X64391001Y-92411592D01*
X64391000Y-95554920D01*
X64319676Y-95626244D01*
X64216000Y-95876541D01*
X64216000Y-96147459D01*
X64319676Y-96397756D01*
X64511244Y-96589324D01*
X64761541Y-96693000D01*
X65032459Y-96693000D01*
X65282756Y-96589324D01*
X65474324Y-96397756D01*
X65578000Y-96147459D01*
X65578000Y-95876541D01*
X65474324Y-95626244D01*
X65403000Y-95554920D01*
X65403000Y-92251834D01*
X65412913Y-92202000D01*
X65402494Y-92149623D01*
X65373641Y-92004569D01*
X65261806Y-91837194D01*
X65219552Y-91808961D01*
X65142591Y-91732000D01*
X66419750Y-91732000D01*
X66515000Y-91636750D01*
X66515000Y-90678000D01*
X66769000Y-90678000D01*
X66769000Y-91636750D01*
X66864250Y-91732000D01*
X68467786Y-91732000D01*
X68607820Y-91673996D01*
X68714996Y-91566819D01*
X68773000Y-91426785D01*
X68773000Y-90773250D01*
X68677750Y-90678000D01*
X66769000Y-90678000D01*
X66515000Y-90678000D01*
X64606250Y-90678000D01*
X64511000Y-90773250D01*
X64511000Y-91013000D01*
X64253541Y-91013000D01*
X64003244Y-91116676D01*
X63811676Y-91308244D01*
X63708000Y-91558541D01*
X61924314Y-91558541D01*
X62812856Y-90670000D01*
X63032233Y-90670000D01*
X63119000Y-90687259D01*
X63205767Y-90670000D01*
X63794233Y-90670000D01*
X63881000Y-90687259D01*
X63967767Y-90670000D01*
X64224749Y-90618883D01*
X64516165Y-90424165D01*
X64552314Y-90370064D01*
X64606250Y-90424000D01*
X66515000Y-90424000D01*
X66515000Y-89465250D01*
X66769000Y-89465250D01*
X66769000Y-90424000D01*
X68677750Y-90424000D01*
X68773000Y-90328750D01*
X68773000Y-89675215D01*
X68714996Y-89535181D01*
X68607820Y-89428004D01*
X68467786Y-89370000D01*
X66864250Y-89370000D01*
X66769000Y-89465250D01*
X66515000Y-89465250D01*
X66419750Y-89370000D01*
X64816214Y-89370000D01*
X64762000Y-89392456D01*
X64762000Y-89113771D01*
X64779259Y-89027004D01*
X64760312Y-88931750D01*
X64710883Y-88683255D01*
X64516165Y-88391839D01*
X64516161Y-88391835D01*
X64224745Y-88197117D01*
X63967763Y-88146000D01*
X63967759Y-88146000D01*
X63880996Y-88128742D01*
X63794233Y-88146000D01*
X63205767Y-88146000D01*
X63119000Y-88128741D01*
X63032233Y-88146000D01*
X62775251Y-88197117D01*
X62483835Y-88391835D01*
X62289117Y-88683251D01*
X62239602Y-88932181D01*
X62104185Y-88959117D01*
X61812769Y-89153835D01*
X61763619Y-89227393D01*
X58112394Y-92878619D01*
X58038836Y-92927769D01*
X57989686Y-93001327D01*
X57844117Y-93219186D01*
X57775742Y-93562934D01*
X51256000Y-93562934D01*
X51256000Y-91185628D01*
X51659000Y-91185628D01*
X51659000Y-91854372D01*
X51914917Y-92472210D01*
X52387790Y-92945083D01*
X53005628Y-93201000D01*
X53674372Y-93201000D01*
X54292210Y-92945083D01*
X54765083Y-92472210D01*
X55021000Y-91854372D01*
X55021000Y-91185628D01*
X54765083Y-90567790D01*
X54292210Y-90094917D01*
X53674372Y-89839000D01*
X53005628Y-89839000D01*
X52387790Y-90094917D01*
X51914917Y-90567790D01*
X51659000Y-91185628D01*
X51256000Y-91185628D01*
X51256000Y-70739000D01*
X81757798Y-70739000D01*
X81682012Y-71120000D01*
G36*
X88394001Y-82468320D02*
X88394000Y-83362920D01*
X88322676Y-83434244D01*
X88219000Y-83684541D01*
X88219000Y-83955459D01*
X88322676Y-84205756D01*
X88514244Y-84397324D01*
X88764541Y-84501000D01*
X89029001Y-84501000D01*
X89029001Y-84515826D01*
X88634202Y-84910626D01*
X88622169Y-84922659D01*
X88521301Y-84922659D01*
X88271004Y-85026335D01*
X88146545Y-85150795D01*
X88085750Y-85090000D01*
X87367000Y-85090000D01*
X87367000Y-85110000D01*
X87113000Y-85110000D01*
X87113000Y-85090000D01*
X87093000Y-85090000D01*
X87093000Y-84836000D01*
X87113000Y-84836000D01*
X87113000Y-83312000D01*
X87367000Y-83312000D01*
X87367000Y-84836000D01*
X88085750Y-84836000D01*
X88181000Y-84740750D01*
X88181000Y-84187215D01*
X88134105Y-84074000D01*
X88181000Y-83960785D01*
X88181000Y-83407250D01*
X88085750Y-83312000D01*
X87367000Y-83312000D01*
X87113000Y-83312000D01*
X87093000Y-83312000D01*
X87093000Y-83058000D01*
X87113000Y-83058000D01*
X87113000Y-83038000D01*
X87367000Y-83038000D01*
X87367000Y-83058000D01*
X88085750Y-83058000D01*
X88181000Y-82962750D01*
X88181000Y-82471000D01*
X88250786Y-82471000D01*
X88301620Y-82449944D01*
X88394001Y-82468320D01*
X88394001Y-82468320D01*
G37*
X88394001Y-82468320D02*
X88394000Y-83362920D01*
X88322676Y-83434244D01*
X88219000Y-83684541D01*
X88219000Y-83955459D01*
X88322676Y-84205756D01*
X88514244Y-84397324D01*
X88764541Y-84501000D01*
X89029001Y-84501000D01*
X89029001Y-84515826D01*
X88634202Y-84910626D01*
X88622169Y-84922659D01*
X88521301Y-84922659D01*
X88271004Y-85026335D01*
X88146545Y-85150795D01*
X88085750Y-85090000D01*
X87367000Y-85090000D01*
X87367000Y-85110000D01*
X87113000Y-85110000D01*
X87113000Y-85090000D01*
X87093000Y-85090000D01*
X87093000Y-84836000D01*
X87113000Y-84836000D01*
X87113000Y-83312000D01*
X87367000Y-83312000D01*
X87367000Y-84836000D01*
X88085750Y-84836000D01*
X88181000Y-84740750D01*
X88181000Y-84187215D01*
X88134105Y-84074000D01*
X88181000Y-83960785D01*
X88181000Y-83407250D01*
X88085750Y-83312000D01*
X87367000Y-83312000D01*
X87113000Y-83312000D01*
X87093000Y-83312000D01*
X87093000Y-83058000D01*
X87113000Y-83058000D01*
X87113000Y-83038000D01*
X87367000Y-83038000D01*
X87367000Y-83058000D01*
X88085750Y-83058000D01*
X88181000Y-82962750D01*
X88181000Y-82471000D01*
X88250786Y-82471000D01*
X88301620Y-82449944D01*
X88394001Y-82468320D01*
G36*
X96922012Y-71120000D02*
X97009835Y-71561516D01*
X97259934Y-71935816D01*
X97634234Y-72185915D01*
X97964304Y-72251570D01*
X98885696Y-72251570D01*
X99215766Y-72185915D01*
X99590066Y-71935816D01*
X99840165Y-71561516D01*
X99874000Y-71391415D01*
X99874000Y-73532998D01*
X99802760Y-73532998D01*
X99864960Y-73358665D01*
X99664194Y-72949661D01*
X99324616Y-72663166D01*
X98901250Y-72528430D01*
X98552000Y-72528430D01*
X98552000Y-73533000D01*
X98572000Y-73533000D01*
X98572000Y-73787000D01*
X98552000Y-73787000D01*
X98552000Y-74791570D01*
X98901250Y-74791570D01*
X99324616Y-74656834D01*
X99664194Y-74370339D01*
X99864960Y-73961335D01*
X99802760Y-73787002D01*
X99874000Y-73787002D01*
X99874000Y-75928585D01*
X99840165Y-75758484D01*
X99590066Y-75384184D01*
X99215766Y-75134085D01*
X98885696Y-75068430D01*
X97964304Y-75068430D01*
X97634234Y-75134085D01*
X97259934Y-75384184D01*
X97009835Y-75758484D01*
X96922012Y-76200000D01*
X97009835Y-76641516D01*
X97259934Y-77015816D01*
X97634234Y-77265915D01*
X97964304Y-77331570D01*
X98885696Y-77331570D01*
X99215766Y-77265915D01*
X99590066Y-77015816D01*
X99840165Y-76641516D01*
X99874000Y-76471415D01*
X99874000Y-78468586D01*
X99840165Y-78298484D01*
X99590066Y-77924184D01*
X99215766Y-77674085D01*
X98885696Y-77608430D01*
X97964304Y-77608430D01*
X97634234Y-77674085D01*
X97259934Y-77924184D01*
X97009835Y-78298484D01*
X96922012Y-78740000D01*
X97009835Y-79181516D01*
X97259934Y-79555816D01*
X97634234Y-79805915D01*
X97964304Y-79871570D01*
X98885696Y-79871570D01*
X99215766Y-79805915D01*
X99590066Y-79555816D01*
X99840165Y-79181516D01*
X99874000Y-79011414D01*
X99874000Y-81008586D01*
X99840165Y-80838484D01*
X99590066Y-80464184D01*
X99215766Y-80214085D01*
X98885696Y-80148430D01*
X97964304Y-80148430D01*
X97634234Y-80214085D01*
X97259934Y-80464184D01*
X97009835Y-80838484D01*
X96922012Y-81280000D01*
X96994705Y-81645453D01*
X96578447Y-82061712D01*
X96536194Y-82089944D01*
X96424359Y-82257320D01*
X96398000Y-82389834D01*
X96385087Y-82454750D01*
X96395000Y-82504584D01*
X96395001Y-83823930D01*
X96274459Y-83774000D01*
X96003541Y-83774000D01*
X95753244Y-83877676D01*
X95681920Y-83949000D01*
X94413833Y-83949000D01*
X94363999Y-83939087D01*
X94314165Y-83949000D01*
X94166569Y-83978359D01*
X94018406Y-84077357D01*
X94007686Y-84061314D01*
X93881659Y-83977106D01*
X93733000Y-83947536D01*
X92733000Y-83947536D01*
X92629000Y-83968223D01*
X92629000Y-83843421D01*
X92977745Y-83843421D01*
X93027579Y-83853334D01*
X93077413Y-83843421D01*
X93077414Y-83843421D01*
X93225010Y-83814062D01*
X93392385Y-83702227D01*
X93420617Y-83659974D01*
X94347555Y-82733037D01*
X94389806Y-82704806D01*
X94501641Y-82537431D01*
X94513370Y-82478464D01*
X94525000Y-82478464D01*
X94660000Y-82451611D01*
X94795000Y-82478464D01*
X95795000Y-82478464D01*
X95943659Y-82448894D01*
X96069686Y-82364686D01*
X96153894Y-82238659D01*
X96183464Y-82090000D01*
X96183464Y-80090000D01*
X96153894Y-79941341D01*
X96069686Y-79815314D01*
X95943659Y-79731106D01*
X95795000Y-79701536D01*
X94795000Y-79701536D01*
X94660000Y-79728389D01*
X94531000Y-79702729D01*
X94531000Y-73968271D01*
X94660000Y-73942611D01*
X94795000Y-73969464D01*
X95795000Y-73969464D01*
X95835867Y-73961335D01*
X96985040Y-73961335D01*
X97185806Y-74370339D01*
X97525384Y-74656834D01*
X97948750Y-74791570D01*
X98298000Y-74791570D01*
X98298000Y-73787000D01*
X97047241Y-73787000D01*
X96985040Y-73961335D01*
X95835867Y-73961335D01*
X95943659Y-73939894D01*
X96069686Y-73855686D01*
X96153894Y-73729659D01*
X96183464Y-73581000D01*
X96183464Y-73358665D01*
X96985040Y-73358665D01*
X97047241Y-73533000D01*
X98298000Y-73533000D01*
X98298000Y-72528430D01*
X97948750Y-72528430D01*
X97525384Y-72663166D01*
X97185806Y-72949661D01*
X96985040Y-73358665D01*
X96183464Y-73358665D01*
X96183464Y-71581000D01*
X96153894Y-71432341D01*
X96069686Y-71306314D01*
X95943659Y-71222106D01*
X95795000Y-71192536D01*
X94795000Y-71192536D01*
X94660000Y-71219389D01*
X94525000Y-71192536D01*
X93525000Y-71192536D01*
X93390000Y-71219389D01*
X93255000Y-71192536D01*
X92255000Y-71192536D01*
X92120000Y-71219389D01*
X91985000Y-71192536D01*
X90985000Y-71192536D01*
X90850000Y-71219389D01*
X90715000Y-71192536D01*
X89715000Y-71192536D01*
X89580000Y-71219389D01*
X89445000Y-71192536D01*
X89427616Y-71192536D01*
X89285756Y-71050676D01*
X89035459Y-70947000D01*
X88764541Y-70947000D01*
X88514244Y-71050676D01*
X88354353Y-71210567D01*
X88301620Y-71221056D01*
X88250786Y-71200000D01*
X87897250Y-71200000D01*
X87802000Y-71295250D01*
X87802000Y-72454000D01*
X87822000Y-72454000D01*
X87822000Y-72708000D01*
X87802000Y-72708000D01*
X87802000Y-73866750D01*
X87897250Y-73962000D01*
X88250786Y-73962000D01*
X88301620Y-73940944D01*
X88439001Y-73968271D01*
X88439000Y-79702729D01*
X88301620Y-79730056D01*
X88250786Y-79709000D01*
X87897250Y-79709000D01*
X87802000Y-79804250D01*
X87802000Y-80963000D01*
X87822000Y-80963000D01*
X87822000Y-81217000D01*
X87802000Y-81217000D01*
X87802000Y-81237000D01*
X87548000Y-81237000D01*
X87548000Y-81217000D01*
X87528000Y-81217000D01*
X87528000Y-80963000D01*
X87548000Y-80963000D01*
X87548000Y-79804250D01*
X87452750Y-79709000D01*
X87207657Y-79709000D01*
X87873368Y-79043289D01*
X87921877Y-79010877D01*
X88050290Y-78818695D01*
X88084000Y-78649222D01*
X88084000Y-78649218D01*
X88095381Y-78592001D01*
X88084000Y-78534784D01*
X88084000Y-74788800D01*
X88095381Y-74731583D01*
X88084000Y-74674366D01*
X88084000Y-74674362D01*
X88050290Y-74504889D01*
X87921877Y-74312707D01*
X87873368Y-74280294D01*
X87503912Y-73910838D01*
X87548000Y-73866750D01*
X87548000Y-72708000D01*
X87528000Y-72708000D01*
X87528000Y-72454000D01*
X87548000Y-72454000D01*
X87548000Y-71295250D01*
X87452750Y-71200000D01*
X87099214Y-71200000D01*
X87048380Y-71221056D01*
X86905000Y-71192536D01*
X85905000Y-71192536D01*
X85756341Y-71222106D01*
X85680087Y-71273057D01*
X85667324Y-71242244D01*
X85475756Y-71050676D01*
X85225459Y-70947000D01*
X84954541Y-70947000D01*
X84704244Y-71050676D01*
X84679183Y-71075737D01*
X84612202Y-70739000D01*
X96997798Y-70739000D01*
X96922012Y-71120000D01*
X96922012Y-71120000D01*
G37*
X96922012Y-71120000D02*
X97009835Y-71561516D01*
X97259934Y-71935816D01*
X97634234Y-72185915D01*
X97964304Y-72251570D01*
X98885696Y-72251570D01*
X99215766Y-72185915D01*
X99590066Y-71935816D01*
X99840165Y-71561516D01*
X99874000Y-71391415D01*
X99874000Y-73532998D01*
X99802760Y-73532998D01*
X99864960Y-73358665D01*
X99664194Y-72949661D01*
X99324616Y-72663166D01*
X98901250Y-72528430D01*
X98552000Y-72528430D01*
X98552000Y-73533000D01*
X98572000Y-73533000D01*
X98572000Y-73787000D01*
X98552000Y-73787000D01*
X98552000Y-74791570D01*
X98901250Y-74791570D01*
X99324616Y-74656834D01*
X99664194Y-74370339D01*
X99864960Y-73961335D01*
X99802760Y-73787002D01*
X99874000Y-73787002D01*
X99874000Y-75928585D01*
X99840165Y-75758484D01*
X99590066Y-75384184D01*
X99215766Y-75134085D01*
X98885696Y-75068430D01*
X97964304Y-75068430D01*
X97634234Y-75134085D01*
X97259934Y-75384184D01*
X97009835Y-75758484D01*
X96922012Y-76200000D01*
X97009835Y-76641516D01*
X97259934Y-77015816D01*
X97634234Y-77265915D01*
X97964304Y-77331570D01*
X98885696Y-77331570D01*
X99215766Y-77265915D01*
X99590066Y-77015816D01*
X99840165Y-76641516D01*
X99874000Y-76471415D01*
X99874000Y-78468586D01*
X99840165Y-78298484D01*
X99590066Y-77924184D01*
X99215766Y-77674085D01*
X98885696Y-77608430D01*
X97964304Y-77608430D01*
X97634234Y-77674085D01*
X97259934Y-77924184D01*
X97009835Y-78298484D01*
X96922012Y-78740000D01*
X97009835Y-79181516D01*
X97259934Y-79555816D01*
X97634234Y-79805915D01*
X97964304Y-79871570D01*
X98885696Y-79871570D01*
X99215766Y-79805915D01*
X99590066Y-79555816D01*
X99840165Y-79181516D01*
X99874000Y-79011414D01*
X99874000Y-81008586D01*
X99840165Y-80838484D01*
X99590066Y-80464184D01*
X99215766Y-80214085D01*
X98885696Y-80148430D01*
X97964304Y-80148430D01*
X97634234Y-80214085D01*
X97259934Y-80464184D01*
X97009835Y-80838484D01*
X96922012Y-81280000D01*
X96994705Y-81645453D01*
X96578447Y-82061712D01*
X96536194Y-82089944D01*
X96424359Y-82257320D01*
X96398000Y-82389834D01*
X96385087Y-82454750D01*
X96395000Y-82504584D01*
X96395001Y-83823930D01*
X96274459Y-83774000D01*
X96003541Y-83774000D01*
X95753244Y-83877676D01*
X95681920Y-83949000D01*
X94413833Y-83949000D01*
X94363999Y-83939087D01*
X94314165Y-83949000D01*
X94166569Y-83978359D01*
X94018406Y-84077357D01*
X94007686Y-84061314D01*
X93881659Y-83977106D01*
X93733000Y-83947536D01*
X92733000Y-83947536D01*
X92629000Y-83968223D01*
X92629000Y-83843421D01*
X92977745Y-83843421D01*
X93027579Y-83853334D01*
X93077413Y-83843421D01*
X93077414Y-83843421D01*
X93225010Y-83814062D01*
X93392385Y-83702227D01*
X93420617Y-83659974D01*
X94347555Y-82733037D01*
X94389806Y-82704806D01*
X94501641Y-82537431D01*
X94513370Y-82478464D01*
X94525000Y-82478464D01*
X94660000Y-82451611D01*
X94795000Y-82478464D01*
X95795000Y-82478464D01*
X95943659Y-82448894D01*
X96069686Y-82364686D01*
X96153894Y-82238659D01*
X96183464Y-82090000D01*
X96183464Y-80090000D01*
X96153894Y-79941341D01*
X96069686Y-79815314D01*
X95943659Y-79731106D01*
X95795000Y-79701536D01*
X94795000Y-79701536D01*
X94660000Y-79728389D01*
X94531000Y-79702729D01*
X94531000Y-73968271D01*
X94660000Y-73942611D01*
X94795000Y-73969464D01*
X95795000Y-73969464D01*
X95835867Y-73961335D01*
X96985040Y-73961335D01*
X97185806Y-74370339D01*
X97525384Y-74656834D01*
X97948750Y-74791570D01*
X98298000Y-74791570D01*
X98298000Y-73787000D01*
X97047241Y-73787000D01*
X96985040Y-73961335D01*
X95835867Y-73961335D01*
X95943659Y-73939894D01*
X96069686Y-73855686D01*
X96153894Y-73729659D01*
X96183464Y-73581000D01*
X96183464Y-73358665D01*
X96985040Y-73358665D01*
X97047241Y-73533000D01*
X98298000Y-73533000D01*
X98298000Y-72528430D01*
X97948750Y-72528430D01*
X97525384Y-72663166D01*
X97185806Y-72949661D01*
X96985040Y-73358665D01*
X96183464Y-73358665D01*
X96183464Y-71581000D01*
X96153894Y-71432341D01*
X96069686Y-71306314D01*
X95943659Y-71222106D01*
X95795000Y-71192536D01*
X94795000Y-71192536D01*
X94660000Y-71219389D01*
X94525000Y-71192536D01*
X93525000Y-71192536D01*
X93390000Y-71219389D01*
X93255000Y-71192536D01*
X92255000Y-71192536D01*
X92120000Y-71219389D01*
X91985000Y-71192536D01*
X90985000Y-71192536D01*
X90850000Y-71219389D01*
X90715000Y-71192536D01*
X89715000Y-71192536D01*
X89580000Y-71219389D01*
X89445000Y-71192536D01*
X89427616Y-71192536D01*
X89285756Y-71050676D01*
X89035459Y-70947000D01*
X88764541Y-70947000D01*
X88514244Y-71050676D01*
X88354353Y-71210567D01*
X88301620Y-71221056D01*
X88250786Y-71200000D01*
X87897250Y-71200000D01*
X87802000Y-71295250D01*
X87802000Y-72454000D01*
X87822000Y-72454000D01*
X87822000Y-72708000D01*
X87802000Y-72708000D01*
X87802000Y-73866750D01*
X87897250Y-73962000D01*
X88250786Y-73962000D01*
X88301620Y-73940944D01*
X88439001Y-73968271D01*
X88439000Y-79702729D01*
X88301620Y-79730056D01*
X88250786Y-79709000D01*
X87897250Y-79709000D01*
X87802000Y-79804250D01*
X87802000Y-80963000D01*
X87822000Y-80963000D01*
X87822000Y-81217000D01*
X87802000Y-81217000D01*
X87802000Y-81237000D01*
X87548000Y-81237000D01*
X87548000Y-81217000D01*
X87528000Y-81217000D01*
X87528000Y-80963000D01*
X87548000Y-80963000D01*
X87548000Y-79804250D01*
X87452750Y-79709000D01*
X87207657Y-79709000D01*
X87873368Y-79043289D01*
X87921877Y-79010877D01*
X88050290Y-78818695D01*
X88084000Y-78649222D01*
X88084000Y-78649218D01*
X88095381Y-78592001D01*
X88084000Y-78534784D01*
X88084000Y-74788800D01*
X88095381Y-74731583D01*
X88084000Y-74674366D01*
X88084000Y-74674362D01*
X88050290Y-74504889D01*
X87921877Y-74312707D01*
X87873368Y-74280294D01*
X87503912Y-73910838D01*
X87548000Y-73866750D01*
X87548000Y-72708000D01*
X87528000Y-72708000D01*
X87528000Y-72454000D01*
X87548000Y-72454000D01*
X87548000Y-71295250D01*
X87452750Y-71200000D01*
X87099214Y-71200000D01*
X87048380Y-71221056D01*
X86905000Y-71192536D01*
X85905000Y-71192536D01*
X85756341Y-71222106D01*
X85680087Y-71273057D01*
X85667324Y-71242244D01*
X85475756Y-71050676D01*
X85225459Y-70947000D01*
X84954541Y-70947000D01*
X84704244Y-71050676D01*
X84679183Y-71075737D01*
X84612202Y-70739000D01*
X96997798Y-70739000D01*
X96922012Y-71120000D01*
G36*
X61009693Y-82564509D02*
X61029693Y-82564509D01*
X61029693Y-82818509D01*
X61009693Y-82818509D01*
X61009693Y-82838509D01*
X60755693Y-82838509D01*
X60755693Y-82818509D01*
X60735693Y-82818509D01*
X60735693Y-82564509D01*
X60755693Y-82564509D01*
X60755693Y-82544509D01*
X61009693Y-82544509D01*
X61009693Y-82564509D01*
X61009693Y-82564509D01*
G37*
X61009693Y-82564509D02*
X61029693Y-82564509D01*
X61029693Y-82818509D01*
X61009693Y-82818509D01*
X61009693Y-82838509D01*
X60755693Y-82838509D01*
X60755693Y-82818509D01*
X60735693Y-82818509D01*
X60735693Y-82564509D01*
X60755693Y-82564509D01*
X60755693Y-82544509D01*
X61009693Y-82544509D01*
X61009693Y-82564509D01*
G36*
X59735314Y-75650686D02*
X59861341Y-75734894D01*
X60010000Y-75764464D01*
X60229970Y-75764464D01*
X60171441Y-75776106D01*
X60045414Y-75860314D01*
X59961206Y-75986341D01*
X59931636Y-76135000D01*
X59931636Y-77535000D01*
X59961206Y-77683659D01*
X60030590Y-77787500D01*
X59961206Y-77891341D01*
X59931636Y-78040000D01*
X59931636Y-79440000D01*
X59961206Y-79588659D01*
X60036734Y-79701695D01*
X59963799Y-79810850D01*
X59934229Y-79959509D01*
X59934229Y-81359509D01*
X59963799Y-81508168D01*
X60048007Y-81634195D01*
X60103867Y-81671519D01*
X59999697Y-81775690D01*
X59941693Y-81915724D01*
X59941693Y-82044146D01*
X59825459Y-81996000D01*
X59554541Y-81996000D01*
X59486464Y-82024198D01*
X59486464Y-81977000D01*
X59456894Y-81828341D01*
X59372686Y-81702314D01*
X59310855Y-81661000D01*
X59372686Y-81619686D01*
X59456894Y-81493659D01*
X59486464Y-81345000D01*
X59486464Y-79945000D01*
X59456894Y-79796341D01*
X59383010Y-79685765D01*
X59447894Y-79588659D01*
X59477464Y-79440000D01*
X59477464Y-78040000D01*
X59447894Y-77891341D01*
X59383010Y-77794235D01*
X59456894Y-77683659D01*
X59486464Y-77535000D01*
X59486464Y-76135000D01*
X59456894Y-75986341D01*
X59372686Y-75860314D01*
X59246659Y-75776106D01*
X59188130Y-75764464D01*
X59370000Y-75764464D01*
X59518659Y-75734894D01*
X59644686Y-75650686D01*
X59690000Y-75582868D01*
X59735314Y-75650686D01*
X59735314Y-75650686D01*
G37*
X59735314Y-75650686D02*
X59861341Y-75734894D01*
X60010000Y-75764464D01*
X60229970Y-75764464D01*
X60171441Y-75776106D01*
X60045414Y-75860314D01*
X59961206Y-75986341D01*
X59931636Y-76135000D01*
X59931636Y-77535000D01*
X59961206Y-77683659D01*
X60030590Y-77787500D01*
X59961206Y-77891341D01*
X59931636Y-78040000D01*
X59931636Y-79440000D01*
X59961206Y-79588659D01*
X60036734Y-79701695D01*
X59963799Y-79810850D01*
X59934229Y-79959509D01*
X59934229Y-81359509D01*
X59963799Y-81508168D01*
X60048007Y-81634195D01*
X60103867Y-81671519D01*
X59999697Y-81775690D01*
X59941693Y-81915724D01*
X59941693Y-82044146D01*
X59825459Y-81996000D01*
X59554541Y-81996000D01*
X59486464Y-82024198D01*
X59486464Y-81977000D01*
X59456894Y-81828341D01*
X59372686Y-81702314D01*
X59310855Y-81661000D01*
X59372686Y-81619686D01*
X59456894Y-81493659D01*
X59486464Y-81345000D01*
X59486464Y-79945000D01*
X59456894Y-79796341D01*
X59383010Y-79685765D01*
X59447894Y-79588659D01*
X59477464Y-79440000D01*
X59477464Y-78040000D01*
X59447894Y-77891341D01*
X59383010Y-77794235D01*
X59456894Y-77683659D01*
X59486464Y-77535000D01*
X59486464Y-76135000D01*
X59456894Y-75986341D01*
X59372686Y-75860314D01*
X59246659Y-75776106D01*
X59188130Y-75764464D01*
X59370000Y-75764464D01*
X59518659Y-75734894D01*
X59644686Y-75650686D01*
X59690000Y-75582868D01*
X59735314Y-75650686D01*
G36*
X67113676Y-75569756D02*
X67185000Y-75641080D01*
X67185000Y-75863408D01*
X64308000Y-78740409D01*
X64308000Y-78604541D01*
X64204324Y-78354244D01*
X64012756Y-78162676D01*
X63762459Y-78059000D01*
X63588564Y-78059000D01*
X63588564Y-78040000D01*
X63558994Y-77891341D01*
X63488330Y-77785585D01*
X63523096Y-77750819D01*
X63581100Y-77610785D01*
X63581100Y-77057250D01*
X63485850Y-76962000D01*
X62767100Y-76962000D01*
X62767100Y-76982000D01*
X62513100Y-76982000D01*
X62513100Y-76962000D01*
X62493100Y-76962000D01*
X62493100Y-76708000D01*
X62513100Y-76708000D01*
X62513100Y-76688000D01*
X62767100Y-76688000D01*
X62767100Y-76708000D01*
X63485850Y-76708000D01*
X63581100Y-76612750D01*
X63581100Y-76325000D01*
X65746164Y-76325000D01*
X65795998Y-76334913D01*
X65845832Y-76325000D01*
X65845833Y-76325000D01*
X65993429Y-76295641D01*
X66160804Y-76183806D01*
X66189037Y-76141553D01*
X67010331Y-75320258D01*
X67113676Y-75569756D01*
X67113676Y-75569756D01*
G37*
X67113676Y-75569756D02*
X67185000Y-75641080D01*
X67185000Y-75863408D01*
X64308000Y-78740409D01*
X64308000Y-78604541D01*
X64204324Y-78354244D01*
X64012756Y-78162676D01*
X63762459Y-78059000D01*
X63588564Y-78059000D01*
X63588564Y-78040000D01*
X63558994Y-77891341D01*
X63488330Y-77785585D01*
X63523096Y-77750819D01*
X63581100Y-77610785D01*
X63581100Y-77057250D01*
X63485850Y-76962000D01*
X62767100Y-76962000D01*
X62767100Y-76982000D01*
X62513100Y-76982000D01*
X62513100Y-76962000D01*
X62493100Y-76962000D01*
X62493100Y-76708000D01*
X62513100Y-76708000D01*
X62513100Y-76688000D01*
X62767100Y-76688000D01*
X62767100Y-76708000D01*
X63485850Y-76708000D01*
X63581100Y-76612750D01*
X63581100Y-76325000D01*
X65746164Y-76325000D01*
X65795998Y-76334913D01*
X65845832Y-76325000D01*
X65845833Y-76325000D01*
X65993429Y-76295641D01*
X66160804Y-76183806D01*
X66189037Y-76141553D01*
X67010331Y-75320258D01*
X67113676Y-75569756D01*
M02*
